<svg width="73" height="72" viewBox="0 0 73 72" fill="none" xmlns="http://www.w3.org/2000/svg">
<path d="M21.3865 21.54V17.54H54.0719V21.54H21.3865ZM21.3865 32.616V28.616H54.0719V32.616H21.3865ZM31.1603 72H7.94298C5.70306 72 3.81925 71.2307 2.29155 69.692C0.763851 68.1533 0 66.256 0 64V52.92H11.9145V0H63.5439V26.308L59.5724 30.308V4H15.886V52.92H37.1176L33.1461 56.92H3.97149V64C3.97149 65.1333 4.35276 66.084 5.11528 66.852C5.87781 67.62 6.82038 68.0027 7.94298 68H31.1603V72ZM40.6323 72V63.16L64.3024 39.424L73 48.24L49.4054 72H40.6323ZM44.1471 68.464H47.92L61.6892 54.568L59.8226 52.668L58.0156 50.716L44.1471 64.66V68.464ZM59.8226 52.668L58.0156 50.716L61.6892 54.568L59.8226 52.668Z" fill="#866B57"/>
</svg>
