<svg width="69" height="69" viewBox="0 0 69 69" fill="none" xmlns="http://www.w3.org/2000/svg">
<path fill-rule="evenodd" clip-rule="evenodd" d="M13.889 28.7506C13.889 28.7506 15.4463 28.5397 17.7059 27.9341C23.664 26.3375 34.5 22.004 34.5 11.5813C34.5005 10.0604 34.2026 8.55432 33.6233 7.1491C33.044 5.74388 32.1947 4.46707 31.1238 3.39164C30.053 2.3162 28.7817 1.46322 27.3825 0.881433C25.9833 0.299645 24.4837 0.000454705 22.9693 0.000958395H11.679C10.1525 -0.0187669 8.63716 0.266171 7.22109 0.83924C5.80502 1.41231 4.51636 2.2621 3.42988 3.3393C2.34341 4.4165 1.48075 5.69967 0.89197 7.11435C0.303187 8.52903 0 10.0471 0 11.5803C0 13.1136 0.303187 14.6317 0.89197 16.0463C1.48075 17.461 2.34341 18.7442 3.42988 19.8214C4.51636 20.8986 5.80502 21.7484 7.22109 22.3214C8.63716 22.8945 10.1525 23.1794 11.679 23.1597H13.889V28.7506ZM17.7059 19.3264H11.679C10.656 19.3426 9.6399 19.1542 8.69003 18.7722C7.74015 18.3901 6.87545 17.8221 6.14627 17.1012C5.41708 16.3804 4.83799 15.521 4.44271 14.5731C4.04743 13.6253 3.84386 12.608 3.84386 11.5803C3.84386 10.5527 4.04743 9.53538 4.44271 8.58755C4.83799 7.63971 5.41708 6.78032 6.14627 6.05943C6.87545 5.33853 7.74015 4.77054 8.69003 4.38851C9.6399 4.00649 10.656 3.81808 11.679 3.83424H22.9693C23.9824 3.83373 24.9857 4.03377 25.9219 4.42292C26.858 4.81207 27.7085 5.38269 28.4249 6.10218C29.1413 6.82166 29.7095 7.67589 30.097 8.61603C30.4845 9.55617 30.6836 10.5638 30.6831 11.5813C30.6831 16.532 27.2327 19.8286 22.5361 22.1036C20.9776 22.8482 19.3624 23.4667 17.7059 23.9532V19.3264ZM16.37 49.8336C20.5876 49.8336 24.0037 46.4028 24.0037 42.167C24.0037 37.9313 20.5876 34.5005 16.37 34.5005C12.1523 34.5005 8.73625 37.9313 8.73625 42.167C8.73625 46.4028 12.1523 49.8336 16.37 49.8336ZM20.1868 42.167C20.1868 43.1837 19.7847 44.1587 19.0689 44.8776C18.3531 45.5965 17.3822 46.0003 16.37 46.0003C15.3577 46.0003 14.3868 45.5965 13.671 44.8776C12.9552 44.1587 12.5531 43.1837 12.5531 42.167C12.5531 41.1504 12.9552 40.1754 13.671 39.4565C14.3868 38.7376 15.3577 38.3338 16.37 38.3338C17.3822 38.3338 18.3531 38.7376 19.0689 39.4565C19.7847 40.1754 20.1868 41.1504 20.1868 42.167ZM0.14834 61.8452C0.14834 56.4058 10.9558 53.6669 16.37 53.6669C21.7842 53.6669 32.5916 56.4077 32.5916 61.8452V69H0.14834V61.8452ZM3.96519 65.1667V61.8452C3.96519 61.826 3.96519 61.7877 4.01481 61.6918C4.07588 61.573 4.21519 61.3641 4.51673 61.0843C5.1446 60.4997 6.19614 59.8615 7.65227 59.273C10.5722 58.0943 14.1409 57.5002 16.37 57.5002C18.599 57.5002 22.1697 58.0943 25.0876 59.273C26.5419 59.8615 27.5953 60.4997 28.2232 61.0843C28.5247 61.3641 28.664 61.573 28.7251 61.6899C28.7747 61.7858 28.7747 61.8279 28.7747 61.8433V65.1667H3.96519ZM60.2637 42.167C60.2637 46.4028 56.8477 49.8336 52.63 49.8336C48.4124 49.8336 44.9963 46.4028 44.9963 42.167C44.9963 37.9313 48.4124 34.5005 52.63 34.5005C56.8477 34.5005 60.2637 37.9313 60.2637 42.167ZM52.63 46.0003C53.6423 46.0003 54.6132 45.5965 55.329 44.8776C56.0448 44.1587 56.4469 43.1837 56.4469 42.167C56.4469 41.1504 56.0448 40.1754 55.329 39.4565C54.6132 38.7376 53.6423 38.3338 52.63 38.3338C51.6177 38.3338 50.6469 38.7376 49.9311 39.4565C49.2153 40.1754 48.8132 41.1504 48.8132 42.167C48.8132 43.1837 49.2153 44.1587 49.9311 44.8776C50.6469 45.5965 51.6177 46.0003 52.63 46.0003ZM36.4084 61.8452C36.4084 56.4058 47.2158 53.6669 52.63 53.6669C58.0442 53.6669 68.8517 56.4077 68.8517 61.8452V69H36.4084V61.8452ZM40.2253 65.1667V61.8452C40.2253 61.826 40.2253 61.7877 40.2749 61.6918C40.336 61.573 40.4753 61.3641 40.7749 61.0843C41.4047 60.4997 42.4581 59.8615 43.9124 59.273C46.8322 58.0943 50.401 57.5002 52.63 57.5002C54.8591 57.5002 58.4297 58.0943 61.3477 59.273C62.802 59.8615 63.8554 60.4997 64.4852 61.0843C64.7848 61.3641 64.9241 61.573 64.9852 61.6899C65.0348 61.7858 65.0348 61.8279 65.0348 61.8433V65.1667H40.2253ZM52.8209 29.7204C55.0537 30.4257 56.6377 30.6672 56.6377 30.6672V25.0764H57.321C58.8475 25.0961 60.3628 24.8111 61.7789 24.2381C63.195 23.665 64.4836 22.8152 65.5701 21.738C66.6566 20.6608 67.5192 19.3776 68.108 17.963C68.6968 16.5483 69 15.0303 69 13.497C69 11.9637 68.6968 10.4457 68.108 9.03099C67.5192 7.61631 66.6566 6.33314 65.5701 5.25594C64.4836 4.17874 63.195 3.32895 61.7789 2.75588C60.3628 2.18281 58.8475 1.89787 57.321 1.9176H49.8476C48.3332 1.91709 46.8335 2.21628 45.4344 2.79807C44.0352 3.37986 42.7638 4.23284 41.693 5.30828C40.6222 6.38371 39.7728 7.66052 39.1936 9.06574C38.6143 10.471 38.3163 11.977 38.3168 13.4979C38.3168 23.6485 47.4525 28.0261 52.8209 29.7204ZM57.321 21.2431H52.8209V25.6763C51.6091 25.2415 50.4315 24.7161 49.2979 24.1046C45.3208 21.9369 42.1337 18.6844 42.1337 13.496C42.1334 12.4787 42.3328 11.4713 42.7204 10.5313C43.108 9.59142 43.6762 8.73742 44.3926 8.01814C45.109 7.29886 45.9594 6.72841 46.8954 6.33938C47.8314 5.95035 48.8346 5.75037 49.8476 5.75088H57.321C58.344 5.73472 59.3601 5.92313 60.31 6.30515C61.2598 6.68718 62.1246 7.25517 62.8537 7.97607C63.5829 8.69696 64.162 9.55635 64.5573 10.5042C64.9526 11.452 65.1561 12.4694 65.1561 13.497C65.1561 14.5246 64.9526 15.5419 64.5573 16.4898C64.162 17.4376 63.5829 18.297 62.8537 19.0179C62.1246 19.7388 61.2598 20.3068 60.31 20.6888C59.3601 21.0708 58.344 21.2592 57.321 21.2431Z" fill="#866B57"/>
</svg>
