<svg width="72" height="62" viewBox="0 0 72 62" fill="none" xmlns="http://www.w3.org/2000/svg">
<path fill-rule="evenodd" clip-rule="evenodd" d="M15.5059 37.5523C15.659 37.5987 15.8151 37.6348 15.9731 37.6603C16.9745 39.985 17.9702 42.3121 18.9603 44.6415C20.7405 48.8329 22.5349 53.1499 22.9278 54.3913C23.4198 55.9186 23.9365 56.9578 24.5028 57.6691C24.7965 58.0318 25.1328 58.3526 25.5292 58.5967C25.7373 58.721 25.9579 58.8238 26.1875 58.9036C27.3201 59.322 28.3535 59.1477 29.0012 58.9349C29.3815 58.8076 29.7432 58.6318 30.0772 58.4119L30.0949 58.4049L40.0969 52.2607L51.6526 60.9853C51.8225 61.1132 52.0066 61.2213 52.2048 61.3096C53.5922 61.9024 54.9371 62.1117 56.2042 61.9443C57.4642 61.7699 58.4658 61.2504 59.2126 60.661C60.0693 59.9794 60.7528 59.1101 61.2087 58.1225L61.2406 58.0457L61.2512 58.0178L61.2583 58.0039V57.9969L61.2618 57.9934C61.3198 57.8423 61.3672 57.6873 61.4034 57.5297L71.9504 5.13648C71.9796 4.9682 71.9962 4.79804 72 4.62737C72 3.09306 71.4125 1.63198 70.0357 0.749753C68.8536 -0.00694053 67.5405 -0.0418116 66.7088 0.0209556C65.8169 0.0906969 64.9887 0.306895 64.433 0.481248C64.1225 0.58003 63.8156 0.689357 63.5128 0.809033L63.4739 0.826468L4.31824 23.6877L4.31116 23.6912C4.11056 23.7626 3.91334 23.8428 3.7201 23.9318C3.25083 24.1392 2.80082 24.3866 2.37517 24.671C1.57175 25.2115 -0.279292 26.697 0.035704 29.1519C0.283454 31.1047 1.64254 32.3077 2.47427 32.8866C2.9273 33.2039 3.35909 33.4305 3.67763 33.5805C3.8192 33.6502 4.12358 33.7688 4.25453 33.8246L4.28992 33.835L15.5059 37.5523ZM65.5443 5.63862H65.5373L65.4452 5.67698L6.21884 28.5696L6.12681 28.6044L6.09142 28.6149C5.98298 28.6562 5.87668 28.7028 5.77289 28.7544C5.87185 28.8091 5.97342 28.8592 6.07726 28.9043L17.1977 32.5936C17.394 32.6653 17.5836 32.754 17.764 32.8587L54.4911 11.6747L54.5265 11.6573C54.6699 11.5732 54.8163 11.4941 54.9654 11.4202C55.2202 11.2912 55.6273 11.1029 56.0874 10.9634C56.4059 10.8657 57.3509 10.5903 58.3702 10.9146C58.9117 11.081 59.3944 11.3949 59.7626 11.82C60.1309 12.2451 60.3696 12.7641 60.4513 13.3171C60.5831 13.801 60.5868 14.31 60.4619 14.7957C60.2142 15.7546 59.5346 16.5008 58.9153 17.0727C58.3844 17.5609 51.4969 24.1026 44.705 30.5607L35.4569 39.3481L33.8111 40.9173L54.5938 56.616C54.8744 56.7315 55.179 56.7793 55.4822 56.7555C55.6348 56.7349 55.7784 56.672 55.8962 56.5742C56.0395 56.4547 56.1626 56.3134 56.2608 56.1558L56.2679 56.1523L66.4964 5.33525C66.1747 5.41329 65.8589 5.5135 65.5514 5.63513L65.5443 5.63862ZM35.5984 48.8573L31.4504 45.7259L30.4452 52.0201L35.5984 48.8573ZM27.6457 39.512L44.4608 23.5238L21.3847 36.8339L21.5085 37.1199C22.9639 40.5073 24.4033 43.9014 25.8265 47.3021L26.8281 41.0254C26.9195 40.4435 27.2076 39.9125 27.6457 39.512Z" fill="#866B57"/>
</svg>
