<svg width="64" height="71" viewBox="0 0 64 71" fill="none" xmlns="http://www.w3.org/2000/svg">
<path d="M52.5699 24.7388C52.0246 23.1353 50.9894 21.7429 49.61 20.7575C48.2307 19.7721 46.5766 19.2435 44.8805 19.2459H38.3674V0L35.6302 0.39043C29.421 1.27604 24.5844 4.41775 21.2561 9.72844C18.8564 13.5566 17.7409 17.7795 17.2232 20.9379C13.6492 23.6837 10.5398 27.4642 7.97023 32.1914C5.80468 36.1748 4.01202 40.8435 2.64186 46.0681C0.326729 54.8958 0.0133391 62.2182 0.0011992 62.5256L0 71H4.79527V62.6742C4.85522 61.4425 6.36536 34.4881 20.8367 24.2244L21.685 23.6226L21.8244 22.5929C22.5461 17.2616 25.04 8.45599 33.5714 5.74931V24.0346H44.8805C45.574 24.0325 46.2506 24.2476 46.8152 24.6496C47.3798 25.0516 47.8039 25.6202 48.0279 26.2754C49.9399 31.9106 53.2251 38.9621 58.3452 42.2759L56.8054 48.0415C56.2693 50.0977 55.0502 51.9112 53.3474 53.1854C51.6446 54.4596 49.5591 55.1189 47.4322 55.0555C43.1355 54.9268 38.6635 55.4865 34.1398 56.7182L32.3724 57.1994V71H37.1684V60.894C40.4826 60.1122 43.8836 59.7587 47.288 59.842C50.4941 59.9302 53.636 58.9346 56.2045 57.0167C58.773 55.0988 60.6175 52.371 61.4389 49.2754L64 39.6858L62.0927 38.8696C58.5256 37.3432 55.1439 32.3248 52.5699 24.7388Z" fill="#866B57"/>
</svg>
