<svg xmlns="http://www.w3.org/2000/svg" width="255" height="141" fill="none"><path fill="#FFF21F" d="m219.098 27.477.676-.439c.444.455.925.739 1.557.528 1.173-.398 2.143.065 3.045.836.09.08.181.154.278.219.632.43 1.136.998 1.557 1.663.481.771.609 2.524-.316 3.108-.113.073-.203.195-.286.309-.601.82-1.383 1.12-2.331.99-.473-.065-.962-.033-1.436-.122-1.624-.3-3.053-1.996-2.97-3.741.03-.69.09-1.371.143-2.061.023-.398.053-.812.083-1.29Zm1.879 1.265c-.293.017-.451.203-.436.52.015.324.181.503.474.495.316-.008.481-.211.466-.568-.022-.309-.195-.463-.504-.447Zm.384 2.938c.218-.008.444-.252.451-.487.008-.284-.203-.52-.466-.52-.293 0-.466.196-.466.504-.008.276.218.511.481.503ZM217.144 27.598c.06.47.135.925.158 1.38.03.535.015 1.079.015 1.614 0 .122-.038.252-.03.374.022.381-.121.714-.219 1.08-.225.843-.736 1.484-1.21 2.15a1.559 1.559 0 0 1-.436.38c-.339.204-.692.374-1.03.577-.91.528-1.85.6-2.783.146-.714-.349-1.112-1.014-1.21-1.85-.113-.941.105-1.826.413-2.702.279-.796.76-1.445 1.309-2.013.331-.349.819-.535 1.248-.763.857-.446 1.79-.462 2.714-.438.346-.008.715-.308 1.061.065Zm-1.534 4.082c-.015-.268-.263-.495-.519-.479-.263.024-.444.26-.421.568.022.252.225.455.474.447.233 0 .473-.276.466-.536Zm-1.414-2.272c-.301 0-.504.186-.496.454.007.26.188.422.458.438.294.017.429-.121.429-.43.008-.324-.113-.462-.391-.462Z"/><path fill="#FF6679" d="m217.836 26.455-.745-.544c.654-.423 1.256-.309 1.903-.041-.354.179-.715.365-1.158.585Z"/><path fill="#FF6B93" d="M61.365 54.888c-.15-.032-.293-.08-.451-.097-.624-.065-.933.187-1.068.86-.045.243-.12.495-.105.738.045.747-.414 1.177-.88 1.502-.714.495-1.526.454-2.308.138-.136-.057-.241-.187-.346-.3-.18-.195-.339-.406-.512-.601-.466-.52-1.233-.414-1.481.26-.36.973-1.098 1.444-1.91 1.777-.451.186-.977.138-1.474.194-.15.017-.308.017-.45.065-.678.211-1.324 0-1.903-.284a5.055 5.055 0 0 1-1.85-1.574c-.196-.268-.429-.398-.752-.373a.756.756 0 0 0-.564.268c-.654.754-1.519.884-2.421.965-.684.057-1.361.049-2.015-.154-.376-.122-.79-.284-1.076-.56-.676-.649-1.24-1.42-1.721-2.256-.03-.048-.09-.097-.098-.154-.128-.852-.376-1.704.09-2.532.21-.373.135-.722-.21-.974-.286-.21-.617-.356-.895-.584-.58-.47-1.038-1.087-1.173-1.858a6.89 6.89 0 0 1-.053-2.045c.158-1.428.797-2.507 1.963-3.18.345-.196.759-.293 1.15-.342.692-.089 1.053-.39 1.173-1.144.068-.414.053-.836.143-1.242a12.9 12.9 0 0 1 .466-1.598c.218-.633.7-1.006 1.263-1.201.835-.292 1.677-.487 2.542-.032.36.186.737-.057.917-.528.444-1.136 1.18-1.858 2.346-2.029.226-.032.444-.13.677-.178.775-.154 1.444.203 2.075.6.301.195.52.528.617.942.135.56.421.787.865.722a.87.87 0 0 0 .496-.268c.631-.77 1.429-.974 2.308-.763.67.163 1.391.179 2 .593.09.064.226.113.271.203.369.77 1.038 1.265 1.512 1.939.233.333.601.227.924.162.58-.113 1.158-.26 1.745-.357.12-.024.27.04.376.122.835.584 1.579 1.25 1.835 2.353.007.04.015.09.037.122.497.698.391 1.485.27 2.264-.082.527.242.95.317 1.444.015.09.195.17.316.228.639.292.977.852 1.3 1.493.444.9.384 1.858.414 2.816.015.38-.098.73-.353 1.03-.46.552-.873 1.152-1.346 1.696a6.51 6.51 0 0 1-.963.893c-.195.154-.466.34-.662.292-.579-.13-.97.17-1.368.527ZM41.98 46.782c-.023-.179-.06-.333-.068-.495-.007-.268.008-.544-.007-.82-.023-.43-.27-.706-.61-.682-.3.017-.518.284-.51.706.03.99.067 1.989.157 2.97.053.617.264 1.218.158 1.85-.022.13.053.285.09.422.076.268.264.333.497.341.218.008.353-.097.458-.3.173-.316.188-.641.076-.966-.143-.405-.076-.811-.06-1.266h1.015c.082.512.172 1.04.263 1.567.022.121.067.243.083.365.052.316.218.479.518.47.279-.008.436-.162.467-.446.037-.373.067-.738.075-1.112.007-.454 0-.908-.008-1.363 0-.187.008-.39-.045-.552-.218-.64-.195-1.298-.18-1.955.007-.471-.226-.771-.647-.763-.399.008-.594.284-.587.755.008.422-.037.852-.052 1.29-.391-.016-.715-.016-1.083-.016Zm5.865 2.62c.06.317.113.642.203.958.136.463.594.714.955.552.346-.154.444-.527.263-1.006-.067-.17-.143-.341-.218-.511-.113-.26-.27-.512-.33-.788-.196-.843-.332-1.704-.55-2.54-.135-.503-.255-1.03-.586-1.46-.21-.276-.451-.325-.7-.097-.12.113-.225.284-.278.454-.278.9-.488 1.826-.804 2.71a8.654 8.654 0 0 0-.444 1.794c-.052.39-.075.795-.045 1.184.015.17.15.398.293.48.098.056.316-.066.452-.147.315-.203.466-.535.518-.925.038-.252.113-.503.166-.739.406.017.73.05 1.105.082Zm7.196-5.631c-.428.081-.827.138-1.21.252-.098.032-.204.26-.211.397-.023.852-.053 1.712-.015 2.564.053 1.185.15 2.37.233 3.555.015.162.038.357.128.47.083.106.27.195.39.163.114-.025.226-.195.28-.325.037-.097-.016-.243-.016-.373-.015-.78-.188-1.558.023-2.353.082-.309.195-.439.473-.398.354.049.647-.106.91-.333.369-.316.541-.755.662-1.225.286-1.12-.602-2.386-1.647-2.394Zm-4.18 3.838c.157-.056.27-.073.375-.121.564-.276 1.106-.568 1.279-1.315.195-.828-.068-1.631-.677-2.102-.489-.373-1.008-.154-1.519-.17-.105 0-.27.235-.316.39-.06.21-.105.486-.03.673.173.454.098.9.105 1.355.008.495.098.99.12 1.485.016.308 0 .625-.03.933-.044.495-.135.982-.165 1.477-.007.162.083.365.188.495.166.195.406.26.64.154.247-.113.428-.316.398-.624-.068-.633-.166-1.266-.256-1.907-.03-.236-.075-.471-.113-.723Zm7.639-.941v1.136c0 .122 0 .235-.008.357-.037.763-.105 1.526-.105 2.288 0 .552.324.828.775.755.413-.065.684-.503.534-.99-.226-.73-.188-1.477-.143-2.223.022-.357.06-.795.248-1.047.489-.65.714-1.412.947-2.167.038-.13-.052-.381-.165-.47-.143-.122-.361-.13-.519.064-.256.333-.511.666-.775.999a2.508 2.508 0 0 1-.24.26c-.203-.48-.353-.926-.58-1.332-.09-.162-.352-.292-.525-.284-.106.009-.219.3-.294.48-.037.08-.022.21 0 .308.18.73.324 1.468.85 1.866Zm5.12.503a1.86 1.86 0 0 0-.225-.016c-.203-.016-.406.016-.481.251-.083.26-.038.495.18.666.075.065.158.122.226.195.278.292.586.6.586 1.038.008.641-.022 1.299-.488 1.802-.15.162-.271.357-.421.52-.512.55-1.076.932-1.843.778a.68.68 0 0 0-.285 0c-.166.033-.399.049-.369.292.015.122.18.268.3.309.745.251 1.467.178 2.114-.292 1.075-.788 1.737-1.859 1.827-3.295.03-.463-.075-.86-.36-1.21-.249-.316-.475-.657-.76-1.038Zm-16.015 9c-.046.04-.083.089-.128.13.082.194.112.437.248.567.3.309.639.593.985.836 1.03.747 2.15.641 3.226.227 1.127-.438 1.917-1.38 2.496-2.499a.623.623 0 0 0-.075-.706c-.075-.09-.278-.179-.346-.13-.173.106-.308.292-.436.455-.038.056-.008.162-.03.243-.03.097-.06.203-.12.284-.392.544-.798 1.055-1.361 1.42-1.174.755-2.617.69-3.708-.349-.127-.121-.248-.268-.39-.373-.098-.057-.241-.065-.361-.106Zm-3.317-.43c-.165 0-.315-.041-.428.007-.3.122-.61.252-.895.422-.737.439-1.496.284-2.263.155-.09-.017-.166-.098-.24-.163a2.887 2.887 0 0 1-1.001-2.028c-.053-.715-.015-1.404.196-2.086.052-.162.09-.325-.106-.43-.045.032-.12.049-.135.09-.504 1.29-.564 2.62-.09 3.903.285.762.88 1.33 1.684 1.485.887.178 1.76.105 2.602-.284.526-.252.676-.447.676-1.072Zm-4.7-10.964c0-.065 0-.121.008-.186-.157-.073-.33-.228-.48-.211-.302.04-.64.089-.866.276-1.594 1.314-1.955 3.367-.631 5.08.346.446.842.657 1.376.673.12 0 .293-.122.353-.235.098-.211-.06-.341-.225-.439a.324.324 0 0 0-.166-.048c-.774-.033-1.075-.641-1.323-1.282-.376-.974-.136-1.867.466-2.613.278-.341.556-.836 1.128-.771.113.008.24-.154.36-.244Zm14.603-6.792c-.383.13-1.03.333-1.661.568-.113.04-.218.195-.264.317-.045.113-.045.308.023.39.06.072.248.08.353.048.294-.097.58-.227.858-.373.767-.406 1.481-.317 2.165.219.09.073.188.154.294.194.413.147.586.512.736.901.06.146.113.309.21.43.257.317.565.227.685-.17.083-.26.068-.495-.105-.698-.256-.308-.496-.641-.797-.893-.64-.551-1.369-.917-2.497-.933Zm1.106 17.122c.045.17.045.39.143.504.609.706 1.346 1.103 2.27.884.933-.22 1.625-.738 1.828-1.818.037-.178.097-.357.113-.543.014-.179.045-.398-.181-.471-.21-.065-.391 0-.489.219-.098.227-.195.455-.263.69-.248.868-.865 1.298-1.714 1.25-.406-.025-.685-.252-.985-.48-.188-.137-.361-.373-.722-.235Zm-9.317-16.31c.128-.187.21-.292.271-.406.399-.86 1.09-1.104 1.895-.966.782.138 1.526.406 2.038 1.136.143.203.323.236.519.17.203-.064.255-.267.21-.462-.045-.186-.113-.422-.24-.527-.805-.682-1.715-1.006-2.745-.877-.782.098-1.459.35-1.895 1.12-.143.227-.203.43-.053.812Zm-5.128 3.286c.015.13.015.309.075.455.038.089.166.194.248.194.09 0 .196-.113.249-.203.045-.08.045-.202.052-.3.045-.373.075-.738.128-1.111.053-.35.21-.617.511-.78.564-.308 1.12-.543 1.76-.227.158.081.39.106.496-.162.09-.252-.007-.52-.24-.625a.626.626 0 0 0-.339-.073c-.526.081-1.06.146-1.579.276-.586.138-.992.576-1.18 1.169-.128.422-.12.9-.18 1.387Zm18.926-1.225c.008.544.053.592.497.576.872-.04 1.278.211 1.609 1.087.143.382.195.796.316 1.185.037.106.195.26.27.243.12-.024.286-.154.316-.275.278-1.153-.714-2.686-1.812-2.808-.384-.04-.767-.008-1.196-.008Z"/><path fill="#fff" d="M23.46 17.974c.579-.081 1.173-.17 1.767-.243.113-.017.226.048.338.048.436 0 .88-.008 1.316-.032.248-.016.497-.081.745-.106.496-.056 1-.113 1.496-.154.632-.057 1.27-.097 1.902-.138.038 0 .083 0 .113.017.474.324 1.015.373 1.564.413.27.893.113 1.72-.18 2.532-.474 1.323-1.436 2.094-2.55 2.743-1.022.6-2.09.454-3.165.325-.684-.082-1.196-.455-1.692-.966-.504-.528-.834-1.12-1.158-1.777-.255-.536-.338-1.015-.255-1.607.06-.317-.136-.674-.241-1.055ZM38.521 18.283c.18-.073.3-.163.429-.163.443 0 .887.008 1.263-.316.037-.033.113-.033.165-.033.94.025 1.88.073 2.828.081.714.009 1.428-.048 2.143-.064.564-.017 1.12-.025 1.684-.017.278.008.617.406.579.723-.09.787-.226 1.558-.339 2.337-.353.34-.42.933-.894 1.176-.068.033-.128.098-.18.154-.595.674-1.37.86-2.189.966-1.113.154-2.173-.057-3.24-.333-.535-.137-.843-.576-1.166-.973a3.916 3.916 0 0 1-.918-2.37c-.03-.381-.112-.77-.165-1.168ZM47.22 47.691c.03-.333.053-.609.083-.893l.098-.025c.053.236.113.471.15.715.016.154-.007.154-.33.203ZM54.726 44.98c.436.09.797.114.925.61-.279.088-.542.178-.858.283-.022-.3-.045-.56-.067-.893ZM50.913 45.906c-.015-.3-.173-.634.173-.812.083-.04.263.121.429.21-.166.301-.203.626-.602.602Z"/><path fill="#333161" d="M211.669 0c.165.292.316.6.504.885.315.47.676.916.977 1.395.354.56.602 1.201 1 1.72.474.617.579 1.388.895 2.07.278.592.594 1.152.94 1.704.323.527.556 1.128.767 1.728.09.252.015.56.015.869.466.308 1.068.551 1.466.998.654.73 1.414 1.339 1.978 2.175.323.478.601.957.819 1.5.083.204.256.358.376.544.136.203.301.398.384.617.113.292.225.56.451.787.12.114.165.325.241.495.022.057 0 .138.03.179.676.99.797 2.248 1.383 3.286.233.414.339.925.444 1.412.143.6.256 1.201.436 1.794.256.835.346 1.728.504 2.613.586.543 1.241 1.087 1.835 1.704.654.681 1.12 1.501 1.082 2.531-.037 1.007-.21 1.997-.571 2.914-.248.633-.617 1.217-1.339 1.436.038.276.091.52.106.763.075 1.08.135 2.158.03 3.246-.083.844.022 1.712.045 2.572.007.268.022.536.037.747.399.113.782.227 1.166.324.293.073.602.13.895.203.165.04.361.073.481.187.466.422.955.803 1.188 1.477.211.616.557 1.184.632 1.858.037.373.06.747.06 1.12 0 .349.06.649.286.925.428.52.624 1.177.864 1.81.286.746.617 1.476.903 2.231.3.811.571 1.631.857 2.45.03.082.045.163.083.236.819 1.664 1.142 3.522 1.737 5.275.323.957.391 2.02.616 3.026.316 1.356.286 2.727.211 4.106-.015.203-.008.414.007.625.038.706-.165 1.299-.662 1.777-.127.122-.203.3-.315.439-.121.162-.226.381-.384.454-.699.333-1.368.747-2.188.682-.647-.049-1.301.024-1.947.024-.249 0-.497-.073-.745-.114-.707-.121-1.429-.178-2.105-.405-.497-.17-1.008-.252-1.497-.414-.323-.106-.624-.309-1.015-.511.068.584.128 1.095.173 1.598.113 1.372.226 2.743.331 4.114.06.804.12 1.615.15 2.427.053 1.225.128 2.45.106 3.684a56.96 56.96 0 0 0 .015 2.548c.007.292-.015.584-.03.876-.008.122-.068.276-.03.374.188.422.067.852.067 1.282 0 .754.023 1.501-.007 2.256-.023.64-.106 1.29-.151 1.93-.015.188.008.374.038.56.068.44.105.861-.083 1.291-.09.203-.098.446-.105.674-.008.746.007 1.485.007 2.272.234-.033.497-.09.76-.106.436-.032.88-.032 1.323-.056.136-.009.271-.033.391-.082.647-.276 1.324-.405 2.008-.535.617-.114 1.196-.438 1.812-.6 1-.26 1.94-.666 2.858-1.177.729-.414 1.496-.747 2.218-1.16.383-.228.707-.569 1.067-.845 1.008-.77 1.971-1.598 2.858-2.531.293-.3.654-.528.94-.828a48.757 48.757 0 0 0 1.669-1.907c.135-.163.18-.414.301-.6.308-.455.639-.885.955-1.331.27-.382.526-.763.782-1.153.052-.081.075-.203.143-.268.661-.673.985-1.59 1.353-2.434.504-1.16.842-2.402 1.218-3.62.196-.624.136-1.314.369-1.947.105-.284.03-.649.052-.974.045-.681.196-1.38.143-2.053-.09-1.241-.428-2.385-1.526-3.075a2.036 2.036 0 0 1-.542-.463c-.142-.178-.3-.203-.496-.26-.428-.113-.714 0-1 .382-.429.56-1.038.576-1.677.292a2.868 2.868 0 0 1-1.21-1.03c-.316-.471-.527-1.153-.497-1.729.045-.779.444-1.501.933-2.102.413-.519.902-.973 1.331-1.484a1.11 1.11 0 0 1 .752-.422c.594-.073 1.195-.146 1.789-.244.504-.081.948.154 1.414.268.504.13 1.015.243 1.504.43.428.162.864.373 1.24.641.512.357.955.836 1.467 1.193.631.438.864 1.144 1.173 1.81.015.04.015.089.037.121.512.657.489 1.518.692 2.28.181.666.12 1.396.203 2.094.128 1.03.083 2.061 0 3.092-.015.162.023.333.023.503 0 .333.022.665-.03.99-.143.9-.391 1.793-.459 2.694-.053.69-.173 1.355-.263 2.029a3.192 3.192 0 0 1-.301.998c-.196.39-.271.852-.414 1.274-.067.21-.173.414-.263.608-.113.236-.308.463-.331.706-.052.723-.428 1.29-.737 1.891-.203.398-.503.739-.744 1.112-.316.495-.609.998-.917 1.493-.166.26-.339.503-.527.747-.383.486-.737.998-1.233 1.395-.368.3-.609.796-.91 1.193-.12.162-.233.357-.391.447-.383.21-.601.567-.872.892-.383.454-.857.828-1.271 1.25-.466.479-1.052.811-1.428 1.42-.188.308-.579.462-.858.722-.601.56-1.383.828-1.962 1.396-.609.6-1.346.925-2.068 1.314-1.12.6-2.241 1.218-3.384 1.778-.737.357-1.504.673-2.286.884-.571.154-1.12.398-1.706.528-.632.137-1.264.34-1.91.438-.474.073-.963.138-1.444.121-.865-.032-1.73.195-2.587-.024-.09-.024-.188.016-.3.033-.158 1.022-.301 2.02-.459 3.026-.075.487-.233.966-.166 1.469.03.244.061.487.083.73.015.187.038.374.03.56a234.22 234.22 0 0 1-.158 3.246c-.052.893-.097 1.794-.188 2.686-.097.974-.248 1.94-.346 2.913-.09.893-.135 1.786-.218 2.67-.015.163-.105.317-.127.479-.076.471-.143.941-.204 1.412-.09.682-.165 1.363-.27 2.037-.09.576-.226 1.136-.339 1.704-.022.097-.045.219-.015.308.241.812-.045 1.575-.218 2.329-.3 1.315-.767 2.581-1.022 3.903-.226 1.169-.67 2.248-.978 3.384-.105.39-.293.763-.481 1.128-.165.341-.684.447-1.045.252-.346-.187-.504-.658-.339-1.079.113-.285.226-.577.376-.836.414-.69.519-1.51.858-2.216.391-.819.338-1.736.631-2.572.301-.868.346-1.826.79-2.662.15-.292.225-.649-.053-.99-.105-.13-.105-.397-.075-.592.113-.69.278-1.371.376-2.069.21-1.477.459-2.938.692-4.415.142-.884.218-1.777.285-2.678.053-.746.053-1.493.083-2.239.008-.163.068-.325.098-.487.045-.244.15-.503.113-.739-.076-.43.007-.811.12-1.217.083-.284.068-.592.045-.909-.038-.568.09-1.152.158-1.728.023-.203.098-.406.105-.609.03-.746.038-1.493.053-2.239.007-.585-.015-1.169.03-1.753.075-1.039.203-2.07.278-3.1.06-.844.06-1.696.12-2.54.038-.576.181-1.152.181-1.728 0-.577.203-1.12.158-1.72-.038-.528.143-1.072.195-1.608.053-.486.06-.981.091-1.476.052-.787.135-1.575.157-2.37.031-1.193.301-2.37.083-3.57-.007-.041-.022-.09-.007-.122.346-.739-.053-1.51.09-2.28.12-.666-.03-1.388-.038-2.086-.007-.6.03-1.2.023-1.801 0-.39-.03-.787-.045-1.177-.015-.325-.023-.657-.038-.982 0-.04.008-.09 0-.122-.308-1.087.038-2.199-.113-3.286-.015-.122 0-.26-.037-.373-.309-.901-.158-1.867-.376-2.776.233-.608-.196-1.225.03-1.858-.489-.462-.993-.909-1.459-1.396-.293-.3-.511-.673-.797-.99-.489-.535-1.045-.998-1.489-1.566-.534-.69-1.135-1.363-1.271-2.32-.015-.082-.052-.171-.037-.244.052-.162.09-.381.203-.463.173-.13.376-.032.504.163.293.438.616.86.879 1.322.534.958 1.361 1.583 2.151 2.248.211.179.466.309.632.528.503.673 1.255.965 1.879 1.436.091.073.234.09.301.178.361.439.857.552 1.346.682.429.122.895.106 1.294.292.834.39 1.706.227 2.549.374.729.121 1.451.056 2.158-.041.894-.13 1.526-.633 1.842-1.68.271-.884.21-1.745.143-2.596-.098-1.218-.346-2.427-.564-3.628-.09-.487-.263-.957-.399-1.436-.015-.057-.052-.114-.06-.179-.12-1.225-.722-2.272-1.038-3.416-.06-.22-.135-.438-.157-.665-.061-.69-.504-1.201-.722-1.818-.406-1.136-.858-2.256-1.294-3.384-.158-.406-.331-.803-.511-1.233-.135.08-.226.105-.256.17-.263.536-.774.739-1.21 1.023-.309.194-.677.26-1 .056-.218-.138-.399-.08-.602-.016-.835.244-1.609.13-2.263-.527-.136-.138-.226-.325-.301-.512-.173-.43-.308-.884-.489-1.314a2.087 2.087 0 0 1-.128-1.282c.023-.098.038-.203.068-.3.173-.488.09-.918-.203-1.323-.376-.528-.767-1.047-1.113-1.599-.549-.868-1.323-1.428-2.188-1.866a14.511 14.511 0 0 1-1.331-.739c-.286-.186-.564-.251-.88-.154-.383.106-.691-.024-.894-.398-.188-.349-.091-.64.105-.982.308-.535.804-.746 1.271-1.03.15-.09.315-.17.428-.3.519-.576.985-1.218 1.534-1.745.331-.316.466-.738.752-1.055-.549-.276-1.068-.544-1.586-.795-.279-.138-.459-.34-.61-.633-.27-.544-.594-1.055-.894-1.583-.241.211-.436.439-.497.804a.98.98 0 0 1-.24.487c-.865.828-1.654 1.76-2.707 2.337-.053.024-.098.081-.151.097-1.285.3-2.594.706-3.827-.089-.632-.406-1.226-.9-1.609-1.655-.376-.747-.541-1.502-.444-2.337.053-.43 0-.885.06-1.315.091-.65.324-1.25.625-1.834.225-.43.391-.9.706-1.274.241-.292.527-.536.797-.795.151-.155.286-.357.467-.447.571-.284 1.082-.714 1.759-.746.459-.024.91-.187 1.369-.227.3-.033.609.04.97.073 0-.203-.015-.406 0-.609.045-.52.225-.746.691-.876.557-.163 1.113-.333 1.677-.471.534-.13.963.22 1.429.406.519.203.759.6.767 1.209.308 0 .556-.106.827-.179.451-.13.947-.073 1.421-.08.203 0 .406.04.609.064.038-.122.075-.187.068-.243-.135-.6-.278-1.193-.429-1.786-.173-.681-.413-1.347-.526-2.036-.128-.78-.571-1.404-.797-2.118-.218-.666-.632-1.201-.865-1.85a.718.718 0 0 0-.15-.244c-.301-.333-.564-.682-.617-1.177a.603.603 0 0 0-.15-.332c-.316-.341-.534-.755-.782-1.153-.308-.495-.654-.998-1.083-1.371-.707-.617-1.301-1.444-2.293-1.599-.339-.048-.542-.381-.527-.795.008-.187.06-.365.091-.56-.286-.462-.625-.9-.64-1.51 0-.072-.075-.145-.105-.218-.504-1.088-1.007-2.183-1.511-3.27-.083-.187-.136-.398-.226-.577-.474-.9-.955-1.793-1.429-2.678-.3.033-.503.138-.624.463-.075.211-.285.373-.443.552-.549.625-1.264 1.095-1.602 1.923a.687.687 0 0 1-.18.243c-.67.536-1 1.364-1.504 2.045-.459.617-.745 1.307-1.03 2.013-.211.503-.632.755-1.158.746-.873-.016-1.745 0-2.617 0-.669 0-1.346-.024-2.015-.032-.233 0-.466 0-.7.008-.556.008-1.112.008-1.669.033-.271.008-.534.056-.797.097-.15.024-.301.073-.459.081-.812.024-1.624.033-2.436.049-.21 0-.436-.057-.639-.008-.571.13-1.105-.106-1.662-.17-.135-.017-.286-.155-.368-.277a5.962 5.962 0 0 1-.466-.844c-.211-.462-.354-.965-.602-1.403-.323-.585-.707-1.137-1.083-1.688a47.33 47.33 0 0 0-1.015-1.429 88.848 88.848 0 0 0-1.263-1.704c-.068-.089-.188-.146-.286-.219-.406.609-.737 1.226-.955 1.932-.24.787-.624 1.517-.932 2.28-.128.324-.173.69-.331.998-.632 1.209-1 2.548-1.549 3.798-.218.503-.511.827-.895 1.152-.466.39-.865.884-1.293 1.33-.098.098-.211.18-.308.285-.61.633-1.316 1.16-1.79 1.94-.075.113-.196.194-.286.3-.098.105-.24.194-.263.324-.12.544-.511.876-.797 1.29-.293.422-.511.869-.579 1.404-.023.203-.135.39-.196.584-.203.617-.443 1.226-.601 1.859-.166.681-.218 1.395-.376 2.077-.323 1.372-.173 2.775-.331 4.163-.113 1.022-.007 2.053.203 3.084.166.795.519 1.517.624 2.32.045.325.293.625.474.917.301.48.594.974.947 1.404.482.584 1.023 1.12 1.542 1.68.083.09.21.13.278.227.421.674 1.113.99 1.692 1.437.128.097.263.194.406.235.579.146 1.098.487 1.647.714.511.21 1.067.316 1.564.6.195.114.481.09.722.073.736-.032 1.045.211 1.413.844.346.593-.248 1.688-.857 1.745-.316.032-.654-.024-.97-.105-.391-.098-.767-.252-1.143-.398-.271-.105-.541-.195-.782-.357-.526-.34-1.023-.722-1.662-.787-.165-.017-.331-.122-.481-.211-.617-.365-1.233-.73-1.85-1.104-.052-.032-.105-.065-.143-.105-.699-.747-1.398-1.485-2.09-2.24a.911.911 0 0 1-.173-.316c-.15-.471-.391-.853-.767-1.145-.113-.089-.15-.284-.233-.422-.18-.292-.414-.568-.534-.884-.376-.974-.774-1.931-1.03-2.97-.196-.787-.12-1.599-.391-2.378-.165-.47-.038-1.07-.038-1.615v-.795c-.533-.122-.849-.503-1.052-1.038-.128-.341-.346-.642-.519-.95-.226-.398-.391-.844-.632-1.242-.27-.454-.511-.925-.774-1.379-.203-.349-.421-.69-.639-1.03l-1.587-2.54c-.128-.212-.278-.406-.406-.61-.308-.494-.602-1.013-.925-1.492-.323-.479-.564-1.023-.992-1.445-.354-.349-.587-.82-.888-1.233-.586-.82-1.188-1.631-1.767-2.459-.443-.625-.827-1.298-1.353-1.85-.624-.65-1.218-1.33-1.993-1.793-.083-.05-.188-.09-.248-.17-.609-.772-1.451-.634-2.241-.699a5.568 5.568 0 0 0-.519-.032c-.225 0-.451.016-.639.032-.12.47-.18.885-.338 1.25-.083.195-.324.325-.519.43-.218.114-.481.146-.707.252-.579.284-.789.722-.707 1.403.03.244.076.487.128.73.075.358.098.658-.18.983-.301.357.015 1.038.534 1.184.383.106.624.35.864.666.489.64.91 1.347 1.399 1.98.586.746 1.075 1.566 1.639 2.329.436.592.767 1.282 1.158 1.923.151.243.354.446.504.682.421.673.835 1.355 1.241 2.036.571.958 1.143 1.924 1.691 2.897.549.982 1.076 1.972 1.61 2.97.518.974 1.007 1.964 1.549 2.922.203.365.496.673.782 1.047 1.353-.942 2.759-1.737 4.519-1.485-.324.56-.7 1.022-1.203 1.314-.775.463-1.579.86-2.376 1.29-.121.065-.219.163-.294.211.602 1.218 1.181 2.402 1.79 3.628.158-.122.293-.236.428-.333.564-.398 1.113-.811 1.692-1.169.294-.178.647-.243 1.038-.381-.075.917-.714 1.323-1.15 1.866-.437.544-.925 1.047-1.444 1.632.218.551.428 1.152.699 1.72.519 1.095 1.03 2.19 1.617 3.238.353.633.661 1.29 1.173 1.85.458.503.722 1.225 1.06 1.858.316.592.526 1.242.955 1.777.331.414.571.925.857 1.388.083.138.158.292.263.414.572.649.888 1.46 1.264 2.231a26.672 26.672 0 0 0 2.082 3.603c.173.252.316.52.467.787.075.122.112.293.21.374.534.438.669 1.111.842 1.736.151.503.203 1.08.151 1.607-.075.852-.06 1.704-.008 2.556.023.365-.06.739-.06 1.112 0 .243.083.487.083.73-.008.812-.053 1.615-.06 2.426-.008.35.067.706.067 1.064-.015 1.095-.067 2.19-.06 3.286.008.763.098 1.534.151 2.296.007.122.007.252.007.374-.007.39-.053.787-.015 1.168.098.91.241 1.81.353 2.71.038.309.008.625.023.942.008.438.038.868.038 1.298.007.739 0 1.485.015 2.224.007.373.037.746.067 1.12.083 1.12.196 2.231.248 3.35.023.496-.052.999-.12 1.494-.03.22-.165.43-.421.455-.256.024-.391-.155-.481-.374a5.302 5.302 0 0 1-.376-2.32c.03-.463.037-.901-.083-1.364-.105-.39-.113-.82-.105-1.233.045-2.11-.188-4.204-.354-6.306-.075-.933-.06-1.874-.09-2.815 0-.098-.037-.203-.037-.3l-.023-1.932c-.007-.503-.053-.998-.053-1.501 0-.706.046-1.42.046-2.126 0-.333-.076-.658-.098-.99-.038-.73-.068-1.46-.09-2.183-.015-.487-.046-.99.015-1.469.06-.462-.008-.9-.046-1.355-.067-.747-.097-1.493-.127-2.232-.015-.373 0-.754 0-1.168-.444-.341-.827-.771-1.038-1.388-.128-.381-.391-.714-.624-1.039-.572-.787-.76-1.825-1.369-2.556-.368-.446-.473-1.03-.842-1.444-.083-.097-.105-.26-.158-.398-.045-.138-.052-.308-.143-.405-.361-.406-.443-.958-.684-1.42-.098-.179-.165-.382-.271-.544-.443-.69-.909-1.364-1.346-2.061-.195-.309-.323-.658-.503-.982-.519-.925-1.083-1.818-1.557-2.767-.293-.585-.616-1.16-.849-1.753-.354-.877-.858-1.664-1.189-2.548-.12-.317-.345-.593-.541-.909-.233.162-.451.333-.684.454-.324.163-.617.081-.76-.203-.06-.113-.105-.3-.06-.405.211-.463.271-1.023.805-1.331-.128-.252-.256-.479-.361-.714a28.556 28.556 0 0 0-1.444-2.865c-.09-.154-.098-.349-.15-.535-.346.121-.677.26-1.023.365-.248.073-.496.073-.677-.203-.18-.276-.105-.511.076-.738.255-.325.518-.65.864-1.08-.06-.178-.128-.503-.285-.779-.414-.73-.88-1.428-1.301-2.15-.436-.755-.842-1.542-1.264-2.305-.586-1.055-1.18-2.093-1.767-3.148-.376-.674-.721-1.363-1.112-2.02-.437-.731-.918-1.437-1.369-2.16-.068-.105-.12-.21-.188-.308l-.677-.998c-.398-.592-.782-1.184-1.18-1.769-.346-.503-.7-.99-1.053-1.485-.03-.049-.09-.097-.135-.097-.654.024-.827-.584-1.158-.99a1.146 1.146 0 0 0-.331-.284c-1.075-.495-1.602-1.599-1.278-2.792.082-.3.308-.56.496-.9-.331-.674-.203-1.477-.181-2.264.03-.796.918-1.59 1.67-1.59h.534c.022-.147.045-.269.052-.39.105-.926.579-1.445 1.466-1.518a7.868 7.868 0 0 1 1.512.04c.549.057 1.098.171 1.647.293.571.13.977.52 1.361.982.413.495.864.95 1.338 1.371.587.52 1.135 1.063 1.511 1.793.136.268.384.463.572.698.564.714 1.135 1.42 1.669 2.15a197.364 197.364 0 0 1 2.609 3.636c.188.26.324.568.489.844.173.3.316.641.542.893.383.43.631.933.902 1.444.616 1.177 1.286 2.321 1.902 3.49.369.697.7 1.42 1.045 2.134a.412.412 0 0 0 .219.202c.045-.494.127-.99.12-1.485-.015-.998.188-1.939.474-2.872.045-.154.06-.317.105-.47.052-.22.113-.43.173-.642.022-.081.098-.154.098-.219-.031-.665.33-1.168.586-1.72.15-.333.323-.666.414-1.015.18-.698.691-1.128 1.052-1.68.542-.819 1.324-1.379 1.858-2.198.398-.617 1.037-.925 1.571-1.372.369-.308.775-.56 1.143-.86.105-.09.173-.252.226-.39.188-.503.361-1.006.541-1.509.211-.592.414-1.193.639-1.785.121-.325.286-.641.421-.958.294-.681.564-1.363.873-2.036.315-.69.669-1.364 1-2.053.09-.187.18-.374.21-.577.068-.478.391-.787.684-1.046.527-.455 1.422-.252 1.888.324.534.657 1.083 1.298 1.616 1.956.076.09.143.203.173.316.091.309.233.56.512.722.112.065.18.211.263.325.203.284.398.56.594.844.083.114.195.22.24.349.256.714.76 1.242 1.158 1.85.143.22.173.536.271.893.354-.033.76-.065 1.166-.114.248-.032.488-.122.737-.13 1.082-.016 2.165-.008 3.248-.008.639 0 1.278.008 1.91 0 .188 0 .383-.049.571-.073.136-.016.286-.081.399-.04.346.13.684.024 1.022.016.67-.016 1.339.048 2.008.08.271.01.542 0 .842 0 .301-.648.602-1.306.91-1.947.098-.194.233-.365.354-.551l.834-1.266c.136-.203.248-.422.406-.609.399-.462.827-.909 1.226-1.371.173-.195.323-.414.466-.625.248-.373.489-.739.887-.958.098-.048.166-.17.218-.284a2.32 2.32 0 0 1 1.038-1.047c.203-.105.436-.105.662-.105Zm13.82 101.386c1.076-.065 2.106-.097 3.128-.195 1.016-.097 2.016-.211 2.986-.633 1.052-.454 2.218-.592 3.255-1.136.241-.13.459-.308.7-.438.556-.316 1.128-.625 1.684-.941.338-.195.669-.398 1.008-.6.579-.342 1.165-.674 1.744-1.015a.201.201 0 0 0 .045-.04c.271-.196.534-.39.805-.585.128-.09.286-.146.391-.26.436-.487 1.165-.576 1.444-1.274.015-.048.105-.056.15-.097.496-.454 1.068-.852 1.474-1.388.406-.535.827-1.022 1.368-1.387.075-.057.151-.122.211-.203.361-.503.722-1.015 1.09-1.518.06-.08.143-.162.233-.178.241-.049.346-.211.421-.447.053-.17.196-.308.309-.454.345-.47.691-.941 1.045-1.412.263-.349.541-.69.804-1.039.158-.203.331-.397.452-.633.443-.852.872-1.704 1.3-2.564.076-.146.106-.308.151-.47.075-.26.128-.52.21-.771.166-.528.346-1.047.497-1.575.195-.714.368-1.436.548-2.15.031-.122.046-.243.053-.365.06-.56.09-1.12.173-1.68.135-.925.293-1.842.15-2.791-.03-.195.038-.414.046-.617.022-.495.075-.99.045-1.477a9.917 9.917 0 0 0-.218-1.412c-.166-.82-.136-1.704-.572-2.434-.346-.577-.601-1.226-1.128-1.656a6.396 6.396 0 0 0-.782-.527c-.526-.309-1.037-.674-1.594-.869-.744-.251-1.534-.373-2.308-.527-.354-.073-.677.008-.94.34-.196.252-.459.439-.692.658-.504.487-1.023.95-1.105 1.753-.03.316.12.535.308.69.128.097.444.146.519.056.293-.324.661-.462 1.015-.665.286-.162.579-.268.887-.122.624.3 1.286.544 1.857.942.7.486 1.271 1.152 1.707 1.93.316.569.331 1.25.542 1.867.075.22.045.487.052.73 0 .293-.052.593-.007.877.173 1.16-.211 2.264-.241 3.4 0 .04-.022.081-.037.122-.211.795-.421 1.59-.624 2.385-.203.796-.406 1.591-.82 2.305-.113.195-.188.414-.278.617-.151.373-.226.82-.466 1.112-.384.462-.594 1.022-.94 1.493-.406.552-.79 1.111-1.151 1.704-.647 1.063-1.504 1.94-2.346 2.824-.481.511-.947 1.038-1.459 1.51-1.03.965-2.052 1.963-3.15 2.847-.752.609-1.602 1.088-2.444 1.558-.752.414-1.541.755-2.324 1.096-.639.284-1.293.544-1.955.77-.827.285-1.661.528-2.496.78-.15.049-.301.065-.459.09-.511.08-1.03.145-1.534.25-.729.163-1.451.244-2.18 0-.06-.016-.143.033-.233.058-.091.632-.196 1.25-.263 1.866-.053.625-.196 1.241-.061 1.915Zm-6.391-73.91c-.038.48-.06.893-.09 1.299-.045.69-.106 1.371-.143 2.061-.083 1.745 1.346 3.44 2.97 3.741.474.09.962.049 1.436.122.955.138 1.737-.163 2.331-.99.083-.114.173-.244.286-.309.932-.584.797-2.337.316-3.108-.414-.665-.918-1.233-1.557-1.663-.098-.065-.188-.146-.278-.22-.895-.77-1.872-1.233-3.045-.835-.624.211-1.106-.073-1.557-.527-.21.137-.444.292-.669.43Zm-1.955.122c-.346-.373-.714-.065-1.068-.073-.925-.024-1.857-.008-2.714.439-.429.227-.918.413-1.249.762-.541.568-1.022 1.218-1.308 2.013-.308.876-.526 1.769-.413 2.702.097.836.496 1.501 1.21 1.85.933.455 1.872.382 2.782-.146.339-.195.692-.365 1.03-.576.166-.098.324-.227.437-.382.473-.665.985-1.298 1.21-2.15.098-.357.241-.69.218-1.08-.007-.12.03-.25.03-.372 0-.536.015-1.08-.015-1.615-.015-.455-.097-.901-.15-1.372Zm12.437 19.776a3.68 3.68 0 0 0-.669-2.061c-.474-.698-1.061-1.12-1.895-1.055-.075.008-.166.024-.226-.016-.451-.268-.917-.049-1.361 0-.218.024-.481.284-.609.511-.135.235.06.422.248.609.241.235.384.56.263.957-.09.317-.142.641-.21.966-.098.52-.181 1.03.316 1.396a.577.577 0 0 1 .195.373c.045.503.346.625.745.69.549.089 1.128-.05 1.646.275.046.025.151-.024.211-.064.301-.244.624-.471.895-.755.526-.544.346-1.29.451-1.826Zm-5.685-3.903c.384-.22.722-.414 1.038-.593 0-.405.022-.779-.008-1.144-.075-1.095.196-2.199-.075-3.294-.007-.04 0-.081 0-.122.038-.617.083-1.225.113-1.842.008-.081-.03-.162-.053-.235-.443.073-.872.138-1.376.219a19.36 19.36 0 0 1-3.609 4.422c1.602.56 2.812 1.558 3.97 2.589Zm-6.06-17.017c.443-.227.804-.406 1.158-.584-.647-.268-1.256-.382-1.903.04l.745.544ZM130.355 140.686c-.053-.057-.113-.179-.151-.171-.436.081-.797-.13-1.158-.324-.556-.301-1.097-.09-1.586.138-.587.267-1.105.113-1.534-.228-.88-.697-1.594-1.566-1.955-2.718a2.727 2.727 0 0 1-.15-.73c-.023-.682-.016-1.372-.023-2.053 0-.146.03-.317-.03-.439-.226-.478-.158-.965-.098-1.468.053-.447.015-.909.015-1.364 0-.04.008-.105-.007-.121-.482-.357-.226-.974-.429-1.429-.113-.243-.226-.486-.278-.746-.188-.868-.654-1.631-.692-2.556-.03-.722-.128-1.437-.368-2.134-.218-.633-.271-1.339-.399-2.013-.173-.917-.323-1.842-.511-2.751-.151-.706-.406-1.379-.527-2.085-.24-1.323-.421-2.662-.624-3.993-.037-.227-.052-.454-.105-.673-.128-.544-.271-1.08-.421-1.656-.06 0-.15-.032-.241-.016-.684.122-1.391.162-2.045.39-.707.243-1.376.081-2.06.04-.211-.008-.414-.089-.624-.13-.173-.04-.361-.146-.504-.097-.714.219-1.316-.252-1.963-.381-.3-.057-.631-.211-.654-.682-.022-.552.09-.803.617-.844.571-.041 1.15 0 1.729.049.669.056 1.339.186 2.015.243a1.33 1.33 0 0 0 .73-.138c.473-.26.985-.203 1.474-.276.398-.057.797-.081 1.18-.259.399-.187.812-.049 1.181.129.15.073.285.284.353.463.399 1.014.564 2.102.775 3.173.112.584.157 1.185.413 1.736.068.138.015.333.06.495.248.844.278 1.745.609 2.573.038.089.045.203.038.308-.06.958.188 1.834.534 2.702.158.398.24.836.301 1.266.082.568.203 1.136.293 1.704.173 1.088.489 2.126.714 3.189.03.138.023.293.023.439.015.811.128 1.606.451 2.345.022.057.03.122.037.178.091.593.271 1.185.256 1.769-.022.844.203 1.688.015 2.532-.015.057-.037.13-.015.187.278.852.023 1.809.354 2.613.353.86.789 1.736 1.812 1.874.082-.592.158-1.185.24-1.777.053-.373.211-.503.549-.487.346.016.519.195.527.593.007.308 0 .616 0 .9.564.43 1.165.512 1.759.43.474-.064.932-.284 1.241-.714.338-.478.639-.584 1.06-.186.406.389.82.397 1.293.292.309-.065 1.218-.69 1.354-.982.158-.333.278-.682.413-1.023.068-.17.113-.365.218-.511.346-.479.346-1.038.354-1.59.015-1.096-.03-2.199-.075-3.295-.03-.69-.264-1.339-.166-2.061.075-.584-.21-1.209-.308-1.826-.075-.487-.098-.99-.15-1.477-.031-.324-.106-.657-.106-.982 0-.454.053-.908.068-1.363.007-.113.007-.268-.06-.349-.278-.349-.248-.673-.12-1.095.172-.593.263-1.226.135-1.859a.868.868 0 0 1-.03-.308c.105-.795.233-1.582.316-2.386.045-.414 0-.836.015-1.249.015-.333.052-.658.082-.99.03-.341.218-.682.053-1.039a.091.091 0 0 1 0-.065c.226-.527.075-1.104.188-1.639a7.927 7.927 0 0 0 .173-2.029c-.038-.746.045-1.493.068-2.248.015-.584 0-1.16.007-1.744 0-.211.053-.414.06-.625a5.523 5.523 0 0 0-.007-.617c-.015-.292-.045-.584-.06-.876-.023-.455-.091-.917-.046-1.364.061-.657.188-1.306.294-1.955a.182.182 0 0 1 .06-.106c.669-.722.707-1.696.902-2.613.158-.746.308-1.493.451-2.248.045-.243.068-.486.098-.73 0-.024-.007-.049 0-.065.436-.795.128-1.736.429-2.564.112-.3.097-.657.112-.99.053-.909.121-1.818.113-2.727-.007-.933-.12-1.858-.15-2.791-.015-.511.06-1.022.068-1.534.007-.243-.061-.495-.068-.738-.06-1.542-.105-3.084-.158-4.626a1.013 1.013 0 0 1 .023-.373c.105-.34.097-.649-.166-.917-.06-.065-.083-.195-.09-.292-.045-.747-.429-1.363-.684-2.037-.256-.673-.467-1.371-.7-2.053-.143-.406-.285-.811-.436-1.217-.21-.576-.436-1.152-.654-1.729-.06-.154-.075-.324-.128-.478-.098-.309-.067-.584.188-.787.203-.155.752-.082.918.154.21.316.398.665.548 1.022.203.487.369.998.557 1.501.391 1.04.797 2.07 1.18 3.109.414 1.111.828 2.231 1.279 3.326.248.585.594 1.112.804 1.713.106.3.339.56.519.827.421.617.895 1.193 1.241 1.859.233.446.534.779.849 1.144.452.52.79 1.16 1.249 1.68.421.478.902.892 1.406 1.266.301.227.504.454.481.852-.015.26.09.43.293.56.248.154.504.316.73.51.255.22.534.277.857.301.398.032.616-.138.767-.495.271-.657.579-.803 1.226-.592.323.105.654.219.985.316.315.097.473-.065.541-.381.015-.065.023-.122.03-.187.06-.917.669-1.233 1.369-1.444.165-.05.323-.122.488-.179.053-.016.121-.024.166-.057.428-.357.27-.876.278-1.339.007-.34-.03-.657-.414-.803-.285-.114-.541-.308-.879-.268-.339.033-.594-.186-.812-.422a7.932 7.932 0 0 1-.692-.852c-.421-.592-.918-1.152-1.203-1.817-.286-.658-.594-1.299-.873-1.948-.135-.317-.233-.617-.466-.885-.135-.154-.18-.405-.248-.616-.068-.211-.083-.455-.188-.65-.241-.438-.459-.868-.421-1.403a.553.553 0 0 0-.15-.39c-.301-.268-.391-.649-.421-1.006-.038-.463-.219-.836-.437-1.201a2.604 2.604 0 0 1-.383-1.169c-.015-.194-.113-.381-.181-.576-.03-.097-.097-.186-.105-.284-.045-.673-.361-1.241-.601-1.842-.128-.316-.173-.673-.271-1.006-.278-.941-.609-1.866-.835-2.824-.165-.722-.541-1.38-.503-2.167a.778.778 0 0 0-.188-.51c-.286-.301-.354-.674-.414-1.072-.038-.243-.158-.462-.218-.706-.173-.673-.474-1.29-.729-1.931a80.256 80.256 0 0 1-.76-1.932c-.09-.227-.158-.47-.226-.706-.045-.154-.052-.349-.142-.47-.309-.398-.376-.901-.549-1.355-.181-.455-.474-.852-.707-1.282-.098-.18-.158-.374-.226-.56-.015-.041 0-.09-.022-.122-.527-.795-.632-1.834-1.294-2.556-.21-.236-.361-.536-.518-.82-.294-.527-.542-1.087-.85-1.599-.256-.43-.572-.827-.85-1.241-.361-.536-.737-1.055-1.053-1.623a.824.824 0 0 1 .234-1.055c.263-.195.676-.122.962.138.805.698 1.399 1.582 1.993 2.483.398.609.729 1.258 1.105 1.883.158.26.391.47.534.738.391.739.752 1.493 1.135 2.232.271.527.564 1.038.835 1.558.068.122.143.268.143.397 0 .48.218.828.504 1.153.082.089.21.194.21.292-.007.77.624 1.258.73 1.996.06.414.323.795.511 1.177.218.446.406.892.391 1.412a.774.774 0 0 0 .09.357c.248.56.504 1.12.76 1.68.015.04.037.073.045.113.082.463.067.982.27 1.372.226.43.294.892.444 1.33.286.82.338 1.72.767 2.508.211.381.263.86.376 1.298.143.592.271 1.193.414 1.793a.696.696 0 0 0 .127.276c.211.26.286.552.339.901.052.398.285.763.406 1.152.105.333.15.682.225 1.023.023.122.023.276.091.349.27.292.27.681.391 1.022.323.925.549 1.891 1.03 2.76.225.397.346.868.684 1.192.098.771.647 1.282.962 1.931.324.65.647 1.266 1.211 1.688.218.163.481.317.729.333.527.024.865.349 1.174.722.308.374.586.78.849 1.185.113.179.166.406.218.625.038.178.038.373.045.56.015.56.076 1.128-.353 1.582-.128.138-.143.382-.233.568-.09.179-.181.414-.331.487-.511.252-.88.86-1.519.706-.053.065-.09.09-.098.122-.045.446.038.95-.428 1.217-.369.211-.632.609-1.113.625-.323.008-.639.154-.97.195a.823.823 0 0 1-.504-.073c-.233-.114-.406-.05-.586.097-.166.138-.376.235-.512.398-.549.64-1.21.462-1.842.292-.466-.122-.895-.382-1.338-.593a.531.531 0 0 1-.234-.178c-.36-.56-.699-1.136-1.06-1.704a1.617 1.617 0 0 0-.316-.341c-.127-.114-.263-.235-.413-.325-.572-.34-.902-.95-1.331-1.444a44.939 44.939 0 0 1-2.226-2.743c-.406-.552-.654-1.193-1.113-1.801-.022.146-.045.227-.037.308.037.373.105.738.135 1.112.038.495.015.982.098 1.477.09.535-.008 1.111 0 1.663.007.406.045.82.068 1.225.015.252.045.503.03.747a65.145 65.145 0 0 1-.196 2.678c-.105 1.12-.331 2.231-.346 3.343-.015.974-.361 1.85-.511 2.784-.181 1.127-.361 2.296-.88 3.335-.143.276-.338.519-.624.746.045.349.083.698.128 1.047.007.065.022.122.022.187l-.09 2.613c-.007.17-.067.373 0 .495.256.462.09.933.075 1.404-.03.892-.015 1.777-.022 2.669 0 .227-.053.455-.068.682-.09.933-.173 1.858-.255 2.791-.076.852-.143 1.704-.219 2.548-.09 1.015-.105 2.053-.285 3.043-.173.942-.158 1.899-.339 2.833-.15.762-.135 1.493.181 2.231a4.84 4.84 0 0 1 .353 1.623c.038.763.203 1.518.309 2.28.03.203-.008.422.03.625.037.219.112.43.173.641.045.154.135.317.12.463-.083.746.052 1.469.12 2.199.015.146 0 .292-.022.438-.098.471-.046.893.218 1.315.127.203.188.527.142.762-.12.666-.285 1.331-.488 1.972-.166.544-.196 1.161-.632 1.583-.173.982-.88 1.509-1.541 2.061-.384.324-.858.397-1.301.438-.489.041-.993-.065-1.542-.114-.383.463-.857.877-1.473 1.055-.038.008-.061.09-.091.138-.338.098-.654.098-.962.098ZM91.307 73.293c-.489-.203-.925-.39-1.368-.569a.584.584 0 0 0-.286-.04c-.496.073-.85-.187-1.173-.552-.158-.178-.368-.3-.549-.446-.12-.098-.256-.195-.353-.317a6.109 6.109 0 0 1-1.12-2.418 83.782 83.782 0 0 1-.542-2.743c-.053-.3-.045-.616-.045-.933-.008-.933 0-1.866 0-2.791 0-.455.037-.917 0-1.364-.068-.803.293-1.517.36-2.296.06-.722.37-1.428.572-2.134.27-.974.662-1.923.775-2.922.097-.811.496-1.477.616-2.248.015-.121.09-.227.15-.34.12-.236.286-.447.377-.698.233-.657.48-1.29.834-1.899.451-.763.767-1.615 1.196-2.394.353-.64.782-1.233 1.165-1.858.21-.341.406-.698.61-1.055.03-.057.044-.122.075-.17.458-.601.91-1.218 1.383-1.802.339-.414.993-.414 1.361-.032.376.397.406 1.079.015 1.452-.504.487-.97.998-1.353 1.59-.15.236-.294.48-.452.715-.188.26-.39.511-.586.762-.105.147-.21.293-.3.455-.301.552-.587 1.112-.888 1.672-.369.69-.714 1.387-1.105 2.053-.407.69-.692 1.428-.985 2.183-.18.47-.226.957-.376 1.428-.226.681-.474 1.363-.662 2.053-.361 1.371-.722 2.742-1.015 4.13-.136.625-.143 1.274-.173 1.923a75.33 75.33 0 0 0-.083 2.914c-.007.665-.007 1.33.083 1.988.113.795.278 1.582.534 2.337.098.308.473.503.73.754.044.041.12.057.142.098.308.544.887.511 1.346.738.128.065.3 0 .459.008.579.017 1.158.049 1.744.04.632 0 1.263-.056 1.903-.056.706-.008 1.263-.462 1.902-.665.79-.252 1.587-.471 2.376-.739.33-.105.67-.235.947-.438a8.137 8.137 0 0 1 1.895-1.047c.143-.057.256-.178.384-.284.744-.633 1.481-1.274 2.233-1.899.181-.154.316-.26.248-.551-.09-.382.008-.723.271-1.04.128-.153.12-.43.173-.656-.399-.114-.715-.187-1.023-.292-.323-.106-.534-.317-.526-.723.007-.381.173-.657.549-.787.293-.097.601-.162.925-.243.045-.244-.053-.39-.233-.56-.504-.47-1.091-.52-1.692-.447-.827.098-1.64.228-2.414.6-.271.13-.61.139-.91.13-.489-.016-.73-.592-.413-.997.203-.26.48-.528.774-.633.872-.325 1.714-.771 2.737-.666 0-.884-.007-1.696 0-2.5.008-.559.053-1.127.06-1.687a2.217 2.217 0 0 0-.067-.673c-.106-.374-.083-.73-.015-1.112.067-.382.067-.78.052-1.169-.022-.868-.218-1.736.03-2.605.045-.154.053-.332.023-.495-.151-.844-.218-1.687-.09-2.54.052-.348.037-.714.022-1.063-.03-.981-.075-1.955-.113-2.937-.007-.162.023-.333.023-.495 0-.308-.008-.617-.008-.917 0-.146-.045-.308 0-.438.166-.495.068-.982.008-1.477-.06-.511-.015-1.03 0-1.55.015-.56.053-1.12.075-1.745-.286.073-.511.195-.722.179-.541-.04-1.075-.13-1.609-.227a.63.63 0 0 1-.39-.252c-.204-.349-.535-.43-.843-.487a1.101 1.101 0 0 1-.76-.511 1.48 1.48 0 0 0-.827-.633c-.526-.162-.744-.617-.699-1.29.03-.536.346-.942.857-1.023.474-.08.963-.162 1.444-.122.692.057 1.331-.227 2-.267.038 0 .09-.008.113-.033.466-.527 1.135-.454 1.707-.673.105-.04.203-.098.301-.162.285-.203.556-.463.864-.625.587-.309 1.068-.787 1.609-1.145.61-.405.985-.884 1.219-1.566.052-.162.225-.276.353-.405.406-.406.865-.755 1.135-1.307.076-.154.249-.252.384-.357.233-.162.504-.284.722-.47.383-.341.819-.544 1.293-.674.166-.049.323-.146.481-.203.128-.049.263-.13.384-.114.917.098 1.85-.089 2.759.211a.967.967 0 0 0 .504.008c.684-.162 1.361-.275 2.06-.17.128.016.271-.04.399-.049.158-.008.331-.056.459.009.744.373 1.616.446 2.218 1.152.075.09.18.178.286.203.383.073.571.357.774.681.226.35.504.69.835.933.391.293.639.666.774 1.137.106.373.331.592.654.738.143.065.286.146.391.268.414.47.903.795 1.452 1.063.331.162.631.406.917.657.323.276.722.26 1.075.39.166.056.361.048.497.146.819.56 1.729.6 2.654.625.466.016.925.065 1.383.138.482.08.805.478.843.973.06.666-.151 1.153-.655 1.323-.398.13-.661.381-.924.706-.166.203-.429.325-.67.43-.315.146-.661.179-.894.527-.098.155-.316.244-.504.293-.354.089-.722.186-1.091.178-.376-.008-.751-.13-1.135-.187-.203-.032-.414-.032-.624-.04a15.16 15.16 0 0 0-.857-.024c-.482.008-.85-.228-1.128-.658-.128.122-.233.211-.323.317-.707.925-1.67.868-2.617.754-.293-.032-.602-.3-.827-.543-.452-.479-.865-1.015-1.279-1.534-.158-.203-.278-.446-.436-.714-.556.122-.97-.146-1.346-.609-.248-.308-.609-.495-.91-.754-.315-.268-.624-.56-.924-.836-.316.219-.647.503-1.023.681a2.17 2.17 0 0 1-1.008.211c-.564-.032-.962.309-1.308.658-.414.43-.805.779-1.293.665l-1.339 1.599c-.218.26-.406.568-.646.795-.602.56-1.324.487-2.046.357-.534-.097-.985-.357-1.308-.828-.06-.08-.09-.186-.128-.251-.323.276-.556.487-.835.722.294.925.196 1.931.211 2.921.007.268-.053.536-.083.804-.015.146-.045.292-.03.438.203 1.404.038 2.824.068 4.236.007.251-.068.495-.068.746.008.56.068 1.128.068 1.688-.008.771-.053 1.534-.075 2.305-.008.268-.045.552.022.811.181.747.038 1.485 0 2.232-.022.47.038.95.053 1.428.007.268.075.56.007.803-.127.439-.06.86-.037 1.299.037.763 0 1.534-.008 2.304 0 .228 0 .455.008.682.007.284.03.576.045.933.06.033.173.106.293.154 1.188.455 1.82 1.494 1.572 2.824-.091.487-.211.86.075 1.315.098.146 0 .495-.09.706-.143.349-.143.657.015.998.308.698.097 1.745-.421 2.248-.068.073-.196.113-.218.195-.196.649-.745.876-1.196 1.217-.737.568-1.466 1.144-2.226 1.68-.661.47-1.368.86-2.173.981-.255.041-.459.122-.631.374-.309.438-.813.552-1.271.681-.542.146-1.098.211-1.602.52-.12.073-.3.048-.451.065-.444.048-.88.073-1.323.138-.572.089-1.136.227-1.707.3-.226.032-.346.138-.459.325-.33.543-.376 1.176-.429 1.793-.022.308.015.625-.173.9-.067.106-.052.285-.067.422-.03.333-.038.666-.098.99-.098.552-.188 1.104-.135 1.664.007.106.022.227-.015.308-.294.625-.15 1.307-.226 1.956-.045.43-.173.844-.226 1.274-.06.454-.09.909-.12 1.363-.037.69-.067 1.372-.083 2.061-.007.293.046.585.068.869.008.121.053.276 0 .373-.286.536-.09 1.104-.105 1.647-.008.309-.053.625-.075.934-.015.186-.075.405-.008.551.331.69.143 1.437.24 2.159l.136 1.047c.03.267.068.535.098.803.03.284.052.576.098.86.15.958.315 1.915.473 2.873.06.365 0 .706-.195 1.014a.952.952 0 0 0-.158.398c-.075.884-.384 1.688-.684 2.499-.271.731-.467 1.493-.685 2.248-.188.674-.398 1.347-.534 2.037-.15.746-.225 1.517-.33 2.272-.008.081.022.162.03.26.33.162.639.194 1.007.121.64-.138 1.301.471 1.324 1.153.022.495-.324.876-.888.957-.135.016-.27 0-.406.008-.323.017-.646.049-.97.057-.21.008-.428-.032-.639-.032-.263.008-.541 0-.797.073-.511.146-.992-.025-1.173-.487-.173-.438.008-.933.459-1.217.083-.049.173-.082.248-.114.053-.479.068-.933.15-1.38.128-.649.286-1.282.46-1.915.127-.454.322-.884.443-1.339.128-.47.203-.957.308-1.436.03-.122.053-.251.105-.357.436-.779.64-1.639.835-2.507.03-.122.06-.244.105-.357.21-.48.293-.885.06-1.453-.33-.803-.376-1.728-.45-2.621-.046-.536-.129-1.071-.174-1.615a2.434 2.434 0 0 1 .045-.617c.076-.349.068-.657-.142-.892-.46.097-.88.203-1.316.26-.188.024-.384-.017-.572-.066-.346-.089-.684-.113-1.03.009-.376.13-.73.089-1.045-.187-.06-.049-.12-.114-.188-.146-.767-.373-1.534-.73-2.301-1.112-.24-.121-.466-.3-.692-.454-.932-.65-1.76-1.404-2.33-2.45-.798-1.47-.926-2.979-.227-4.52.557-1.226 1.512-2.021 2.677-2.443.542-.195 1.181-.098 1.782-.09.324.008.655.073.963.179.436.154.91.284 1.27.568.49.39 1.181.6 1.34 1.38.623.608.894 1.484 1.375 2.198.075.114.105.26.24.398 0-.39-.014-.787.016-1.176.045-.56.143-1.112.18-1.672.068-1.071.106-2.15.158-3.23 0-.04-.015-.097.008-.122.316-.47.143-1.006.195-1.509.03-.284.166-.552.218-.836.173-.917.301-1.842.497-2.75.21-.723.436-1.404.616-2.045Zm-1.804 14.85c-.361-.236-.655-.341-.82-.569-.61-.82-1.166-1.671-1.752-2.515-.12-.179-.24-.373-.399-.511-.797-.698-1.669-1.128-2.744-1.08-1.128.057-1.97.52-2.444 1.648-.15.357-.24.738-.346 1.12-.195.681.075 1.298.391 1.81.27.445.752.738 1.143 1.103.075.065.166.113.226.195.233.34.564.454.925.576.466.154.924.308 1.36.633.752.56 1.602.884 2.557.633.128-.033.27-.017.406-.025.489-.049.978-.097 1.512-.146-.015-1.03-.015-1.996-.015-2.873ZM17.098 10.89c.135-.39.24-.674.33-.966.166-.552.302-1.111.587-1.615.293-.527.421-1.128.79-1.639.474-.665.797-1.452 1.225-2.158.218-.357.52-.658.782-.974.286-.34.564-.682.88-.998.128-.13.339-.252.504-.244.812.05 1.564.268 2.083 1.023.045.065.09.138.15.186.7.642 1.218 1.437 1.782 2.208.542.738.843 1.623 1.354 2.377.052.081.06.195.105.357.444 0 .895-.008 1.354 0 .503.017 1 .073 1.503.073.421 0 .85-.089 1.271-.073 1.354.073 2.692-.121 4.03-.235.647-.057 1.301.016 1.956.04.729.025 1.466.05 2.293.074.203-.447.594-.877.67-1.51.03-.235.157-.462.255-.681.158-.357.33-.706.481-1.063.203-.463.369-.95.602-1.404.338-.65.714-1.282 1.075-1.915.023-.033.038-.098.06-.098.391-.097.782-.243 1.173-.251.203 0 .489.203.602.405.406.698.985 1.274 1.218 2.102.105.365.368.682.534 1.03.436.926.94 1.818 1.27 2.784.271.787.662 1.493.94 2.264.015.04.038.081.038.114.038.917.692 1.209 1.308 1.598.737.471 1.467.934 2.03 1.713.835 1.168 1.813 2.207 2.708 3.319.24.292.406.649.609.973.195.309.398.609.594.917.42.666.548 1.461.782 2.207.06.195.105.398.173.593.27.82.436 1.672.54 2.532.076.681.227 1.355.272 2.037.052.714.263 1.42.112 2.15-.015.065-.03.13-.015.186.219.82.046 1.672.136 2.492.067.584-.045 1.111-.15 1.655-.083.447-.226.877-.346 1.315-.128.479-.271.957-.4 1.436-.052.203-.067.406-.112.698a79.1 79.1 0 0 1 1.15.617c.098.056.211.113.286.203.376.47.745.957 1.15 1.485.114 0 .302.048.452-.008.564-.211 1.053.04 1.572.194.661.195 1.15.674 1.639 1.112.45.406.827.9 1.143 1.469.466.827.511 1.769.782 2.645.142.47.022 1.03.022 1.558-.052.033-.097.065-.15.098.225.194.466.373.67.592 1.127 1.2 1.27 2.718 1.247 4.325-.022 1.225-.436 2.224-1.173 3.1-.481.568-.902 1.225-1.466 1.663-.692.536-1.436 1.08-2.369.982-.112-.008-.233 0-.315 0-.128.528-.241 1.03-.369 1.526-.135.52-.526.811-.872 1.144-.361.349-.722.698-1.113.998-.278.211-.609.333-.91.487.278 2.938.128 5.835.136 8.797.082.032.225.121.368.138.707.097 1.308.47 1.932.803.241.13.482.268.722.397.278.155.414.398.369.706-.045.325-.21.487-.564.52-.542.049-1.023-.17-1.512-.357-.721-.284-1.413-.666-2.195-.722-.436-.033-.82.016-1.136.438-.285.381-.736.381-1.037.089-.248-.235-.271-.714-.03-1.087.308-.48.736-.78 1.233-.982.105-.04.218-.081.33-.122v-8.504c-.669-.26-1.406-.39-1.924-.998-.391.365-.707.698-1.06.99-.309.251-.64.462-1.053.462-.15 0-.324.033-.436.122-.301.243-.655.227-.993.292-1.128.227-2.218.033-3.309-.268a3.697 3.697 0 0 1-1.406-.706c-.398-.324-.834-.6-1.285-.917-.21.106-.452.244-.7.35-.804.34-1.654.413-2.504.405a6.737 6.737 0 0 1-1.21-.122c-.414-.08-.82-.227-1.226-.349-.15-.048-.286-.154-.428-.178-.602-.09-.858-.666-1.249-1.039-.21-.203-.346-.495-.549-.706-.797-.828-1.203-1.866-1.436-2.994-.052-.26-.022-.544-.007-.812.022-.349.082-.698.12-1.047-.496-.365-1-.673-1.346-1.192-.436-.666-.91-1.299-.917-2.175 0-.024.007-.04 0-.065-.271-.73-.106-1.485-.06-2.215.03-.512.157-1.031.345-1.502.271-.681.58-1.387 1.128-1.866.843-.747 1.632-1.631 2.835-1.574.105-.78.15-1.534.323-2.248.113-.463.399-.9.67-1.29.616-.901 1.398-1.485 2.474-1.704.857-.17 1.684.008 2.586-.065.233-.309.504-.69.805-1.04.15-.178.338-.348.549-.43.714-.3 1.428-.616 2.225-.583.369.016.737-.041 1.098-.057.617-.025 1.233-.073 1.775.365.353.284.73.52 1.143.811.24-.357.631-.413 1.067-.438.76-.048 1.512-.073 2.249.154.3.098.406-.04.474-.349.09-.397.218-.779.255-1.209.038-.422.293-.82.354-1.241a29.16 29.16 0 0 0 .218-2.418c.03-.65.067-1.307-.016-1.94-.075-.625.038-1.266-.172-1.89-.113-.341-.113-.73-.136-1.104-.098-1.372-.443-2.694-.699-4.033-.143-.755-.541-1.38-.842-2.053-.166-.365-.406-.698-.61-1.047-.165-.276-.323-.56-.503-.836-.203-.325-.406-.633-.767-.811-.3-.155-.549-.463-.775-.747-.473-.576-.894-1.209-1.398-1.745-.444-.478-.978-.868-1.482-1.29-.06-.048-.203-.065-.263-.024-.278.195-.413-.016-.594-.179-.353-.3-.526-.714-.684-1.136-.188-.479-.323-.974-.504-1.452-.203-.52-.443-1.015-.661-1.526-.279-.641-.534-1.29-.82-1.923-.166-.373-.376-.722-.549-1.096-.113-.235-.195-.495-.308-.73-.316-.633-.64-1.25-1.03-2.02a452.878 452.878 0 0 1-1.286 3.197c-.105.26-.256.503-.369.77-.323.78-.616 1.575-.955 2.346-.263.608-.714.714-1.218.349a.568.568 0 0 0-.308-.122c-1.045.008-2.083.008-3.128.049-.978.04-1.948.146-2.925.21-1.173.082-2.354.139-3.534.212-1 .056-2 .08-2.97.422-.557.194-1.113-.293-.963-.917a.963.963 0 0 0-.113-.755c-.473-.836-.91-1.696-1.571-2.402a7.453 7.453 0 0 1-.933-1.258c-.27-.454-.676-.665-1.09-.892-.203-.114-.368-.025-.489.178-.503.86-.97 1.753-1.518 2.572-.685 1.023-1.098 2.175-1.55 3.32-.233.576-.503 1.192-1.233 1.314-.067.527-.458.811-.812 1.08-.977.73-1.722 1.703-2.511 2.637-.391.462-.745.949-1.09 1.444-.565.812-1.083 1.647-1.437 2.597-.346.941-.744 1.866-1.113 2.8-.06.145-.067.316-.097.478-.046.22-.053.463-.128.666-.158.413-.309.811-.12 1.265.03.065.007.163-.008.244-.075.576-.203 1.152-.226 1.728-.045 1.096-.03 2.2-.037 3.295 0 .162.022.325.007.487-.03.414-.075.803.12 1.209.144.3.196.681.204 1.03.022.715.308 1.364.436 2.045.075.398.24.787.413 1.153.301.624.64 1.233.97 1.842.06.105.173.178.218.292.188.479.527.738.94.974.617.34.677.99.18 1.485-.247.243-.54.3-.796.121-.52-.357-1.06-.722-1.49-1.184-.315-.341-.518-.828-.698-1.29-.399-1.007-.805-2.013-1.12-3.052-.354-1.144-.565-2.32-.708-3.522-.142-1.192-.157-2.377-.105-3.562.03-.755-.075-1.534.18-2.264.023-.073.016-.162.023-.251.053-.788.083-1.575.173-2.354.038-.324.24-.617.286-.941.12-.787.436-1.501.7-2.224a16.665 16.665 0 0 1 1.977-3.87c.406-.576.79-1.177 1.255-1.696.46-.52 1-.966 1.52-1.428a84.477 84.477 0 0 1 1.781-1.567c.113-.08.271-.121.354-.17Zm44.266 43.998c.399-.357.782-.649 1.361-.52.196.05.474-.137.662-.291.338-.268.677-.56.962-.893.467-.544.88-1.144 1.346-1.696.256-.3.369-.65.354-1.03-.03-.95.03-1.916-.414-2.816-.316-.641-.654-1.201-1.3-1.493-.12-.057-.301-.138-.316-.228-.076-.486-.391-.908-.316-1.444.12-.78.225-1.566-.27-2.264-.023-.032-.023-.081-.038-.122-.264-1.103-1-1.777-1.835-2.353-.105-.073-.263-.138-.376-.122-.587.106-1.158.244-1.745.357-.323.065-.691.17-.925-.162-.473-.674-1.143-1.169-1.511-1.94-.045-.097-.173-.146-.27-.202-.61-.422-1.324-.43-2-.593-.888-.219-1.678-.008-2.31.763a.827.827 0 0 1-.495.268c-.452.065-.73-.162-.865-.722-.098-.406-.316-.747-.617-.942-.631-.397-1.293-.762-2.075-.6-.226.048-.444.146-.677.178-1.165.163-1.91.893-2.346 2.03-.18.47-.556.713-.917.526-.857-.454-1.707-.267-2.542.033-.564.203-1.045.576-1.263 1.201-.18.52-.346 1.055-.466 1.599-.09.405-.083.827-.143 1.241-.12.755-.481 1.055-1.173 1.144-.391.049-.812.138-1.15.341-1.166.674-1.805 1.745-1.963 3.181-.075.69-.06 1.38.052 2.045.136.77.587 1.388 1.173 1.858.279.227.602.374.895.585.346.251.421.6.21.973-.465.828-.217 1.68-.09 2.532.008.057.068.097.098.154.482.836 1.045 1.607 1.722 2.256.286.276.7.438 1.076.56.654.203 1.33.211 2.015.154.902-.08 1.767-.21 2.42-.965.166-.187.34-.244.565-.268.323-.024.556.097.752.373a4.98 4.98 0 0 0 1.85 1.575c.579.283 1.225.494 1.902.283.143-.048.3-.048.451-.065.496-.056 1.023-.008 1.474-.194.812-.341 1.549-.812 1.91-1.777.248-.674 1.015-.78 1.481-.26.173.195.339.406.512.6.105.114.21.252.345.3.782.317 1.595.358 2.309-.137.474-.325.932-.755.88-1.502-.015-.243.06-.494.105-.738.128-.665.444-.925 1.068-.86.165.008.315.057.458.09Z"/><path fill="#333161" d="M119.377 9.908c.225-.398.391-.674.533-.958.181-.357.534-.592.594-1.046.016-.122.158-.236.234-.35.135-.194.263-.397.391-.6.097-.146.188-.3.293-.446.03-.049.12-.073.128-.122.12-.9.857-1.347 1.293-2.004.466-.698 1.128-1.25 1.707-1.85.316-.333.632-.666.977-.958.406-.349.7-.349 1.091-.008a9.193 9.193 0 0 1 1.849 2.207c.369.625.835 1.193 1.324 1.72.579.625 1.045 1.34 1.451 2.086.399.73.594 1.582.985 2.313.278.52.429 1.095.714 1.598a.478.478 0 0 0 .203.187c.113.073.264.09.354.178.774.739 1.699 1.299 2.196 2.354.195.414.541.77.879 1.071.406.365.655.803.79 1.339.03.114.075.252.158.308.489.382.699.966 1.007 1.485.106.17.233.333.331.512.083.154.196.332.196.503-.008.43.18.77.376 1.095.158.252.218.52.285.804.128.56.279 1.144.527 1.647.225.462.278.941.346 1.428.03.243.075.495.112.738.098.569.256 1.137.098 1.729.391.957.015 1.988.241 2.962.045.195.022.43-.03.617-.286.925-.331 1.906-.715 2.815-.158.374-.18.804-.518 1.023.157.357.33.673.443 1.014.196.6-.135 1.014-.714 1.03-.684.025-1.173-.397-1.647-.795-.436-.365-.323-1.136.166-1.436.082-.049.173-.073.3-.122-.195-.746.076-1.387.346-2.044.113-.276.181-.601.188-.91.03-.99 0-1.987.023-2.977a14.077 14.077 0 0 0-.444-3.806c-.105-.398-.06-.836-.15-1.234-.083-.373-.256-.73-.384-1.095-.067-.195-.15-.382-.203-.576-.105-.398-.12-.828-.473-1.112a.323.323 0 0 1-.098-.22c-.015-.47-.354-.77-.504-1.151-.444-1.153-1.414-1.916-1.827-3.076-.053-.154-.143-.333-.263-.398-.609-.324-.858-.998-1.271-1.509-.376-.47-.752-.95-1.414-.941-.301 0-.549-.187-.737-.455-.519-.746-.857-1.598-1.203-2.442-.286-.682-.541-1.412-.962-1.98-.654-.893-1.106-1.956-1.895-2.71-.534-.512-.88-1.145-1.354-1.762-.27.325-.564.674-.857 1.015-.361.422-.759.828-1.09 1.274-.406.56-.79 1.152-.978 1.85a.547.547 0 0 1-.165.252.98.98 0 0 0-.338.616c-.031.195-.234.365-.361.544-.196.276-.444.527-.587.836-.18.373-.286.779-.654.998a.257.257 0 0 0-.105.146c-.226.69-.767.755-1.324.763-.534.008-1.068-.033-1.609-.033-.857 0-1.714.033-2.579.033-.556 0-1.113-.057-1.669-.057-.226 0-.459.09-.692.097-1.113.065-2.233.154-3.339-.113-.195-.049-.353-.04-.511.154-.466.56-1.181.584-1.587-.016-.496-.73-.962-1.502-1.225-2.386-.03-.114-.053-.26-.128-.325-.632-.527-.872-1.355-1.361-1.996-.511-.665-.797-1.51-1.429-2.093-.188-.17-.27-.48-.406-.747-.225-.049-.413.114-.413.308-.023.698-.497 1.169-.692 1.77-.075.227-.158.454-.248.681-.098.252-.196.495-.294.747-.105.26-.21.527-.308.787-.045.113-.068.235-.113.349-.398.876-.714 1.785-.834 2.767-.038.324-.196.625-.294.941-.06.195-.12.39-.15.584-.068.43-.293.763-.67.86-.3.074-.533.22-.759.406-1.097.885-2.188 1.777-2.977 3.01-.301.48-.52 1.064-.918 1.413-.534.462-.601 1.258-1.18 1.647a.337.337 0 0 0-.105.146c-.249.609-.49 1.226-.73 1.834-.09.227-.15.463-.263.674-.158.292-.27.568-.308.917-.053.527-.248 1.038-.346 1.558a15.198 15.198 0 0 0-.218 1.541 24.92 24.92 0 0 0-.105 2.11c0 .69.067 1.372.105 2.061.03.617-.15.91-.594.966-.512.065-.835-.203-.918-.795-.082-.617-.218-1.234-.218-1.85-.007-1.136 0-2.289.128-3.409.068-.624.09-1.29.429-1.866.052-.09 0-.235.015-.357.03-.203.007-.479.12-.6.3-.325.286-.755.414-1.137.308-.916.631-1.817 1.143-2.629.473-.754.962-1.493 1.45-2.231.602-.925 1.332-1.713 2.054-2.524a6.646 6.646 0 0 1 1.955-1.526c.127-.064.24-.267.27-.43.188-.957.466-1.858.94-2.71.316-.576.466-1.266.684-1.907.023-.057-.007-.138.023-.187.353-.64.391-1.42.797-2.036.12-.179.173-.406.256-.609.255-.641.406-1.339.865-1.875.06-.073.127-.17.135-.267.075-.536.406-.893.722-1.25.383-.438.895-.463 1.368-.162.444.284.82.616 1.03 1.144.038.105.166.162.233.251.181.236.354.48.534.723.068.097.136.203.211.3.406.52.88.99 1.218 1.566.429.73 1.083 1.315 1.271 2.207.022.13.15.227.225.341.211.325.444.633.625.966.172.316.368.495.729.495 1.083 0 2.173.04 3.256.04.458 0 .917-.073 1.383-.113h.06c1.249-.016 2.489-.244 3.753-.163.646.082 1.315.041 1.925.041Z"/><path fill="#57CECC" d="M22.543 17.284s-.354 3.847 1.353 5.616c1.714 1.769 4.632 1.85 6.346.844 1.715-1.007 2.564-1.924 2.925-3.384.354-1.46.143-3.23.143-3.23l-4.135-.308-6.633.462ZM37.656 17.284s-.353 3.847 1.354 5.616c1.714 1.769 4.632 1.85 6.346.844 1.715-1.007 2.564-1.924 2.925-3.384.354-1.46.143-3.23.143-3.23l-4.136-.308-6.632.462Z"/><path fill="#333161" d="M33.98 16.814c.06.349.105.625.165.957.85.057 1.714-.04 2.58-.3-.008-.081-.016-.138-.016-.195-.113-.876.541-1.574 1.354-1.444.36.057.721.105 1.09.162.09.016.203.024.27.081.256.244.542.17.828.122.15-.024.308-.09.458-.073.737.09 1.467.065 2.196-.04.436-.066.88-.082 1.323-.122.158-.008.309-.008.467-.017.285-.016.571-.04.857-.056.135-.008.27-.033.406-.033.594.025 1.188.065 1.782.09.233.008.474.032.692-.033.42-.122.767-.032 1.06.3.316.365.323.828.188 1.234-.158.462-.361.95-.91 1.055-.053.454-.143.884-.143 1.322 0 .706-.188 1.34-.42 1.988-.324.91-.896 1.567-1.663 1.989-.962.527-1.977 1.038-3.075.99-1.128-.057-2.278-.138-3.376-.503-.143-.05-.309-.098-.421-.203-.707-.642-1.482-1.218-1.963-2.102-.12-.211-.218-.438-.323-.657-.083-.163-.158-.317-.309-.609-.045.803-.54 1.136-.94 1.517-.293.284-.706.195-1.052.065-.346-.13-.376-.47-.391-.827-.075-1.372.398-1.55 1.33-1.356.332.073.648.203 1.008.317a2.945 2.945 0 0 0-.285-1.274c-.474.105-.925.276-1.376.3-.452.024-.91-.105-1.376-.17-.015.024-.06.057-.06.089.03 1.08-.482 1.964-.993 2.808-.286.47-.714.884-1.143 1.209-.677.52-1.406.957-2.128 1.404a1.372 1.372 0 0 1-.662.194c-.872.041-1.744.065-2.609.05a5.53 5.53 0 0 1-1.203-.18c-.572-.145-1.105-.389-1.429-1.07-.105.154-.203.235-.203.308-.007.6.008 1.2.015 1.81.008.6.015 1.192.015 1.793 0 .39-.007.779-.007 1.168 0 .065.045.146.022.179-.255.446.015.884.008 1.323-.015.454-.083.908-.09 1.37-.015 1.267-.023 2.54-.015 3.807 0 .454.09.9.09 1.347.007.495-.068.99-.06 1.485.007.811.052 1.623.067 2.434.008.163-.03.333-.037.495-.008.187-.008.365-.015.552-.008.244-.023.487-.03.73-.015.26-.038.528-.038.788 0 .202.023.413.038.616.037.528-.06 1.047.052 1.59.098.48-.045 1.031-.12 1.542-.03.212-.008.35.113.512.549.77.556 1.647.42 2.556-.014.114-.074.26-.037.349.466.99.256 2.053.271 3.075.008.617-.744 1.128-1.308.99-.218-.056-.361-.186-.331-.438.037-.308.09-.617.188-.909.248-.763.225-1.452-.324-2.06-.33-.366-.323-.764.053-1.226.256-.317.308-.625.203-1.023-.105-.397-.353-.608-.7-.657-.495-.073-.992-.138-1.488.065-.158.065-.354.114-.511.081a.641.641 0 0 1-.391-.3c-.098-.187-.038-.398.15-.552.466-.373 1.023-.463 1.564-.592.203-.049.414-.065.67-.106-.03-.316-.053-.576-.083-.844-.015-.186-.046-.373-.046-.56 0-.308.046-.608.038-.917-.023-.762.105-1.517-.03-2.28-.09-.52-.015-1.071-.015-1.615.007-.803.03-1.614.03-2.418 0-.657-.045-1.323-.03-1.98.015-.82.098-1.64.098-2.467.007-.852-.06-1.704-.068-2.548-.008-.535.053-1.08.045-1.615 0-.616-.052-1.233-.052-1.85 0-.73.037-1.452.052-2.183 0-.186-.037-.365-.037-.551V21.65c0-.6-.015-1.185-.196-1.777-.18-.584-.3-1.217.15-1.777.15-.187.128-.381.053-.633-.226-.706.008-1.055.677-1.298.654-.236 1.3-.374 1.985-.333.67.04 1.338.13 2.008.105.887-.032 1.767-.146 2.654-.219a13.66 13.66 0 0 1 1.158-.048c.616-.017 1.233.032 1.85-.033.346-.04.676-.146 1.022-.04.166.048.339.089.496.162.61.292.655.52.219 1.055Zm-10.52 1.16c.105.39.3.739.256 1.055-.083.584 0 1.071.255 1.607.316.657.654 1.258 1.158 1.777.489.511 1.008.884 1.692.966 1.075.13 2.143.275 3.166-.325 1.105-.65 2.075-1.42 2.549-2.743.293-.811.451-1.639.18-2.532-.556-.032-1.09-.089-1.564-.413-.03-.025-.075-.017-.113-.017-.631.049-1.27.09-1.902.138-.504.04-1 .098-1.496.155-.248.024-.496.097-.745.105-.436.024-.88.024-1.316.032-.112 0-.233-.056-.338-.048a56.43 56.43 0 0 0-1.782.243Zm15.061.308c.053.406.136.788.15 1.177.046.917.37 1.704.918 2.37.323.397.632.827 1.166.973 1.067.276 2.127.487 3.24.333.828-.113 1.594-.292 2.189-.966a.67.67 0 0 1 .18-.154c.474-.243.541-.827.895-1.176.112-.78.248-1.558.338-2.337.038-.325-.3-.723-.579-.723-.564-.016-1.12 0-1.684.017-.715.016-1.429.073-2.143.065-.94-.009-1.88-.05-2.828-.082-.06 0-.127 0-.165.033-.376.325-.82.316-1.263.316-.105-.016-.233.073-.414.154ZM59.876 82.34c-.067.577-.135 1.234-.225 1.883a3.498 3.498 0 0 1-.226.836c-.263.609-.248 1.258-.33 1.899-.053.406-.046.82-.06 1.225-.031 1.03-.099 2.061-.31 3.076-.052.243-.022.503-.044.746-.023.252-.008.52-.098.739-.27.665-.293 1.371-.338 2.077-.023.414-.106.82-.18 1.225-.324 1.664-.648 3.336-.986 4.991-.12.584-.286 1.16-.406 1.753-.06.284 0 .6-.098.86-.24.665-.353 1.355-.511 2.037-.09.381-.248.738-.376 1.103-.323.925-.414 1.899-.587 2.857-.03.162-.052.365-.15.462-.226.211-.21.463-.248.739-.023.219-.12.438-.233.625-.263.422-.534.819-.564 1.355 0 .065-.008.138-.045.178-.654.771-.58 1.891-1.105 2.719-.083.13-.076.324-.136.478-.12.301-.248.601-.383.901-.038.089-.136.163-.15.26-.241 1.055-.685 2.029-1.084 3.01-.39.974-.639 1.997-1.135 2.93-.519.966-.835 2.053-1.256 3.084-.158.381-.383.722-.556 1.095-.196.422-.361.868-.534 1.298-.045.114-.105.219-.158.325-.113.235-.248.463-.346.706-.3.738-.601 1.477-.887 2.232-.15.397-.203.86-.414 1.209-.368.624-.767 1.249-1.263 1.752-.368.374-.917.52-1.353.812-.512.341-1.046.373-1.617.324-.496-.048-.797-.348-1.113-.746.18-.138.33-.252.526-.406-.48-.462-.203-.965-.075-1.444.15-.576.369-1.136.557-1.704.097-.292.3-.455.571-.439.27.017.496.195.526.495.038.414.076.844.008 1.25-.09.471-.293.917-.451 1.388.436.016.782-.203 1.105-.471.451-.381.865-.779 1.196-1.306.398-.641.564-1.356.774-2.062.106-.365.294-.714.467-1.054.691-1.364 1.06-2.889 1.872-4.196.338-.543.496-1.209.737-1.817l.203-.512c.195-.47.413-.933.594-1.412.255-.665.466-1.347.797-1.988.278-.535.451-1.136.669-1.712.12-.3.256-.601.376-.901a4.89 4.89 0 0 0 .158-.47c.045-.155.068-.325.12-.479.233-.657.459-1.323.722-1.972.12-.3.33-.56.451-.86.188-.455.346-.925.496-1.396.03-.089-.007-.195-.015-.3-.045-.649-.03-1.258.346-1.85.271-.43.331-1.007.49-1.518.052-.178.12-.349.172-.527.06-.211.128-.43.18-.65.023-.097.008-.219.053-.308.316-.682.331-1.444.504-2.167a.69.69 0 0 1 .12-.275c.218-.228.248-.504.263-.804.015-.203.083-.397.128-.592.136-.544.316-1.079.391-1.631.113-.885.406-1.72.58-2.589.27-1.314.548-2.629.826-3.944.113-.543.241-1.087.316-1.63.128-.901.286-1.794.339-2.703.045-.925.255-1.85.36-2.775.083-.739.128-1.493.181-2.232.03-.478.038-.957.06-1.436.008-.081.053-.17.038-.243-.188-1.088.188-2.159.128-3.238-.023-.333.12-.56.39-.706a.686.686 0 0 1 .82.089c.617.528 1.316.552 2.038.381.286-.064.564-.146.85-.17.932-.097 1.579-.73 1.887-1.672.225-.697.203-1.387.225-2.085.023-.73.076-1.46.113-2.191.015-.317-.007-.584-.27-.844-.188-.187-.249-.552-.309-.852-.158-.706-.278-1.42-.42-2.134-.076-.39-.151-.78-.256-1.153-.113-.413-.256-.82-.391-1.225-.023-.081-.09-.146-.106-.219-.21-1.258-.714-2.41-1.067-3.611-.211-.714-.46-1.412-.685-2.118-.135-.422-.06-.73.203-.86.346-.163.662-.008.85.405.233.52.534 1.015.707 1.55.203.617.594 1.16.594 1.85 0 .057.007.139.038.18.383.478.48 1.078.624 1.663.195.779.473 1.541.676 2.32.218.836.406 1.688.587 2.532.09.422.082.852.067 1.299-.03.722.098 1.444.12 2.174.023.828 0 1.664 0 2.492 0 .04-.03.089-.014.121.225.674-.12 1.266-.218 1.891-.106.665-.557 1.12-.97 1.518-.564.543-1.21 1.014-1.985 1.209-.113.024-.226.073-.339.073-.676-.016-1.353-.049-2.113-.081ZM8.91 74.34c-.18-.114-.346-.236-.519-.309-.248-.106-.444-.235-.549-.52-.03-.089-.098-.194-.18-.235-.369-.186-.482-.576-.662-.925-.188-.365-.203-.706.038-1.063.548-.057.947.276 1.323.633.654.6 1.421 1.039 2.256.958.722-.065 1.481-.114 2.158-.609.752-.544 1.346-1.233 1.917-1.956.346-.438.715-.908.903-1.428.36-1.014 1.135-1.785 1.368-2.864a1.25 1.25 0 0 1 .203-.447 9.648 9.648 0 0 0 1.15-2.215c.219-.592.602-1.103.91-1.655.196-.357.391-.714.594-1.063.324-.544.662-1.08 1-1.615.046-.065.098-.154.166-.17.158-.041.346-.106.474-.05.097.05.188.293.165.415-.098.413-.21.843-.398 1.225-.474.95-.993 1.866-1.49 2.808-.074.146-.12.308-.172.462-.038.114-.045.26-.113.35-.632.762-.812 1.768-1.226 2.645a71.409 71.409 0 0 1-2.045 4.04c-.466.853-1.068 1.6-1.857 2.167-.459.325-.827.771-1.406.917-.557.138-.97.674-1.572.739-.3.032-.601.105-.88.162v2.848c0 .309-.037.625.008.925.098.593.113 1.185.037 1.777-.015.098-.015.26.038.3.354.252.218.634.27.966.068.495.204.974.256 1.47.068.632.301 1.257.106 1.906.255.812-.023 1.712.39 2.508.098.194.136.438.159.657.06.681.075 1.371.157 2.053.083.722.211 1.436.324 2.158.083.552.15 1.112.255 1.664.113.584.098 1.193.377 1.753.15.292.112.681.172 1.03.06.357.136.723.226 1.08.12.519.293 1.03.383 1.558.136.803.331 1.574.564 2.353.286.99.662 1.956.73 3.011.007.105 0 .227.045.308.391.673.421 1.452.571 2.199.023.122.076.235.12.349.211.535.43 1.063.43 1.672 0 .34.097.689.338.973.135.163.195.398.255.609.15.536.301 1.071.421 1.615.113.487.219.974.271 1.469.045.389-.173.681-.511.803-.293.105-.61-.008-.79-.349-.285-.552-.73-1.039-.737-1.737a.508.508 0 0 0-.105-.292c-.413-.462-.511-1.055-.609-1.655-.045-.276-.18-.536-.27-.812-.09-.251-.181-.503-.256-.762-.136-.52-.294-1.031-.384-1.558-.083-.471-.203-.934-.286-1.388-.135-.738-.45-1.412-.594-2.142-.022-.122-.105-.236-.097-.357.06-1.007-.271-1.932-.58-2.832-.36-1.055-.548-2.15-.826-3.222-.076-.276-.203-.544-.256-.82-.135-.665-.233-1.338-.361-2.004-.105-.568-.24-1.128-.346-1.688-.083-.47-.143-.941-.195-1.412-.12-.99-.241-1.98-.354-2.962-.037-.308-.098-.624-.075-.925.06-1.07-.128-2.11-.286-3.156-.075-.487-.067-.99-.12-1.485-.038-.366-.105-.73-.165-1.104-.03-.203-.068-.414-.09-.617-.076-.681-.144-1.363-.219-2.045-.007-.065-.022-.13-.015-.186.203-1.631-.083-3.238.068-4.902ZM80.006 116.422c.398.09.722.138 1.037.244.301.097.497.316.52.682.022.357-.084.608-.37.852-.45.373-.932.332-1.518.235v2.085c.376.025.737.033 1.09.065.316.025.58.195.647.528.075.341.113.738-.226.965-.353.236-.73.422-1.128.65.068.527.527 1.111 1.068 1.176a7.654 7.654 0 0 0 1.557.057c.496-.04.887-.389 1.255-.738.497-.479.993-.52 1.49-.195.368-.073.66-.162.962-.179a20.962 20.962 0 0 1 1.737 0c.406.017.804.114 1.203.098.458-.016.925-.106 1.383-.163.73-.081 1.459-.154 2.188-.251.82-.106 1.647-.227 2.467-.349a.362.362 0 0 0 .165-.057c.519-.333 1.105-.292 1.677-.389.624-.098 1.226-.422 1.82-.674.263-.114.503-.292.752-.438.03-.016.09-.008.105-.041.398-.568 1.113-.649 1.556-1.144.136-.146.256-.316.376-.479.076-.097.121-.251.211-.292.519-.227.594-.86.97-1.209a.305.305 0 0 0 .09-.162c.181-1.014.677-1.875 1.098-2.775a.677.677 0 0 0 .075-.293c.023-.714.338-1.257.797-1.736.136-.138.181-.39.256-.601.098-.267.18-.543.278-.803.053-.13.135-.243.196-.373.27-.544.533-1.096.812-1.639.21-.414.819-.706 1.255-.625.579.105.865.803.579 1.428-.165.349-.428.649-.376 1.087-.383.512-.564 1.161-.887 1.688-.233.382-.474.682-.526 1.185-.045.398-.309.811-.564 1.128-.196.243-.271.454-.309.763-.105.868-.33 1.696-.902 2.361-.12.146-.203.341-.286.519-.082.163-.127.349-.225.504-.226.365-.466.714-.699 1.071-.053.081-.113.178-.196.227-.722.414-1.278 1.071-1.94 1.566-.526.39-1.158.625-1.737.933a5.764 5.764 0 0 0-.293.179c-.354.227-.722.406-1.143.373-.436-.032-.85.033-1.226.3-.09.065-.218.138-.323.13-.857-.097-1.594.471-2.421.528-.324.024-.647.089-.978.113a47.28 47.28 0 0 1-1.857.114c-.406.016-.812-.016-1.218-.008-.384.008-.767.032-1.15.065-.234.016-.467.089-.685.065-.654-.082-1.3-.195-1.948-.309-.3-.048-.593-.138-1.022-.243-.083.105-.233.324-.406.511-.64.69-1.496.901-2.309 1.201a.133.133 0 0 1-.052.016c-1.12-.081-2.271.008-3.18-.982-.497-.535-.775-1.184-1.136-1.793-.038-.065-.045-.162-.06-.243-.068-.536-.136-1.072-.211-1.599a2.83 2.83 0 0 0-.113-.414c-.037-.122-.128-.227-.128-.349-.007-1.03-.293-2.061.03-3.092.249-.779.437-1.59.685-2.369.105-.333.248-.674.45-.933.332-.414.663-.869 1.257-.901a.846.846 0 0 0 .51-.227 2.524 2.524 0 0 1 1.527-.674c.474-.04.94-.243 1.429-.024.414.186.534.365.526.852 0 .341-.135.568-.443.641a26.5 26.5 0 0 1-1.361.3c-.376.081-.76.138-1.128.227a.514.514 0 0 0-.263.203c-.354.52-.692 1.039-1.03 1.566-.038.082-.068.179-.113.284ZM186.946 121.9c.075.917.165 1.826.233 2.743.038.56.045 1.12.068 1.671 0 .082.015.163.022.252.075.56.143 1.12.226 1.672.12.779.248 1.55.376 2.329.007.065.015.121.015.186.015.852.09 1.712.022 2.556-.067.812.083 1.615.015 2.427-.007.105-.022.235.023.308.368.495.586 1.144 1.218 1.38.158.056.316.162.444.276.21.202.376.462.248.77-.113.284-.361.431-.647.471-.654.106-1.451-.414-1.88-.982-.518-.69-.601-1.517-.804-2.304-.075-.293-.09-.65-.008-.934.218-.754-.037-1.485-.03-2.231 0-.414-.233-.82-.218-1.274.015-.641-.045-1.282-.09-1.915-.053-.771-.143-1.542-.203-2.305-.075-.998-.09-1.996-.361-2.97-.023-.081-.038-.178-.008-.243.166-.439-.007-.86-.045-1.291-.09-1.119-.15-2.231-.233-3.351-.022-.268-.067-.536-.098-.803-.075-.641-.142-1.282-.225-1.915-.113-.82-.248-1.64-.361-2.459-.105-.779-.188-1.558-.293-2.337-.03-.203-.143-.39-.181-.584-.143-.771-.346-1.542-.391-2.329-.045-.917-.301-1.778-.428-2.67-.181-1.25-.459-2.491-.662-3.741-.12-.755-.173-1.518-.271-2.272-.03-.244-.203-.495-.165-.714.128-.682-.248-1.274-.196-1.948a7.64 7.64 0 0 0-.09-1.988c-.135-.69-.045-1.371-.135-2.053-.015-.106-.045-.203-.045-.308.015-.3.218-.512.488-.52.271-.016.489.17.497.487.052 1.485.413 2.913.586 4.382.09.763.166 1.526.256 2.288.037.268.135.52.173.788.143.876.248 1.761.406 2.637.18 1.022.391 2.037.579 3.051.135.73.278 1.469.406 2.199a416 416 0 0 1 .729 4.423c.083.552.098 1.111.166 1.663.052.406.142.812.203 1.217.143.99.3 1.972.406 2.962.12 1.096.203 2.199.3 3.295-.022.008-.03.008-.037.008ZM195.653 139.144c-.376.511-.873.584-1.421.552-.346-.025-.692.016-1.038.016-1.113.008-1.797-.714-2.369-1.639-.075-.122-.173-.227-.233-.349-.113-.211-.135-.43.023-.641.158-.203.361-.276.571-.179.263.122.564.236.745.455.586.706 1.368.73 2.135.771.308.016.624-.163.94-.26.158-.195.301-.479.519-.592.225-.114.519-.049.789-.049.136 0 .279.024.399.073.617.243 1.105-.033 1.594-.406.271-.203.564-.357.902-.568 0-.251-.015-.56.008-.868.022-.309.068-.617.113-.925.007-.065.06-.13.045-.179-.143-.657.135-1.29.113-1.947-.008-.138.037-.284.075-.43.03-.138.098-.276.105-.422.053-.958.135-1.907.113-2.865-.023-.998.083-1.988.037-2.978-.037-.974-.09-1.956-.436-2.889-.21-.576-.27-1.201-.255-1.834.022-1.087-.023-2.166-.03-3.254 0-.349.052-.706.052-1.055 0-.665-.052-1.339-.037-2.004.037-1.737.09-4.999.142-6.735.008-.211.038-.43 0-.625-.112-.584.083-1.112.196-1.656.068-.324.301-.446.624-.381.293.057.421.227.406.576-.015.52-.068 1.031-.068 1.542.008.893.053 3.319.061 4.212 0 .535-.068 1.071-.068 1.606 0 .576.06 1.161.068 1.737 0 .454-.061.917-.053 1.371 0 .495.068.998.06 1.493-.007.958-.09 1.915-.06 2.865.015.576.09 1.185.293 1.704.346.868.399 1.777.444 2.686.083 1.818.128 3.635.15 5.453.008.665-.105 1.323-.158 1.988-.022.292-.037.584-.052.868-.008.106.015.22-.015.317-.256.933-.512 1.858-.767 2.791-.03.114-.03.236-.023.357.03.739-.406 1.518-1.023 1.818-.135.065-.285.138-.391.244-.225.227-.466.357-.782.332a.817.817 0 0 0-.338.057c-.887.382-1.233.357-2.105-.154Z"/><path fill="#333161" d="M209.24 137.959c-.052-.316-.127-.584-.12-.852 0-.324.06-.649.113-.974.023-.162.083-.316.128-.47.143-.528.534-.869 1.015-.877.225-.008.428.065.534.309.098.227.098.454-.083.633-.248.243-.346.535-.316.9.038.43.211.682.617.779.278.065.571.082.857.155.263.065.511.17.782.259-.053.163-.083.325-.15.455-.233.43-.534.771-1.053.738-.602-.032-1.188-.13-1.722-.454-.451.73-.88.844-1.684.665-1.136-.26-1.737-1.16-2.369-2.053-.105-.146-.188-.316-.293-.462-.376-.528-.579-1.12-.73-1.753-.165-.69-.007-1.372.226-1.94a6.247 6.247 0 0 0 .436-2.11c.008-.243.098-.478.143-.714.128-.657.338-1.29.323-1.98-.007-.3.143-.608.166-.917.067-.998.098-2.004.173-3.002.075-1.055.203-2.102.293-3.157.038-.414.03-.827.053-1.241.082-1.68-.218-3.368-.128-5.048.007-.138.075-.276.09-.422.09-.9.113-1.809.09-2.718-.007-.325.015-.657.023-.982.007-.738.007-1.485.022-2.223.015-.682.046-1.364.061-2.045 0-.081-.046-.155-.068-.211-.647 0-5.722.008-6.346 0-.188 0-.407.008-.564-.081a.638.638 0 0 1-.331-.674c.037-.284.18-.544.451-.592 1-.171 6.451-.219 7.429.17.143.057.256.179.406.292-.18.463-.165.909-.06 1.396.083.389.03.82.015 1.233-.015.52-.015 1.047-.075 1.558-.158 1.372.015 2.743-.075 4.115-.121 1.801.278 3.619.188 5.42-.076 1.583-.226 3.157-.324 4.731-.067 1.128-.105 2.256-.173 3.376a100.4 100.4 0 0 1-.218 2.994c-.03.284-.173.552-.225.836-.053.26-.143.56-.068.787.165.511 0 .909-.271 1.274-.376.511-.376 1.088-.308 1.672.023.227.203.438.331.649.263.43.541.852.812 1.282.451.714 1.113 1.096 1.977 1.274ZM3.218 69.121c.127-.884-.015-1.622-.046-2.369-.03-.722.046-1.444.076-2.167.007-.227.015-.454.03-.69.022-.649-.075-1.306.195-1.939.12-.292.106-.649.158-.982.12-.795.158-1.63.384-2.394.346-1.16.45-2.393.962-3.505.391-.852.745-1.729 1.008-2.638.278-.973.82-1.817 1.113-2.775.045-.146.173-.267.248-.414.195-.357.36-.738.564-1.087.579-.966 1.067-1.996 1.707-2.921.571-.82 1.135-1.631 1.857-2.313.09-.081.173-.178.278-.227.27-.13.571-.211.827 0 .24.203.12.495.09.763-.045.43-.376.665-.579.981-.225.357-.54.65-.759 1.015-.308.495-.572 1.038-.857 1.55-.136.251-.293.478-.444.73-.286.487-.586.966-.85 1.469-.15.284-.3.552-.383.892-.105.43-.384.812-.587 1.21-.082.162-.24.308-.27.478-.173.974-.842 1.737-1.03 2.695-.128.649-.376 1.25-.58 1.874-.232.722-.413 1.469-.6 2.215-.144.56-.264 1.128-.392 1.696-.105.463-.24.925-.293 1.404-.06.495-.038.998-.06 1.501-.008.228-.045.455-.068.682-.03.365-.068.73-.03 1.112a5.894 5.894 0 0 1-.06 1.542c-.098.568.015 1.111.075 1.655.053.527.248 1.039.233 1.59 0 .17.075.39.188.512.414.446.293 1.022.346 1.541.038.382-.33.633-.7.504-.526-.195-.947-.536-1.112-1.169-.083-.34-.24-.657-.354-.99-.12-.398-.218-.779-.285-1.03ZM16.444 115.992c.008-.032.015-.162.06-.275.068-.155.128-.374.249-.439.21-.113.413 0 .549.219.075.122.233.236.233.349-.008.439.233.788.323 1.177.218.958.632 1.818 1.03 2.686.24.536.399 1.112.61 1.664.12.308.277.592.398.9.18.455.323.925.526 1.372.33.722.714 1.42 1.045 2.142.564 1.233 1.316 2.337 2.068 3.433.3.438.624.843.917 1.282.12.178.18.405.279.608.09.179.188.357.285.528.158.284.376.543.459.852.15.592.459 1.079.7 1.615.308.698.88 1.087 1.27 1.663.18.268.354.568.587.771.376.341.774.682 1.218.917.503.276.79.779 1.21 1.144.166.146.106.698-.03.885-.173.235-.549.373-.79.203-.466-.317-1.082-.349-1.458-.852-.068-.09-.195-.122-.293-.171-.105-.049-.233-.065-.316-.138-.617-.56-1.248-1.112-1.82-1.72-.436-.463-.827-.99-1.195-1.518a3.251 3.251 0 0 1-.451-.925c-.211-.681-.745-1.225-.722-2.012.007-.203-.158-.414-.241-.625-.06-.154-.105-.308-.158-.463-.045-.129-.075-.284-.158-.389-1.105-1.388-1.94-2.962-2.662-4.601-.436-.99-.917-1.964-1.353-2.962-.196-.446-.3-.941-.474-1.396-.368-.974-.79-1.931-1.12-2.913-.294-.876-.504-1.785-.745-2.678-.045-.073-.03-.162-.03-.333ZM193.743 25.894c-.203.114-.369.211-.541.3-.677.358-1.339.057-1.557-.714-.045-.162-.098-.316-.135-.478a1.048 1.048 0 0 1 .248-.982c.24-.276.511-.244.699.089.105.187.188.39.323.665l.948-1.899c.135-.275.331-.527.413-.82.136-.47.203-.965.301-1.492-.383-.154-.639-.414-.692-.852-.082-.666.452-1.38 1.143-1.42.399-.025.812.032 1.203.138.512.13.662.649.384 1.128-.053.089-.113.17-.203.292.233.543.489 1.103.714 1.671.106.268.181.544.256.828.248.893.827 1.542 1.429 2.159.225.227.549.21.789 0 .075-.065.113-.17.181-.244.315-.349.872-.398 1.218-.105.331.276.383.9.128 1.314-.361.576-.888.787-1.497.82-.27.016-.541-.033-.842-.049-.038.17-.075.35-.105.528-.151.835-.248 1.696-.459 2.515-.18.698-.662 1.177-1.278 1.453a.862.862 0 0 1-.572.016c-.834-.26-1.428-.82-1.692-1.729-.12-.413-.248-.827-.353-1.25a57.114 57.114 0 0 0-.451-1.882Zm3.639-.373c-.443-.722-.797-1.298-1.15-1.883-.045-.08-.045-.203-.06-.3a2.429 2.429 0 0 0-.489-1.177c-.256.609-.519 1.201-.744 1.81-.098.252-.173.552-.143.82.135 1.136.541 2.19.857 3.27.113.381.361.722.571 1.136.143-.114.286-.162.339-.268.128-.276.255-.56.323-.86.196-.884.353-1.777.496-2.548ZM35.032 129.09c1.466.462 2.444 1.387 2.963 2.889.42 1.209.541 2.458.571 3.724.008.487-.195.933-.474 1.315-.165.227-.398.332-.669.195a.65.65 0 0 1-.338-.723c.195-.9.03-1.761-.113-2.653-.15-.99-.556-1.81-1.105-2.581-.196-.284-.459-.511-.647-.803-.173-.268-.33-.56-.398-.868-.053-.26-.158-.406-.361-.503-.384-.179-.098-.512-.256-.901-.248-.601-.556-1.185-.714-1.81-.143-.584-.474-1.095-.58-1.655-.195-1.031-.654-1.948-.887-2.954-.158-.665-.255-1.339-.413-2.004-.136-.585-.316-1.153-.451-1.737-.384-1.607-.79-3.205-1.008-4.853-.023-.186-.053-.381-.015-.559.053-.22.15-.439.406-.471.226-.033.429 0 .572.211.06.081.127.17.15.26.203.641.39 1.29.586 1.939.106.349.233.69.354 1.039.022.081.068.162.068.235-.038.893.315 1.688.548 2.516.173.616.376 1.217.564 1.825a.67.67 0 0 0 .068.171c.444.714.564 1.533.692 2.353.015.106.015.227.067.3.361.495.452 1.08.58 1.68.105.519.375.99.548 1.493.173.528.354 1.063.444 1.607.053.308-.564.649-.624.974-.015.113-.075.219-.128.349ZM31.25 29.74c-.459-.186-.97-.34-1.421-.6-.286-.17-.52-.479-.722-.779-.105-.146-.12-.39-.105-.592.015-.309.09-.609.142-.917.06-.357.166-.455.504-.455.331 0 .474.122.526.439.016.08 0 .17.008.251.045.633.406.998 1.008 1.047.188.016.376.049.609.081.082-.073.188-.235.323-.26.541-.105.872-.51 1.21-.917.09-.105.189-.219.241-.34.226-.593.489-1.128 1.188-1.177.218-.016.436-.162.654-.17.572 0 .775.486 1.06.925.474.73.963 1.493 1.873 1.688.075.016.15.04.226.032.473-.04.955-.09 1.489-.138 0-.26-.023-.544.007-.82.038-.34.278-.592.556-.633.309-.048.527.09.662.382.06.13.12.268.15.406.166.916-.225 1.833-1.022 2.207-.376.178-.827.17-1.24.235-.174.033-.347.04-.557.073-.06.13-.166.268-.18.414-.106.811-.7 1.266-1.129 1.842-.06.09-.203.106-.315.146-.444.154-.88.3-1.324.446-.075.025-.158.065-.225.05-.617-.13-1.294.023-1.858-.342-.338-.219-.616-.543-.91-.836-.33-.34-.661-.697-.97-1.063-.172-.17-.3-.397-.458-.624Zm1.744-.356c.188.292.294.519.451.697.233.268.467.585.767.723.55.26 1.15.308 1.752.316.143 0 .286-.081.422-.138.578-.268.812-.836 1.082-1.396-.15-.13-.27-.275-.428-.348-.782-.414-1.406-.99-1.7-1.907-.007-.017-.037-.017-.128-.05a5.353 5.353 0 0 1-2.218 2.103ZM36.077 126.201c-.571-1.169-.676-2.337-.383-3.563.067-.276.075-.568.082-.852.023-.649.211-1.257.384-1.874.188-.649.293-1.331.436-1.996.045-.22.105-.447.15-.666.196-.99.414-1.972.58-2.97.075-.471.067-.957.09-1.428.015-.357.007-.714.045-1.063.037-.349.24-.511.556-.503.331 0 .534.154.542.511.015.738.18 1.469.015 2.223-.09.414-.023.869-.045 1.307-.06 1.087-.188 2.158-.55 3.197-.187.552-.202 1.177-.33 1.761-.286 1.298-.534 2.589-.692 3.911-.053.414-.286.812-.459 1.21-.112.243-.263.486-.42.795ZM12.264 57.728c.06-.86.39-1.566.737-2.264.263-.527.518-1.063.842-1.55.323-.486.722-.908 1.082-1.363.128-.154.301-.284.384-.462.248-.544.64-.933 1.083-1.274.09-.073.203-.146.248-.252.203-.503.526-.86.985-1.095.188-.098.36-.26.489-.439.316-.422.744-.413 1.165-.397.301.016.482.251.384.56-.106.349-.286.673-.466.982-.188.308-.422.592-.64.876-.112.146-.218.317-.368.398-.406.219-.61.624-.865.981-.083.114-.15.26-.256.333-.616.455-1.06 1.088-1.533 1.68-.873 1.087-1.888 1.996-2.873 2.946-.12.138-.263.235-.398.34ZM56.868 74.956c.67.414.805.682.526 1.38-.248.608-.112 1.127.143 1.655.18.373.188.811-.007 1.047-.256.308-.61.357-1.008.113-.218-.13-.413-.308-.631-.446-.4-.276-.422-.755-.452-1.16-.045-.633-.12-1.299.166-1.907a20.6 20.6 0 0 0-.436-.439c-.21-.202-.376-.421-.339-.754a.218.218 0 0 0-.007-.122c-.534-1.29.278-2.061.955-2.88.037-.05.09-.106.135-.114.737-.122 1.481-.35 2.203.065.256.146.369.413.361.738-.007.333-.218.479-.466.56-.18.065-.376.09-.564.106-.135.008-.27-.025-.406-.025-.707 0-.857.292-.526.966.09.178.142.381.203.584.067.195.105.398.15.633ZM228.949 35.64c.27-.016.504-.057.714-.024.692.105 1.391.178 2.053.39.654.21 1.256.592 1.88.9.052.024.075.114.12.13.962.243 1.496 1.217 2.361 1.63.188.09.338.285.526.382.609.3 1.031.836 1.497 1.323.248.26.225.714-.015.966a.616.616 0 0 1-.85.056c-.707-.543-1.414-1.079-2.12-1.614-.609-.471-1.211-.95-1.82-1.412-.128-.098-.278-.155-.406-.236-.293-.178-.587-.373-.887-.543-.128-.074-.286-.098-.429-.163-.707-.34-1.406-.69-2.105-1.03-.264-.122-.444-.317-.519-.755ZM8.278 33.822c-.481.877-1.015 1.526-1.902 1.89-.94.39-1.812.99-2.715 1.494-.376.203-.774.365-1.135.584-.331.203-.617.495-.948.698a2.897 2.897 0 0 1-.842.357c-.285.073-.541-.057-.661-.365s-.106-.617.12-.876c.075-.09.165-.179.263-.244.73-.544 1.451-1.095 2.203-1.606.286-.195.632-.3.94-.455.421-.203.827-.446 1.263-.609.933-.357 1.813-.94 2.873-.762.15.024.323-.057.541-.106ZM105.443 26.284c-.88.056-1.406-.544-1.902-1.16a.807.807 0 0 1-.158-.764c.03-.113.06-.243.052-.365-.037-.486.106-.852.549-1.055.098-.048.181-.154.256-.243.489-.657 1.451-.828 2.12-.365.775.535 1.173 1.671.903 2.62a.725.725 0 0 1-.181.317c-.278.284-.541.593-.864.812-.218.138-.519.138-.775.203ZM141.784 32.743c.864-.154 1.579.146 2.248.495.669.34 1.286.811 1.917 1.242.632.421 1.271.843 1.888 1.298.383.284.744.6 1.09.933.226.203.263.674.12.925-.142.26-.534.43-.819.317a3.657 3.657 0 0 1-.722-.382 65.63 65.63 0 0 1-1.662-1.25c-.256-.194-.489-.421-.752-.592-.496-.325-1.007-.6-1.504-.925-.699-.454-1.323-.998-1.729-1.785-.023-.073-.038-.154-.075-.276ZM122.535 22.802a5.88 5.88 0 0 0 .03-.357c.068-.827.602-1.347 1.361-1.217.504.09 1.008.276 1.489.487.195.081.391.3.474.511.195.47.346.974.278 1.502-.03.235-.12.51-.271.657-.639.608-1.398.868-2.241.681-.511-.113-1.075-1.054-1.12-1.752-.007-.146 0-.293 0-.512ZM209.421 35.73c-.572.616-1.113 1.265-1.715 1.841-.864.828-1.767 1.59-2.654 2.394-.383.34-.722.747-1.135 1.039-.316.219-.692.373-1.061.454-.338.073-.563-.243-.451-.6.098-.3.248-.625.467-.836a67.787 67.787 0 0 1 2.353-2.191c.399-.357.782-.771 1.241-1.006.827-.43 1.594-1.039 2.556-1.12.113-.008.218-.065.324-.097.03.032.052.08.075.121ZM141.469 28.183c.293-.082.511-.203.722-.179a8.827 8.827 0 0 1 1.519.284c1.135.316 2.263.657 3.391 1.022.842.276 1.737.414 2.504.942.218.154.436.26.421.6-.008.292-.136.479-.406.52a1.243 1.243 0 0 1-.519-.017 44.66 44.66 0 0 1-1.767-.552c-.624-.21-1.241-.43-1.865-.64-1.045-.35-2.09-.69-3.128-1.047-.376-.138-.647-.422-.872-.933ZM7.023 28.726c-.677.43-1.03 1.12-1.797 1.145-.188.008-.414.04-.556.154-.346.292-.76.251-1.15.357-.437.113-.903.13-1.317.39-.368.226-.79.218-1.188.097C.421 30.69.241 29.944.7 29.48c.18-.179.421-.3.647-.381.436-.163.88-.276 1.323-.406.15-.049.316-.057.444-.138.421-.268.88-.276 1.346-.268.165 0 .338-.049.511-.081.406-.065.805-.073 1.188.138.241.13.49.219.865.381ZM61.877 28.686c.714-.228 1.368-.447 2.082-.374.233.025.49-.17.73-.138.699.073 1.413.025 2.105.284.466.17.978.195 1.444.35.36.121.7.332 1.022.56.211.145.249.616.143.876-.12.276-.323.405-.609.381a1.325 1.325 0 0 1-.398-.065 13.566 13.566 0 0 0-3.534-.787c-.677-.057-1.339-.357-2.008-.544-.113-.032-.226-.04-.338-.073-.241-.073-.504-.113-.64-.47ZM88.231 35.55c-.263.325-.421.569-.624.764-.602.576-1.203 1.16-1.85 1.68-.444.356-.955.616-1.436.916-.444.276-.902.536-1.338.836-.316.22-.647.276-.993.203-.308-.065-.526-.454-.406-.779.098-.276.256-.592.481-.747.519-.357 1.023-.746 1.542-1.087.82-.544 1.654-1.12 2.646-1.306.512-.098 1-.309 1.497-.455.105-.024.218-.008.481-.024ZM207.195 32.694c-.248.22-.406.414-.602.511-.549.276-1.113.528-1.684.763-.609.252-1.226.487-1.842.714-.233.09-.482.146-.715.228-.511.186-1.015.414-1.534.551a2.028 2.028 0 0 1-.962.008c-.421-.097-.489-.373-.286-.803.151-.316.399-.495.699-.616.512-.195 1.016-.39 1.519-.593 1.158-.462 2.361-.698 3.587-.779.459-.032.917-.065 1.376-.081.12 0 .233.049.444.097ZM60.124 33.32c.699 0 1.39-.009 2.09 0 .188 0 .384.032.572.08.804.211 1.511.674 2.285.982.376.146.737.333 1.098.52.52.267.692.73.459 1.217-.21.446-.677.592-1.15.373-.632-.3-1.256-.633-1.903-.876-1.038-.398-1.97-.982-2.842-1.705-.21-.17-.436-.316-.654-.47.015-.033.03-.081.045-.122ZM87.712 30.438c-.376.244-.737.512-1.128.739-.496.284-1 .535-1.511.787-.323.162-.662.3-1 .43-.692.26-1.376.544-2.083.755-.564.17-1.098.454-1.707.43-.256-.008-.466-.065-.556-.35-.09-.267.06-.462.248-.575.549-.333 1.098-.706 1.684-.942.556-.219 1.12-.413 1.677-.624.737-.285 1.481-.569 2.286-.6.496-.017.985-.155 1.481-.22.18-.024.369 0 .556 0 .023.057.038.114.053.17ZM207.473 19.02c-.188.025-.376.058-.571.066-.173.008-.361.049-.512-.016-.932-.382-1.857-.228-2.789-.025-.451.098-.903.163-1.361.008-.218-.073-.324-.219-.346-.446-.023-.21-.008-.406.218-.527 1.203-.658 2.429-1.136 3.812-.771.316.08.647.089.97.113.436.025.835.163 1.173.463.211.186.384.43.293.755-.067.26-.353.405-.714.413h-.173c.008-.008 0-.016 0-.032ZM190.104 19.378c.007.446-.211.706-.609.746-.519.057-1.038.203-1.542.163-.849-.073-1.624.178-2.413.438-.218.073-.459.09-.692.105-.331.025-.557-.137-.639-.421-.09-.333.007-.65.331-.763.338-.13.586-.495 1-.43.082.016.18-.13.278-.203.128-.09.241-.236.376-.268.586-.146 1.158-.398 1.789-.292.474.081.963.09 1.444.138.436.048.677.332.677.787ZM230.317 31.03c.195-.056.391-.153.594-.162.85-.032 1.692.017 2.534.195.481.098.992.106 1.481.049.301-.032.564-.057.842.057a.742.742 0 0 0 .399.032c.601-.097 1.143.138 1.684.365.399.17.564.512.466.885-.105.381-.458.552-.887.462-.601-.121-1.211-.21-1.812-.348-.579-.13-1.151-.333-1.73-.463-.849-.195-1.706-.349-2.556-.544-.346-.08-.684-.219-1.03-.324.007-.073.015-.138.015-.203ZM218.264 137.326c-.827 1.493-1.639 1.542-2.82 1.201-.165-.049-.323-.138-.496-.17-.271-.049-.451-.187-.602-.438-.15-.26-.361-.479-.526-.739-.323-.503-.135-1.809.338-2.085.226-.13.557-.073.835-.033.068.008.165.341.128.487-.226.844.068 1.104 1.007 1.315.707.162 1.399.3 2.136.462ZM226.189 58.345c0 .552-.173.933-.383.99-.248.073-.76-.284-.812-.665-.083-.593-.331-1.136-.316-1.761.007-.487-.158-.974-.248-1.46-.023-.122-.083-.252-.068-.366.09-.617-.037-1.233 0-1.85.015-.227.068-.455.135-.666.091-.26.279-.397.542-.373.248.024.308.244.338.447.098.592.173 1.184.248 1.785.136 1.07.256 2.142.391 3.213.045.284.136.56.173.706ZM113.986 35.583c-.181.114-.309.211-.452.268-.278.122-.541.065-.759-.146a.78.78 0 0 1-.196-.86c.188-.479.436-.925.685-1.38.173-.316.443-.446.789-.397.339.048.466.3.594.6.233.544.436 1.104.85 1.534.218.227.248.544.165.82a.617.617 0 0 1-.398.365c-.354.08-.692.016-.91-.374-.083-.154-.226-.276-.368-.43ZM33.806 137.732c.158-.219.286-.487.481-.665.316-.293.384-.601.203-.99-.082-.187-.188-.357-.27-.544-.166-.382-.068-.787.233-.998.308-.219.767-.146 1.007.146.655.779.677 2.215.256 2.986-.406.738-1.3.787-1.91.065ZM34.551 112.065c-.36-.089-.684-.146-.992-.252-.339-.113-.482-.389-.467-.771.023-.373.136-.568.512-.641.586-.121 1.173-.186 1.767-.251.143-.016.308.057.443.13.301.154.474.397.474.779 0 .373-.18.608-.474.706-.42.138-.857.211-1.263.3ZM33.302 136.539c-.263.666-.466 1.428-1.188 1.785-.361.179-.722.065-1.03-.17-.256-.203-.264-.503-.053-.763.09-.105.188-.211.308-.284.444-.268.527-.722.557-1.217.03-.511.135-.657.489-.706.368-.057.594.105.729.527.06.179.105.357.15.536.015.073.023.154.038.292ZM137.235 36.792c.624-.048 1.098.26 1.526.609.346.276.256.722.196 1.112-.045.3-.361.51-.715.527-.722.032-1.27-.308-1.661-.95-.181-.3-.234-.632-.053-.949.173-.276.428-.422.707-.349ZM91.149 40.363c-.7 0-1.023-.292-1.083-.86-.06-.568.188-.998.7-1.128.368-.098.736-.252 1.127-.065.459.219.624.397.61.795-.016.479-.294.982-.647 1.096-.264.089-.55.13-.707.162ZM189.961 43.633c-.263.698-.632.909-1.143.763-.511-.154-.79-.56-.707-1.12.053-.406.06-.828.369-1.152.353-.382.571-.47.909-.317.406.187.737.658.707 1.055-.03.309-.105.609-.135.771ZM192.773 43.933c-.241.633-.579.828-1.038.69-.466-.138-.714-.503-.639-1.014.053-.365.053-.755.331-1.047.323-.34.519-.43.827-.284.369.17.67.6.639.958-.022.275-.09.551-.12.697ZM86.224 111.448c0 .739-.173.909-.85.901-.669-.008-1.33-.739-1.285-1.404.03-.422.24-.714.586-.86.346-.146.692-.114.963.203.293.349.706.633.586 1.16ZM89.781 37.847c-.602.008-.917-.26-.993-.738-.067-.398.166-.78.587-.95.406-.17.79-.413 1.263-.34.293.048.542.137.632.446.09.308.083.617-.18.86-.414.39-.888.65-1.309.722ZM88.736 35.462c-.662-.017-.986-.3-1-.86-.016-.43.255-.698.533-.828.474-.211.993-.35 1.497.008.308.219.383.479.233.852-.196.479-.737.836-1.263.828ZM134.122 39.178c.73-.04 1.203.698 1.324 1.258.135.625-.399 1.095-.963.925-.639-.195-1.053-.836-1-1.558.03-.446.211-.625.639-.625ZM38.693 133.456c-.052-.358.083-.69.316-.99.196-.26.466-.309.737-.244.278.065.466.276.541.584.106.463.016.909-.157 1.331-.143.333-.504.471-.895.39-.3-.065-.504-.333-.526-.714-.023-.106-.016-.211-.016-.357ZM134.686 62.492c-.594-.008-.872-.333-.85-.982.015-.568.354-.909.888-.9.563.007 1.09.486 1.09.981-.008.463-.557.909-1.128.9ZM92.126 59.546c.564 0 .925.365.925.933 0 .6-.369.998-.948 1.007-.533.008-.91-.39-.917-.958 0-.633.33-.982.94-.982ZM95.195 60.853c-.008.649-.316 1.046-.835.99a.92.92 0 0 1-.541-.284c-.399-.422-.158-1.477.36-1.688.587-.227 1.023.186 1.016.982ZM15.46 42.692c-.474.016-.783-.463-.602-.942.09-.243.226-.478.36-.697.144-.236.542-.325.85-.228.241.073.437.365.444.666.023.551-.534 1.193-1.053 1.2ZM135.032 57.76c.007.536-.241.82-.722.837-.587.016-1.015-.382-1.023-.934 0-.446.301-.754.745-.754.616 0 .992.324 1 .852ZM225.873 61.413c.03-.593.256-.836.737-.812.421.025.722.446.692.974-.023.462-.353.763-.782.714-.406-.04-.677-.398-.647-.876ZM18.46 44.469c-.369.008-.655-.292-.662-.706-.015-.487.42-.925.917-.917.354 0 .587.243.594.609.008.495-.428 1.014-.85 1.014ZM135.852 64.52c.007.398-.339.73-.767.739-.391.008-.745-.373-.745-.787 0-.463.301-.771.737-.771.421 0 .767.365.775.82ZM220.978 28.742c.316-.016.489.138.504.455.015.356-.15.559-.466.567-.293.008-.459-.17-.474-.494-.022-.325.136-.511.436-.527ZM221.361 31.68c-.263.007-.488-.228-.488-.503 0-.317.18-.503.466-.503.27 0 .473.235.466.519 0 .235-.226.486-.444.486ZM215.609 31.68c.015.26-.233.535-.466.543a.482.482 0 0 1-.474-.446c-.022-.308.151-.543.422-.568.248-.024.503.203.518.47ZM214.196 29.408c.278 0 .398.146.398.463 0 .308-.135.446-.428.43-.279-.016-.452-.178-.459-.438-.015-.276.188-.463.489-.455ZM41.98 46.782h1.083c.022-.439.06-.86.052-1.29-.007-.463.196-.747.587-.755.421-.009.654.292.647.762-.015.658-.03 1.323.18 1.956.06.17.045.365.045.552.008.454.023.909.008 1.363a13.54 13.54 0 0 1-.075 1.112c-.03.292-.188.446-.467.446-.3.008-.466-.154-.519-.47-.022-.122-.067-.244-.082-.366-.09-.527-.173-1.047-.264-1.566H42.16c-.015.455-.082.852.06 1.266.113.325.098.65-.075.966-.112.203-.24.308-.458.3-.233-.008-.421-.073-.497-.34-.037-.139-.112-.293-.09-.423.105-.64-.105-1.233-.158-1.85-.09-.99-.12-1.98-.158-2.97-.015-.414.21-.682.512-.706.33-.024.586.252.609.682.015.267-.008.543.007.82.008.178.045.34.068.51ZM47.846 49.403c-.376-.033-.7-.057-1.105-.09-.053.236-.136.48-.166.739-.053.39-.203.722-.519.925-.135.09-.353.203-.45.146-.144-.081-.28-.308-.294-.479-.03-.39-.008-.795.045-1.184a8.776 8.776 0 0 1 .444-1.794c.323-.884.533-1.81.804-2.71.053-.17.158-.341.278-.455.241-.227.49-.17.7.098.323.422.45.957.586 1.46.218.836.354 1.696.55 2.54.067.276.217.528.33.788.075.17.15.34.218.51.18.48.075.853-.263 1.007-.361.162-.827-.09-.955-.552-.098-.308-.143-.64-.203-.95Zm-.624-1.712c.323-.05.346-.05.323-.203-.038-.244-.098-.48-.15-.715-.03.009-.06.017-.098.025-.023.284-.045.568-.075.892ZM55.041 43.77c1.045 0 1.933 1.275 1.64 2.403-.12.47-.294.909-.662 1.225-.264.227-.557.373-.91.333-.278-.032-.391.097-.474.398-.21.787-.038 1.566-.023 2.353 0 .122.06.268.016.373-.053.13-.166.3-.279.325-.12.024-.308-.057-.39-.163-.09-.113-.113-.308-.129-.47-.09-1.185-.188-2.37-.233-3.554-.037-.853-.007-1.713.015-2.565.008-.138.106-.365.211-.397.391-.122.79-.17 1.218-.26Zm-.316 1.21c.023.34.045.6.068.893.316-.106.579-.187.857-.284-.128-.495-.489-.528-.925-.609ZM50.86 47.61c.038.25.084.494.114.738.09.633.18 1.266.255 1.907.03.308-.15.511-.398.625a.526.526 0 0 1-.64-.155c-.105-.13-.195-.332-.188-.495.03-.495.113-.981.166-1.476.03-.309.045-.625.03-.934-.023-.495-.113-.99-.12-1.485-.008-.454.067-.9-.105-1.355-.076-.195-.03-.462.03-.673.045-.154.21-.398.315-.39.504.016 1.03-.203 1.52.17.608.471.872 1.275.676 2.102-.173.747-.714 1.03-1.278 1.315-.106.024-.218.049-.376.105Zm.053-1.705c.399.025.429-.3.594-.6-.165-.09-.338-.252-.428-.211-.339.178-.18.503-.166.811ZM58.5 46.668c-.526-.398-.677-1.136-.842-1.858-.023-.098-.038-.228 0-.309.075-.178.188-.47.293-.478.18-.009.436.121.526.283.226.398.376.845.58 1.331.075-.08.165-.162.24-.26.263-.332.519-.665.774-.997.15-.203.369-.195.52-.065.105.089.202.34.165.47-.241.755-.459 1.518-.948 2.167-.195.252-.225.69-.248 1.047-.045.746-.083 1.485.143 2.223.15.487-.12.925-.534.99-.451.073-.774-.203-.774-.755 0-.762.067-1.525.105-2.288.007-.122.007-.235.007-.357-.007-.357-.007-.706-.007-1.144ZM63.621 47.171c.278.382.504.722.76 1.03.293.35.39.747.36 1.21-.09 1.436-.751 2.507-1.827 3.294-.639.471-1.368.544-2.113.293-.12-.041-.285-.195-.3-.309-.03-.251.203-.26.368-.292a.846.846 0 0 1 .286 0c.767.154 1.338-.235 1.842-.779.15-.162.27-.357.421-.52.466-.502.496-1.16.489-1.8-.008-.439-.308-.747-.587-1.04-.067-.073-.15-.13-.225-.194-.218-.17-.27-.414-.18-.666.075-.235.278-.267.48-.251l.226.024ZM47.604 56.17c.12.04.263.05.36.122.144.097.264.243.392.373 1.09 1.04 2.534 1.104 3.707.35.564-.366.97-.885 1.36-1.42.061-.082.091-.187.121-.285.023-.08-.007-.195.03-.243.128-.17.263-.35.436-.455.068-.048.271.04.346.13a.635.635 0 0 1 .075.706c-.586 1.12-1.368 2.061-2.496 2.5-1.075.413-2.196.51-3.226-.228a7.702 7.702 0 0 1-.985-.835c-.128-.139-.165-.374-.248-.569.038-.056.083-.097.128-.146ZM44.288 55.74c0 .625-.15.82-.676 1.063-.843.39-1.715.463-2.602.284-.805-.162-1.399-.722-1.684-1.485-.474-1.282-.414-2.613.09-3.903.015-.04.09-.065.135-.09.196.106.158.269.105.43-.21.682-.248 1.372-.195 2.086.06.836.406 1.502 1 2.03.075.064.158.145.24.161.76.13 1.527.284 2.264-.154.286-.17.586-.3.895-.422.112-.04.255 0 .428 0ZM39.589 44.777c-.12.081-.256.252-.368.244-.572-.057-.85.43-1.128.77-.594.747-.843 1.648-.467 2.613.249.641.557 1.25 1.324 1.283a.43.43 0 0 1 .165.048c.158.098.324.227.226.438-.053.114-.233.244-.354.236-.541-.017-1.03-.227-1.376-.674-1.323-1.712-.962-3.773.632-5.08.226-.186.572-.243.865-.276.15-.016.323.138.481.212.008.064 0 .121 0 .186ZM54.192 37.985c1.127.017 1.85.382 2.496.933.3.252.534.593.797.893.173.203.18.438.105.698-.12.398-.428.487-.684.17-.098-.121-.15-.276-.21-.43-.158-.39-.324-.754-.737-.9-.106-.041-.203-.122-.294-.195-.684-.536-1.398-.625-2.165-.22a6.771 6.771 0 0 1-.857.374c-.106.04-.294.024-.354-.049-.067-.08-.06-.276-.022-.39.045-.13.15-.275.263-.316.639-.235 1.278-.438 1.662-.568ZM55.297 55.107c.36-.138.526.098.73.244.3.227.578.454.984.479.85.048 1.459-.382 1.715-1.25.067-.235.158-.463.263-.69.098-.219.278-.284.489-.219.225.073.203.284.18.47-.015.187-.083.358-.113.544-.203 1.08-.895 1.59-1.827 1.818-.925.22-1.662-.178-2.27-.884-.106-.122-.106-.341-.151-.512ZM45.98 38.797c-.15-.374-.097-.576.046-.82.443-.77 1.12-1.022 1.894-1.12 1.038-.13 1.948.195 2.745.877.128.113.196.34.24.527.046.195-.007.39-.21.463-.195.065-.376.032-.519-.17-.511-.731-1.263-.999-2.037-1.137-.805-.138-1.497.114-1.895.966-.045.122-.136.219-.264.414ZM40.852 42.083c.06-.487.053-.966.189-1.388.188-.592.594-1.022 1.18-1.168.519-.122 1.053-.195 1.58-.276.104-.016.232.024.337.073.234.105.331.381.241.625-.098.268-.33.243-.496.162-.64-.324-1.196-.081-1.76.227-.3.163-.466.43-.511.78-.053.365-.09.738-.128 1.111-.015.106-.007.227-.053.3-.052.09-.165.203-.248.203-.082 0-.21-.105-.248-.194-.067-.147-.06-.317-.083-.455ZM59.779 40.858c.428 0 .812-.033 1.195.008 1.098.122 2.09 1.655 1.813 2.808-.03.121-.196.251-.316.276-.075.016-.233-.138-.271-.244-.12-.39-.173-.811-.316-1.185-.33-.868-.737-1.12-1.609-1.087-.444.016-.489-.032-.496-.576Z"/></svg>