<svg width="56" height="56" viewBox="0 0 56 56" fill="none" xmlns="http://www.w3.org/2000/svg">
<path d="M31.4929 31.1589L31.1577 23.6091L23.6077 23.942L23.6788 25.5227L28.5001 25.3093L23.111 31.1974L24.3098 32.2946L29.6989 26.4064L29.9122 31.2277L31.4929 31.1589ZM38.3422 37.421C36.9766 38.913 35.4101 40.0566 33.6425 40.8517C31.8742 41.6462 30.0599 42.0849 28.1995 42.168C26.3391 42.2511 24.494 41.9758 22.664 41.3422C20.834 40.7085 19.1726 39.7086 17.6798 38.3423C16.187 36.976 15.0438 35.409 14.2501 33.6415C13.455 31.8739 13.0151 30.0608 12.9306 28.202C12.846 26.3433 13.1217 24.4977 13.7575 22.6653C14.3934 20.8329 15.3937 19.1711 16.7585 17.6799C18.1234 16.1887 19.6903 15.0455 21.4593 14.2503C23.2269 13.4551 25.0404 13.0156 26.9 12.9318C28.7595 12.848 30.6051 13.1236 32.4367 13.7587C34.2683 14.3938 35.9297 15.3938 37.4209 16.7586C38.9121 18.1235 40.0557 19.69 40.8516 21.4583C41.6476 23.2265 42.0864 25.0408 42.1679 26.9013C42.2495 28.7617 41.9742 30.6069 41.3421 32.4368C40.7099 34.2667 39.71 35.9281 38.3422 37.421Z" fill="#9DD8BE"/>
</svg>
