<svg width="89" height="89" viewBox="0 0 89 89" fill="none" xmlns="http://www.w3.org/2000/svg">
<circle cx="44.3947" cy="44.3947" r="44.3947" fill="#E59D6B"/>
<g clip-path="url(#clip0_99_99)">
<rect width="54.8877" height="54.8877" transform="translate(16.6514 16.6514)" fill="#E59D6B"/>
<path d="M37.1696 34.2463C40.2872 33.1781 41.9495 29.7847 40.8812 26.6671C39.8143 23.5506 36.4216 21.8868 33.3035 22.9552C30.1858 24.0225 28.5235 27.4156 29.5908 30.5333C30.6587 33.6518 34.0515 35.3127 37.1696 34.2463Z" fill="white"/>
<path d="M27.6282 43.5343V43.5354C29.4192 40.7679 28.6269 37.0725 25.8611 35.2823C23.0942 33.4929 19.3997 34.2836 17.6089 37.0499V37.051C15.8191 39.8174 16.6112 43.5119 19.3772 45.3011C22.144 47.0923 25.8379 46.3008 27.6282 43.5343Z" fill="white"/>
<path d="M51.0206 34.2462C54.1387 35.3127 57.5315 33.6518 58.5993 30.5332C59.6666 27.4156 58.0044 24.0223 54.8868 22.955C51.7687 21.8866 48.376 23.5505 47.3091 26.667C46.2408 29.7847 47.9031 33.1781 51.0206 34.2462Z" fill="white"/>
<path d="M44.095 37.1795C34.6637 37.1795 24.2573 50.2385 27.2699 59.5305C30.1786 68.5016 39.266 64.8043 44.095 64.8043C48.9239 64.8043 58.0113 68.5016 60.9199 59.5305C63.9326 50.2385 53.5262 37.1795 44.095 37.1795Z" fill="white"/>
<path d="M70.5811 37.0509V37.0498C68.7903 34.2834 65.096 33.4928 62.3291 35.2821C59.5631 37.0724 58.771 40.7678 60.5617 43.5352V43.5342C62.352 46.3006 66.046 47.0922 68.8129 45.301C71.5787 43.5118 72.371 39.8173 70.5811 37.0509Z" fill="white"/>
</g>
<defs>
<clipPath id="clip0_99_99">
<rect width="54.8877" height="54.8877" fill="white" transform="translate(16.6514 16.6514)"/>
</clipPath>
</defs>
</svg>
