<svg width="89" height="89" viewBox="0 0 89 89" fill="none" xmlns="http://www.w3.org/2000/svg">
<circle cx="44.3947" cy="44.3947" r="44.3947" fill="white"/>
<g clip-path="url(#clip0_48_65)">
<rect width="54.8877" height="54.8877" transform="translate(17 17)" fill="white"/>
<path d="M37.5187 34.5947C40.6363 33.5265 42.2986 30.1332 41.2303 27.0156C40.1634 23.899 36.7707 22.2352 33.6526 23.3036C30.5349 24.3709 28.8726 27.7641 29.9399 30.8818C31.0078 34.0003 34.4006 35.6612 37.5187 34.5947Z" fill="#9DD8BE"/>
<path d="M27.9769 43.883V43.884C29.7678 41.1166 28.9756 37.4212 26.2097 35.6309C23.4428 33.8416 19.7483 34.6322 17.9575 37.3986V37.3997C16.1677 40.166 16.9599 43.8606 19.7258 45.6498C22.4926 47.441 26.1866 46.6494 27.9769 43.883Z" fill="#9DD8BE"/>
<path d="M51.3693 34.5948C54.4874 35.6613 57.8801 34.0004 58.948 30.8817C60.0153 27.7642 58.353 24.3709 55.2354 23.3036C52.1173 22.2352 48.7246 23.8991 47.6577 27.0156C46.5894 30.1333 48.2517 33.5266 51.3693 34.5948Z" fill="#9DD8BE"/>
<path d="M42.7034 40.3486C33.2721 40.3486 22.8657 53.4076 25.8783 62.6996C28.787 71.6708 37.8744 67.9735 42.7034 67.9735C47.5323 67.9735 56.6197 71.6708 59.5283 62.6996C62.541 53.4076 52.1346 40.3486 42.7034 40.3486Z" fill="#9DD8BE"/>
<path d="M70.9302 37.3997V37.3986C69.1394 34.6322 65.4451 33.8416 62.6782 35.6309C59.9123 37.4212 59.1201 41.1166 60.9108 43.884V43.883C62.7011 46.6494 66.3951 47.441 69.162 45.6498C71.9278 43.8606 72.7201 40.1662 70.9302 37.3997Z" fill="#9DD8BE"/>
</g>
<defs>
<clipPath id="clip0_48_65">
<rect width="54.8877" height="54.8877" fill="white" transform="translate(17 17)"/>
</clipPath>
</defs>
</svg>
