<svg width="89" height="89" viewBox="0 0 89 89" fill="none" xmlns="http://www.w3.org/2000/svg">
<rect width="89" height="89" rx="44.3947" fill="#8CD3B4"/>
<g clip-path="url(#clip0_84_11)">
<rect width="54.8877" height="54.8877" transform="translate(17.0562 17)" fill="#8CD3B4"/>
<path d="M37.5749 34.5948C40.6924 33.5267 42.3547 30.1333 41.2865 27.0157C40.2196 23.8991 36.8268 22.2353 33.7087 23.3037C30.5911 24.371 28.9288 27.7642 29.9961 30.8819C31.0639 34.0004 34.4568 35.6613 37.5749 34.5948Z" fill="white"/>
<path d="M28.033 43.8829V43.884C29.8239 41.1165 29.0317 37.4211 26.2659 35.6309C23.499 33.8415 19.8045 34.6322 18.0136 37.3985V37.3996C16.2239 40.166 17.016 43.8605 19.782 45.6497C22.5487 47.4409 26.2427 46.6494 28.033 43.8829Z" fill="white"/>
<path d="M51.4254 34.5948C54.5435 35.6613 57.9363 34.0004 59.0041 30.8818C60.0714 27.7642 58.4091 24.3709 55.2916 23.3036C52.1735 22.2352 48.7807 23.8991 47.7139 27.0156C46.6456 30.1333 48.3079 33.5267 51.4254 34.5948Z" fill="white"/>
<path d="M44.5002 37.5281C35.069 37.5281 24.6626 50.5871 27.6752 59.8791C30.5838 68.8502 39.6713 65.1529 44.5002 65.1529C49.3292 65.1529 58.4165 68.8502 61.3252 59.8791C64.3379 50.5871 53.9315 37.5281 44.5002 37.5281Z" fill="white"/>
<path d="M70.9864 37.3995V37.3984C69.1955 34.632 65.5012 33.8414 62.7343 35.6307C59.9684 37.421 59.1763 41.1164 60.967 43.8838V43.8828C62.7573 46.6492 66.4513 47.4408 69.2182 45.6496C71.984 43.8604 72.7762 40.1659 70.9864 37.3995Z" fill="white"/>
</g>
<defs>
<clipPath id="clip0_84_11">
<rect width="54.8877" height="54.8877" fill="white" transform="translate(17.0562 17)"/>
</clipPath>
</defs>
</svg>
