<svg width="578" height="128" viewBox="0 0 578 128" fill="none" xmlns="http://www.w3.org/2000/svg">
<path d="M434.445 125.852C447.926 120.229 454.641 102.674 449.443 86.6523C448.515 84.0214 443.161 67.6111 428.375 50.6901C420.984 42.3 411.057 33.9059 398.536 28.1868C386.028 22.4374 371.073 19.5532 354.594 21.1289C334.575 23.0125 312.407 31.0773 287.492 46.9545C270.695 57.6675 252.346 63.5445 233.79 65.2729C202.407 68.2862 170.484 58.8813 147.309 42.5697C135.711 34.4812 126.371 24.7931 119.985 14.8008C117.366 10.6962 115.35 6.57771 113.668 2.44564L120.972 3.20561C141.824 1.18321 163.103 -6.61664 181.113 -21.3585C238.108 -67.9618 337.253 -132.342 337.253 -132.342L343.023 -135.103C356.536 -93.4449 379.574 -53.1996 420.212 -35.7681C528.761 10.8159 589.519 -111.362 589.519 -111.362C589.519 -111.362 654.895 -155.254 650.503 -173.727C646.107 -192.218 597.29 -228.615 597.29 -228.615L594.091 -262.96L590.892 -297.304C590.892 -297.304 632.148 -342.08 633.054 -361.055C633.958 -380.041 561.601 -411.085 561.601 -411.085C561.601 -411.085 479.323 -519.95 381.245 -454.12C346.414 -430.747 330.902 -390.1 324.638 -348.896L312.406 -352.055C312.406 -352.055 208.222 -388.818 143.598 -424.115C78.9833 -459.402 -5.01084 -420.589 0.233665 -364.284C4.19673 -321.736 10.8763 -250.024 13.909 -217.465C14.8896 -206.937 15.4909 -200.482 15.4909 -200.482C18.5225 -167.934 25.2031 -96.2103 29.1661 -53.6641C30.8677 -35.3947 41.5546 -20.77 57.0325 -10.8177C59.1767 12.0299 67.1435 33.1088 78.5375 50.8293C95.7485 77.5582 120.344 97.4801 148.215 110.504C176.132 123.464 207.607 129.519 239.501 126.581C264.592 124.244 289.958 116.223 313.511 101.218C333.734 88.3238 349.189 83.4518 360.306 82.4367C369.528 81.6185 375.873 83.1712 380.863 85.4136C384.593 87.1298 387.616 89.334 390.219 91.7989C394.105 95.4723 396.998 99.8528 398.758 103.162C399.645 104.801 400.23 106.134 400.54 106.89L400.787 107.521L400.82 107.508C406.182 123.191 421.113 131.411 434.445 125.852Z" fill="#F1ECEA"/>
</svg>
