<svg width="1920" height="400" viewBox="0 0 1920 400" fill="none" xmlns="http://www.w3.org/2000/svg">
<path fill-rule="evenodd" clip-rule="evenodd" d="M-222 0L-132.375 38.7963C-42.75 77.5926 136.5 155.185 315.75 170.704C495 186.222 674.25 139.667 853.5 108.63C1032.75 77.5926 1212 62.0741 1391.25 77.5926C1570.5 93.1111 1749.75 139.667 1839.38 162.944L1929 186.222V419H1839.38C1749.75 419 1570.5 419 1391.25 419C1212 419 1032.75 419 853.5 419C674.25 419 495 419 315.75 419C136.5 419 -42.75 419 -132.375 419H-222V0Z" fill="#9DD8BE"/>
</svg>
