<svg width="121" height="324" viewBox="0 0 121 324" fill="none" xmlns="http://www.w3.org/2000/svg">
<g opacity="0.85">
<path d="M36.6763 159.442C36.6763 159.442 33.7881 152.322 31.8627 150.21C29.9372 148.097 31.2209 148.645 29.5361 150.523C27.7711 152.322 25.3642 159.442 25.3642 159.442C25.3642 159.442 20.2297 163.432 17.5822 166.797C14.9347 170.083 14.2126 176.968 14.2126 181.193C14.2126 185.418 17.1008 190.425 20.3099 193.477C23.519 196.528 27.3699 197.936 27.3699 197.936C27.3699 197.936 25.6852 203.648 24.4817 204.587C23.2783 205.525 19.9088 212.176 18.6251 214.993C17.4217 217.809 11.5651 234.396 9.88032 237.447C8.19554 240.499 3.30166 250.905 2.33893 253.33C1.3762 255.677 1.3762 257.79 2.8203 259.981C4.2644 262.093 7.15258 264.206 9.88032 263.971C12.5278 263.736 15.7369 260.685 16.9403 258.025C18.1438 255.443 22.797 249.966 22.797 249.966C22.797 249.966 24.0004 257.79 25.4445 261.545C26.8886 265.301 30.0174 270.308 31.0604 271.717C32.0231 273.125 32.2638 274.064 32.2638 274.064C32.2638 274.064 26.4072 291.59 24.7224 294.876C23.0376 298.162 18.3844 310.993 17.9031 312.401C17.4217 313.81 15.2556 316.626 15.2556 316.626C15.2556 316.626 14.0522 320.851 17.181 322.338C20.3099 323.746 29.0547 322.573 30.0174 321.634C30.9802 320.695 34.8311 318.113 34.8311 318.113L78.4749 317.878C78.4749 317.878 82.0852 316 83.0479 313.653C84.0106 311.306 85.214 305.125 84.0106 301.604C82.8072 298.083 79.5981 291.902 79.2772 290.338C78.9563 288.773 69.9708 271.795 69.9708 271.795C69.9708 271.795 71.8962 266.083 72.859 263.501C73.8217 260.919 75.2658 257.32 75.2658 257.32C75.2658 257.32 83.7699 257.086 86.8988 257.79C90.0277 258.494 93.9588 260.841 96.6063 264.206C99.2539 267.492 102.463 273.673 104.148 275.081C105.833 276.489 109.282 278.836 113.374 278.602C117.466 278.367 119.953 277.193 119.953 275.316C119.953 273.438 117.786 273.203 115.861 271.56C113.935 269.917 109.764 268.978 108.56 266.866C107.357 264.753 104.469 260.919 101.982 258.572C99.5748 256.225 93.4775 252.157 91.552 251.452C89.6265 250.748 84.7327 250.279 82.0851 250.514C79.4376 250.748 77.7529 250.279 77.7529 250.279L76.5494 247.932C76.5494 247.932 79.4376 242.924 80.4004 240.108C81.3631 237.291 81.3631 233.692 80.8817 231.11C80.4004 228.528 76.7901 218.357 75.5065 215.931C74.3031 213.584 70.6928 205.995 69.1685 204.821C67.7244 203.648 64.5955 201.301 62.8305 199.814C61.1457 198.406 58.9796 197.232 58.9796 197.232C58.9796 197.232 66.7617 195.354 68.2058 192.772C69.6499 190.19 70.8533 187.296 71.094 183.54C71.3347 179.785 70.8533 175.012 68.9278 171.256C67.0024 167.501 65.0769 166.014 64.1142 165.31C63.1514 164.606 61.4667 162.963 61.4667 162.963C61.4667 162.963 59.0598 153.731 57.8564 151.853C56.653 149.975 55.4496 147.628 55.4496 147.628C55.4496 147.628 51.1173 152.87 49.593 155.452C48.1489 158.034 45.5014 160.459 45.5014 160.459L36.6763 159.442Z" fill="#FFF9DF"/>
<path d="M41.0086 271.012C41.0086 271.012 37.0774 270.308 35.2322 273.281C33.387 276.254 34.7508 280.323 34.2695 282.357C33.7881 284.391 33.7881 315.374 33.7881 315.374C33.7881 315.374 34.7508 320.147 36.9972 320.773C39.3238 321.477 58.8191 320.773 58.8191 320.773L76.9505 319.678C76.9505 319.678 80.641 319.443 80.8817 316.939C81.1224 314.436 80.8817 308.802 80.8817 307.237C80.8817 305.673 80.4003 274.69 80.4003 274.69C80.4003 274.69 79.6783 271.091 77.3517 270.856C75.0251 270.621 59.7016 270.621 59.7016 270.621L41.0086 271.012Z" fill="#DFCD50"/>
<path d="M53.0426 258.338H49.8335V269.839H53.0426V258.338Z" fill="#D8D4DF"/>
<path d="M66.6813 258.338H63.4722V269.839H66.6813V258.338Z" fill="#D8D4DF"/>
<path d="M49.0307 253.095C49.0307 253.095 47.5866 253.8 48.3086 255.912C49.0307 258.025 50.9561 258.259 52.8816 258.025C54.8071 257.79 67.9644 258.259 67.9644 258.259C67.9644 258.259 69.6492 257.086 69.8898 255.912C70.1305 254.738 68.9271 253.095 68.9271 253.095C68.9271 253.095 61.3857 255.208 59.7009 254.738C58.0162 254.269 56.0907 253.565 54.3257 253.095C52.6409 252.626 49.0307 253.095 49.0307 253.095Z" fill="#6A727F"/>
<path d="M60.4236 198.014C60.4236 198.014 55.8506 201.77 55.289 207.012C54.8077 212.254 54.8076 213.662 56.0111 216.01C57.2145 218.357 58.8993 221.017 58.8993 221.017C58.8993 221.017 58.8993 214.601 59.862 210.611C60.8247 206.621 62.7502 199.97 62.7502 199.97L60.4236 198.014Z" fill="#E8A271"/>
<path d="M25.2843 202.709C25.2843 202.709 25.525 207.951 25.0436 211.002C24.5623 214.054 22.6368 221.408 22.6368 221.408C22.6368 221.408 20.23 219.061 19.9893 215.931C19.7486 212.88 19.9893 210.689 19.9893 210.689L25.2843 202.709Z" fill="#E8A271"/>
<path d="M67.7241 203.413C67.7241 203.413 72.0564 208.42 73.5807 211.237C75.0248 214.054 76.9503 219.53 78.1537 222.347C79.3571 225.164 81.5233 233.692 81.5233 233.692C81.5233 233.692 85.6149 228.685 84.6521 223.286C83.6894 217.809 81.7639 216.87 80.3198 213.584C78.8758 210.298 78.1537 206.464 76.9503 205.056C75.7469 203.648 73.3401 202.944 72.3773 203.178C71.3344 203.413 67.7241 203.413 67.7241 203.413Z" fill="#E8A271"/>
<path d="M63.3117 201.066C62.9105 201.848 62.5896 202.396 62.4292 203.022C61.9478 204.587 61.3862 206.151 61.306 207.794C61.2258 209.046 60.9851 210.376 60.8246 211.628C60.7444 212.645 60.7444 213.662 60.7444 214.68C60.7444 215.775 60.6642 216.87 60.7444 218.044C60.8246 218.983 61.0653 219.922 61.306 220.86C61.306 221.017 61.4664 221.173 61.5467 221.252C62.5094 222.191 63.1512 223.286 63.6326 224.538C64.0337 225.477 64.5151 226.416 64.7558 227.433C64.9965 228.45 64.9162 229.623 65.0767 230.719C65.3174 232.205 64.836 233.614 64.3546 234.944C64.0337 235.804 64.0337 236.821 63.2314 237.604C62.9105 237.839 62.9105 238.386 62.7501 238.777C62.1083 239.951 61.0653 240.812 59.9421 241.594C58.8189 242.376 57.4551 242.924 56.3319 243.785C54.968 244.802 53.2832 245.35 52.1601 246.758C51.9194 247.149 51.3578 247.306 50.8764 247.54C50.2346 247.853 49.5125 248.088 48.951 248.479C48.7905 248.557 48.5498 248.792 48.5498 249.027C48.3894 249.731 48.1487 250.435 48.5498 251.139C48.7905 251.531 48.3894 251.765 48.0684 251.844C47.1859 252.078 46.4639 251.531 46.3034 250.67C46.0628 249.496 46.7046 248.557 47.0255 247.54C47.4266 246.367 48.2289 245.897 49.3521 245.506C50.5555 245.037 51.5985 244.176 52.7216 243.472C53.8448 242.768 54.968 242.142 56.0912 241.438C57.6155 240.421 59.1399 239.403 60.3433 237.995C60.7444 237.526 61.2258 237.056 61.2258 236.274C61.2258 236.196 61.306 236.039 61.306 235.961C62.2687 234.318 62.5896 232.518 62.6699 230.719C62.7501 229.31 62.5896 227.902 62.028 226.572C61.6269 225.711 61.306 224.772 60.9851 223.834C60.9049 223.599 60.6642 223.442 60.5037 223.286C59.6212 222.504 58.9794 221.565 58.8992 220.548C58.1771 220.313 57.5353 220.156 56.9737 220C56.3319 219.765 56.011 219.217 55.7703 218.67C55.3692 217.574 54.968 216.401 54.7273 215.227C54.5669 214.367 54.5669 213.506 54.5669 212.645C54.5669 211.628 54.5669 210.611 54.5669 209.594C54.5669 209.124 54.5669 208.577 54.6471 208.107C54.8878 206.934 55.1285 205.76 55.4494 204.587C55.8505 203.256 56.4121 202.005 57.3748 200.988C57.9364 200.362 58.5783 199.736 59.1399 199.11C59.2201 199.11 59.1398 199.11 59.0596 199.11C57.776 199.736 56.4121 199.736 54.968 199.657C54.4867 199.657 54.0053 199.814 53.5239 199.736C52.8821 199.736 52.4007 199.344 52.3205 198.797C52.2403 198.171 52.481 197.623 53.203 197.545C54.246 197.31 55.2087 197.232 56.2517 197.154C57.3748 197.076 58.4178 197.232 59.4608 196.763C59.6212 196.684 59.8619 196.606 60.1026 196.606C61.0653 196.606 61.7874 196.137 62.349 195.432C62.8303 194.728 63.7128 194.572 64.3546 194.102C64.5151 194.024 64.6756 193.946 64.7558 193.868C65.5581 193.164 66.5208 192.459 67.2428 191.599C67.8044 190.973 68.2056 190.19 68.4462 189.486C69.3288 187.296 69.5694 184.948 69.8101 182.601C69.8904 181.819 69.8101 181.036 69.8903 180.254C69.8903 179.706 70.0508 179.159 70.0508 178.533C69.9706 177.281 69.8904 176.107 69.5694 174.934C69.2485 173.838 68.6869 172.978 68.1253 172.039C67.5637 171.022 67.0021 170.004 66.4406 169.066C65.5581 167.736 64.3546 166.562 63.1512 165.545C62.8303 165.232 62.5094 165.075 62.028 164.919C61.4664 164.841 61.0653 164.449 60.9049 163.824C60.6642 163.119 60.263 162.572 59.9421 161.868C59.8619 161.633 59.7014 161.476 59.7014 161.242C59.2201 159.442 58.8189 157.721 58.3376 155.921C58.0969 155.061 57.6155 154.278 57.2144 153.496C57.2144 153.418 57.1342 153.339 57.1342 153.261C56.9737 152.479 56.8132 151.696 56.4121 150.992C56.011 150.366 55.9307 149.662 55.6901 148.958C55.6098 148.801 55.5296 148.723 55.4494 148.41C54.968 149.193 54.5669 149.897 54.1657 150.601C54.0855 150.757 54.0053 150.914 53.9251 151.07C53.1228 152.322 52.4007 153.574 51.5984 154.826C51.0369 155.608 50.4753 156.391 49.9137 157.251C49.7532 157.564 49.5928 157.877 49.3521 158.112C48.8707 158.894 48.3091 159.599 47.8278 160.381C47.4266 160.85 47.1057 161.398 46.6243 161.868C46.143 162.337 45.8221 162.259 45.2605 161.868C45.0198 161.633 44.5384 161.555 44.2977 161.633C43.0141 162.024 41.8107 161.711 40.5271 161.633C39.2434 161.555 38.04 161.242 36.7563 161.007C36.0343 160.85 35.6332 160.303 35.3925 159.755C34.9913 158.816 34.51 157.877 34.1088 156.86C33.7077 155.921 33.467 154.982 32.9857 154.122C32.2636 152.948 31.8625 151.618 30.6591 150.679C30.1777 150.288 29.937 150.444 29.6161 150.757C29.4556 150.992 29.2952 151.305 29.215 151.54C28.5731 153.261 27.9313 154.904 27.3697 156.625C27.2895 156.938 27.2895 157.408 27.3697 157.721C27.6104 158.66 26.8081 160.381 25.9256 160.772C24.7222 161.398 23.5188 161.946 22.5561 162.963C21.5933 164.058 20.3899 164.997 19.4272 166.092C18.2238 167.423 17.1808 168.909 16.6192 170.63C16.1379 172.117 15.7367 173.682 15.4158 175.168C15.3356 175.638 15.4158 176.185 15.4158 176.655C15.2554 179.393 15.3356 182.132 16.0576 184.792C16.2983 185.809 16.6192 186.983 17.1808 187.843C18.5447 189.721 19.8283 191.755 21.9142 193.085C22.7165 193.555 23.2781 194.259 24.0002 194.885C25.2838 195.902 26.6477 196.684 28.3325 196.841C29.1347 196.919 29.8568 197.076 30.6591 197.154C31.3009 197.31 31.6218 197.701 31.6218 198.249C31.6218 198.797 31.2206 199.188 30.5788 199.266C30.1777 199.344 29.8568 199.423 29.4556 199.423C28.9743 199.423 28.8138 199.657 28.5731 200.049C28.2522 200.596 27.9313 201.066 27.5302 201.535C27.129 202.005 26.7279 202.474 26.6477 203.178C26.5675 204.352 26.3268 205.604 26.1663 206.777C26.0861 207.638 26.1663 208.499 26.0861 209.359C25.9256 210.533 25.6849 211.628 25.4443 212.802C25.2036 213.897 25.0431 215.071 24.8024 216.166C24.4815 217.418 24.1606 218.748 23.8397 220C23.6793 220.86 23.5188 221.721 23.4386 222.582C23.2781 223.677 23.1177 224.772 23.1177 225.79C23.0374 226.494 23.1177 227.276 23.1177 227.98C23.1177 228.372 23.0374 228.763 23.0374 229.154C23.0374 230.64 23.0374 232.049 23.0374 233.535C23.0374 235.022 23.1979 236.43 23.1177 237.917C23.0374 239.482 23.3583 240.968 23.4386 242.455C23.5188 244.176 24.0002 245.819 23.9199 247.462C23.8397 248.87 24.4815 250.122 24.4815 251.452C24.4815 252.313 24.8827 253.174 25.1233 254.034C25.364 255.208 25.6047 256.46 25.9256 257.633C26.0059 258.025 26.0861 258.337 26.2465 258.65C26.5675 259.902 26.8884 261.076 27.2895 262.328C27.6104 263.267 28.0918 264.205 28.4127 265.144C28.7336 266.005 28.9743 266.866 29.3754 267.726C30.2579 269.369 31.3009 271.012 32.2636 272.577C32.3438 272.734 32.5043 272.89 32.5845 273.047C32.745 272.89 32.9054 272.655 33.0659 272.499C33.2263 272.421 33.5473 272.342 33.7077 272.421C33.7879 272.421 33.8682 272.812 33.7879 272.968C33.2263 274.142 32.6648 275.394 32.1032 276.567C31.8625 277.115 31.702 277.585 31.4613 278.132C30.98 279.306 30.5788 280.401 30.1777 281.575C30.0172 282.122 29.8568 282.67 29.6161 283.14C29.2952 284.078 28.9743 285.017 28.5731 285.956C28.0918 287.208 27.6104 288.382 27.2093 289.633C26.6477 291.198 26.1663 292.763 25.6047 294.328C25.2036 295.423 24.7222 296.44 24.3211 297.536C24.1606 298.005 24.0804 298.475 23.9199 298.944C23.4386 300.196 22.877 301.448 22.3154 302.7C22.3154 302.7 22.3154 302.7 22.3154 302.778C21.7538 304.264 21.2724 305.751 20.6306 307.159C20.3097 308.02 19.9086 308.802 19.5877 309.663C19.5074 309.898 19.5074 310.289 19.4272 310.524C19.0261 311.462 18.6249 312.401 18.1436 313.418C18.7051 314.123 18.7051 314.279 17.9831 314.905C17.1006 315.687 16.3785 316.548 15.9774 317.643C15.6565 318.504 15.817 319.208 16.3785 319.991C17.0204 320.93 17.9831 321.399 19.0261 321.868C19.1063 321.947 19.2667 322.025 19.2667 322.103C19.2667 322.181 19.1865 322.338 19.1063 322.416C18.2238 323.12 16.7797 323.12 15.817 322.494C14.9345 321.947 14.2124 321.164 13.8915 320.147C13.4101 318.817 13.8113 317.565 14.4531 316.47C15.0147 315.609 15.8972 314.905 16.539 314.123C16.4588 313.575 16.3785 313.027 16.2983 312.401C16.2983 312.323 16.2983 312.167 16.2983 312.088C16.6995 311.071 17.1006 310.132 17.4215 309.115C17.5017 308.802 17.5017 308.411 17.6622 308.098C17.8226 307.55 18.1435 307.003 18.304 306.455C18.6249 305.594 18.9458 304.656 19.2667 303.795C19.4272 303.404 19.5876 303.091 19.7481 302.778C20.069 301.995 20.3097 301.213 20.6306 300.431C21.112 299.335 21.5933 298.318 21.9945 297.301C22.2352 296.753 22.3154 296.049 22.5561 295.501C23.0374 294.25 23.5188 293.076 24.0804 291.824C24.7222 290.181 25.4443 288.46 26.0861 286.817C26.7279 285.252 27.2093 283.687 27.8511 282.122C28.2522 281.105 28.6534 280.01 29.1347 278.993C29.8568 277.35 30.6591 275.707 31.3009 274.22C30.1777 272.89 29.0545 271.638 28.0115 270.308C27.7709 269.995 27.6906 269.604 27.45 269.213C27.2093 268.743 26.8884 268.274 26.5674 267.805C26.4872 267.726 26.407 267.648 26.407 267.57C25.8454 266.005 25.2036 264.362 24.642 262.797C24.4815 262.249 24.1606 261.78 24.0002 261.232C23.7595 260.45 23.599 259.589 23.3583 258.807C23.2781 258.572 23.1177 258.259 23.0374 258.025C22.7165 256.929 22.3956 255.834 22.1549 254.738C21.9945 253.878 21.9143 253.017 21.834 252.157C21.834 252.078 21.7538 251.922 21.6736 251.844C21.6736 253.565 20.6306 254.817 19.6679 256.069C18.9458 257.007 18.3842 257.946 17.7424 258.885C16.539 260.372 15.8972 262.249 14.052 263.267C12.9288 263.893 11.8056 264.362 10.6824 264.988C10.6824 264.988 10.6824 264.988 10.6022 264.988C9.71966 265.301 6.99192 264.518 6.43033 263.814C6.26987 263.58 6.18964 263.188 6.26986 263.032C6.35009 262.797 6.75124 262.641 6.99192 262.641C7.39306 262.641 7.7942 262.719 8.19533 262.875C9.31852 263.188 10.201 263.032 11.1638 262.249C11.6451 261.858 12.2869 261.702 12.8485 261.389C13.1694 261.232 13.4101 260.919 13.6508 260.685C14.5333 259.511 15.0147 258.103 16.0576 256.929C17.0204 255.912 17.7424 254.66 18.7051 253.565C19.347 252.861 20.1492 252.313 20.9515 251.609C21.112 251.452 21.3527 251.296 21.3527 251.061C21.5131 250.201 21.5131 249.418 21.112 248.636C20.9515 248.323 20.9515 248.01 20.8713 247.619C20.7108 246.288 20.6306 244.958 20.5504 243.628C20.3899 242.22 20.3097 240.733 20.4702 239.247C20.5504 238.621 20.3899 237.995 20.3899 237.369C20.3899 236.665 20.4702 236.039 20.4702 235.335C20.4702 234.24 20.5504 233.222 20.5504 232.127C20.5504 230.875 20.4702 229.623 20.4702 228.45C20.4702 227.98 20.6306 227.511 20.6306 227.041C20.7108 226.024 20.7911 225.007 20.8713 223.99C20.9515 223.521 20.9515 223.051 20.5504 222.582C19.5876 221.33 19.4272 219.843 19.1865 218.435C19.1063 217.966 19.0261 217.418 18.8656 216.948C18.7052 217.34 18.4645 217.731 18.304 218.122C17.7424 219.53 17.3413 221.017 16.6192 222.347C15.8972 223.755 15.496 225.242 14.8542 226.728C14.1322 228.45 13.3299 230.093 12.6079 231.814C12.3672 232.362 12.1265 232.909 11.8858 233.457C11.4847 234.396 11.0033 235.335 10.5219 236.274C10.4417 236.352 10.3615 236.43 10.3615 236.508C10.1208 237.76 9.39874 238.777 8.91738 239.873C8.51624 240.812 8.19533 241.829 7.87442 242.846C7.79419 243.081 7.71397 243.394 7.55351 243.628C6.83146 244.489 6.83146 245.584 6.3501 246.601C6.10941 247.149 5.86874 247.619 5.62805 248.088C4.98623 249.418 4.3444 250.826 3.70258 252.157C3.38167 252.861 2.98054 253.565 2.73986 254.269C2.5794 254.738 2.49917 255.208 2.33872 255.677C2.09803 256.46 1.53644 256.773 0.894618 256.616C0.252797 256.46 -0.068112 255.912 0.0121156 255.13C0.0923432 254.738 0.2528 254.425 0.333027 254.034C0.413255 253.721 0.493485 253.487 0.573712 253.174C0.734168 252.626 0.89462 252.157 1.1353 251.687C1.85735 250.201 2.5794 248.714 3.22123 247.227C3.70259 246.132 4.18395 245.115 4.66531 244.02C4.74554 243.941 4.74554 243.863 4.74554 243.707C4.98623 242.064 5.86873 240.577 6.59078 239.09C6.99192 238.308 7.23259 237.526 7.47328 236.743C7.55351 236.665 7.47328 236.508 7.55351 236.43C8.59647 235.178 8.6767 233.457 9.63943 232.127C9.96034 231.736 10.0406 231.188 10.201 230.64C10.5219 229.78 10.8428 228.919 11.244 228.137C11.5649 227.433 11.8056 226.728 12.1265 226.024C12.5276 225.164 12.9288 224.381 13.3299 223.521C13.8113 222.504 14.2926 221.486 14.6938 220.391C15.4158 218.748 16.0576 217.105 16.6995 215.462C17.261 214.132 17.7424 212.724 18.3842 211.393C19.1865 209.75 19.8283 208.029 20.9515 206.464C21.3527 205.917 21.5933 205.369 21.9142 204.821C22.3956 204.039 22.877 203.335 23.4386 202.631C23.8397 202.161 24.2409 201.692 24.642 201.144C25.2036 200.44 25.7652 199.736 26.2465 199.11C25.0431 198.562 23.7595 198.093 22.6363 197.545C22.1549 197.31 21.7538 196.841 21.2724 196.45C20.3899 195.667 19.5074 194.963 18.7051 194.181C17.9029 193.32 17.1006 192.459 16.3785 191.599C16.1379 191.286 15.817 190.973 15.5763 190.66C14.8542 189.486 14.1322 188.234 13.5706 186.983C13.1694 186.044 13.009 185.027 12.7683 184.009C12.6078 183.071 12.4474 182.132 12.3672 181.115C12.2869 180.567 12.2869 180.019 12.3672 179.472C12.3672 178.376 12.3672 177.203 12.5276 176.107C12.7683 174.464 13.009 172.743 13.4903 171.178C13.8915 169.848 14.6938 168.596 15.4158 167.423C16.0576 166.405 16.7797 165.388 17.582 164.528C18.2238 163.824 18.9458 163.276 19.6679 162.65C20.3097 162.102 20.9515 161.476 21.6736 160.929C21.9945 160.694 22.2352 160.381 22.5561 160.224C23.2781 159.755 23.599 158.973 23.7595 158.19C23.8397 157.799 24.1606 157.408 24.2409 157.017C24.3211 156.704 24.4013 156.469 24.4815 156.156C24.9629 154.748 25.5245 153.418 26.0861 152.009C26.4872 151.07 26.9686 150.21 27.3697 149.271C27.8511 148.332 28.894 147.863 29.937 148.097C30.98 148.254 31.7822 148.723 32.4241 149.584C32.9054 150.288 33.5472 150.914 34.0286 151.696C34.2693 152.087 34.4298 152.557 34.5902 152.948C35.0716 154.122 35.4727 155.217 35.8739 156.391C36.1145 157.095 36.3552 157.799 36.5959 158.425C36.6761 158.581 36.997 158.66 37.1575 158.66C37.8795 158.738 38.6016 158.816 39.3236 158.894C40.1259 158.973 40.9282 158.973 41.7305 158.973C42.2921 158.973 42.7734 159.051 43.335 159.129C43.5757 159.129 43.8164 159.207 44.0571 159.207C45.1 159.364 45.5012 158.581 45.9023 157.877C46.143 157.486 46.3837 157.173 46.6243 156.86C46.9453 156.312 47.3464 155.843 47.6673 155.295C48.0684 154.669 48.4696 154.044 48.8707 153.418C49.5125 152.322 50.1544 151.149 50.8764 149.975C51.1171 149.584 51.438 149.271 51.6787 148.88C51.8391 148.723 51.9194 148.488 52.0798 148.254C52.6414 147.628 53.0426 146.845 53.6844 146.376C54.6471 145.672 55.9307 145.985 56.4923 147.08C56.9737 148.019 57.6155 148.88 57.9364 149.897C58.3376 151.305 59.2201 152.479 59.6212 153.887C60.3433 156.469 61.3862 158.894 61.7071 161.633C61.7071 161.946 61.9478 162.259 62.028 162.572C62.2687 163.119 62.5094 163.667 62.7501 164.215C62.6699 164.215 62.6699 164.293 62.5896 164.293C62.9908 164.449 63.4721 164.528 63.8733 164.762C64.3546 164.997 64.836 165.232 65.2371 165.545C66.9219 166.875 68.0451 168.596 69.2485 170.317C69.8101 171.178 70.131 172.195 70.6124 173.134C70.8531 173.682 71.174 174.229 71.3344 174.855C71.5751 175.794 71.6554 176.733 71.8158 177.672C71.896 178.22 71.896 178.689 71.9763 179.237C71.9763 179.706 71.896 180.254 71.896 180.723C71.8158 181.506 71.8158 182.288 71.7356 182.992C71.6553 184.401 71.6553 185.731 71.3344 187.061C71.0938 188.234 70.6926 189.33 70.2113 190.347C69.5694 191.677 68.6067 192.929 67.8044 194.181C67.644 194.415 67.4835 194.572 67.2428 194.728C65.879 195.824 64.4349 196.606 62.7501 197.076C62.2687 197.232 61.7874 197.545 61.306 197.858C62.1885 198.327 63.1512 198.719 63.9535 199.344C64.9965 200.127 65.9592 201.066 66.9219 202.005C67.3231 202.474 67.644 202.709 68.2858 202.396C68.4462 202.318 68.5265 202.239 68.6869 202.239C69.409 202.005 69.4892 202.005 69.8101 202.552C71.174 202.552 72.4576 202.474 73.7413 202.552C75.5865 202.709 76.8701 203.648 77.5922 205.369C77.9131 206.073 77.9933 206.777 78.3142 207.481C78.5549 208.029 78.8758 208.655 79.1165 209.203C79.9188 211.08 80.7211 212.958 81.5233 214.836C81.764 215.384 82.1652 215.853 82.4861 216.401C83.0477 217.261 83.6093 218.122 84.0104 219.061C84.4115 220 84.572 220.939 84.8127 221.956C84.8929 222.425 84.9731 222.973 85.0534 223.521C85.0534 223.834 85.1336 224.147 85.1336 224.381C85.1336 225.164 85.0534 225.946 85.1336 226.728C85.294 228.059 84.8127 229.232 84.4115 230.484C84.0104 231.892 83.529 233.301 83.1279 234.709C83.0477 234.865 83.0477 235.022 82.8872 235.178C81.6036 236.508 81.764 238.152 81.4431 239.795C81.2827 240.499 81.042 241.203 80.8013 241.829C80.4804 242.611 80.1595 243.394 79.6781 244.098C78.8758 245.428 77.9933 246.758 77.1911 248.088C77.0306 248.323 77.0306 248.636 77.0306 248.87C77.2713 250.122 77.2713 250.122 78.5549 249.731C79.1165 249.575 79.7583 249.575 80.3199 249.575C81.2024 249.496 82.0849 249.496 82.9674 249.496C83.3686 249.496 83.7697 249.496 84.1709 249.575C85.2138 249.653 86.2568 249.575 87.2195 249.809C88.4229 250.122 89.7066 250.201 90.8298 250.905C91.8727 251.531 92.9959 251.922 94.1191 252.391C94.3598 252.469 94.6004 252.548 94.7609 252.704C95.8039 253.408 96.8468 254.112 97.8898 254.817C98.2909 255.13 98.7723 255.286 99.1734 255.599C100.938 256.773 102.784 257.868 104.148 259.511C104.709 260.137 105.431 260.685 105.913 261.389C106.635 262.484 107.276 263.658 107.918 264.753C108.239 265.301 108.64 265.849 108.961 266.318C109.362 266.787 109.683 267.257 110.165 267.726C111.288 268.822 112.732 269.526 114.096 270.23C114.978 270.699 115.861 271.091 116.743 271.482C117.465 271.795 118.268 272.029 119.07 272.421C120.033 272.89 120.674 273.516 120.755 274.69C120.755 275.081 120.995 275.472 120.995 275.863C121.076 276.959 120.113 278.21 119.07 278.68C117.305 279.541 115.46 279.541 113.534 279.306C112.973 279.228 112.331 279.462 111.769 279.384C110.646 279.306 109.603 279.071 108.48 278.915C108.319 278.915 108.079 278.836 107.918 278.836C107.437 278.68 106.875 278.602 106.394 278.367C105.592 277.976 104.87 277.506 104.067 277.037C103.907 276.959 103.827 276.88 103.746 276.802C102.864 275.785 101.981 274.768 101.259 273.673C100.698 272.734 99.9757 271.873 99.3339 271.012C98.3711 269.761 97.5689 268.352 96.6864 266.944C96.5259 266.631 96.2852 266.396 96.1248 266.083C95.2423 264.988 94.3598 263.971 93.4773 262.875C92.5145 261.624 91.0704 260.998 89.7066 260.293C88.6636 259.824 87.6206 259.433 86.4975 259.042C86.1765 258.885 85.7754 258.963 85.3743 258.885C84.4918 258.807 83.6895 258.729 82.807 258.572C82.5663 258.572 82.4058 258.494 82.1652 258.494C80.8013 258.416 79.3572 258.416 77.9933 258.337C77.4317 258.337 76.7899 258.259 76.2283 258.103C75.9074 258.025 75.8272 258.181 75.6667 258.416C75.2656 259.433 74.7842 260.372 74.3029 261.311C73.7413 262.406 73.1797 263.501 72.6181 264.518C72.3774 265.066 72.1367 265.536 71.896 266.083C71.4147 267.179 71.0135 268.274 70.5322 269.448C71.3344 269.291 71.9763 269.213 72.6181 269.135C72.6983 269.135 72.8588 269.056 72.939 269.135C73.7413 269.682 74.6238 269.291 75.4261 269.448C76.5492 269.682 77.5922 269.917 78.7154 270.308C78.9561 270.386 79.1165 270.778 79.3572 271.012C80.2397 271.795 80.5606 272.734 80.8013 273.907C80.9618 274.924 80.8013 275.941 80.9618 276.88C81.042 277.428 81.1222 278.054 81.1222 278.602C81.1222 278.836 81.1222 279.149 81.1222 279.384C81.1222 279.541 81.042 279.697 81.042 279.775C81.042 280.949 81.042 282.122 81.042 283.296C81.042 283.453 81.1222 283.609 81.2024 283.844C81.2827 284.157 81.2827 284.47 81.2827 284.783C81.2827 285.409 81.2827 285.956 81.2827 286.582C81.2827 287.443 81.2827 288.382 81.2024 289.242C81.1222 290.259 81.2024 291.12 81.6838 292.059C82.0849 292.841 82.3256 293.78 82.6465 294.641C82.8872 295.423 83.1279 296.206 83.3686 296.988C83.6895 298.396 84.0104 299.805 84.4115 301.213C84.8929 303.091 84.9731 305.047 84.8127 307.003C84.7325 308.176 84.4115 309.35 84.2511 310.602C84.0906 311.384 84.0104 312.245 83.9302 313.027C83.7697 314.123 83.2081 315.061 82.5663 315.922C81.8443 316.861 81.2024 317.8 80.4002 318.582C79.1165 319.834 77.5922 320.851 75.8272 321.242C74.8645 321.477 73.8215 321.79 72.8588 321.79C71.4949 321.868 70.131 321.712 68.6869 321.634C68.5265 321.634 68.366 321.555 68.2858 321.555C67.0022 321.555 65.7987 321.555 64.5151 321.555C63.6326 321.555 62.8303 321.634 61.9478 321.634C61.7071 321.634 61.3862 321.634 61.1455 321.634C60.1026 321.634 59.1399 321.555 58.1771 321.555C57.0539 321.555 55.8505 321.634 54.7273 321.634C53.2832 321.634 51.7589 321.634 50.3148 321.634C48.951 321.634 47.5069 321.634 46.143 321.634C44.4582 321.634 42.7734 321.477 41.0886 321.477C40.3666 321.477 39.5643 321.634 38.8423 321.555C37.7993 321.399 36.6761 321.477 35.7134 320.929C34.9914 320.538 34.2693 320.147 33.5472 319.678C33.0659 320.225 32.4241 320.851 31.7822 321.555C31.1404 322.26 30.3382 322.807 29.2952 322.964C29.0545 322.964 28.8138 323.12 28.5731 323.198C28.0115 323.355 27.3697 323.042 27.2093 322.573C27.129 322.103 27.5302 321.634 28.172 321.477C29.6161 321.086 30.7393 320.225 31.4613 318.973C31.6218 318.661 31.8625 318.426 32.0229 318.113C32.5043 317.252 32.8252 316.313 32.4241 315.374C32.3438 315.061 32.4241 314.749 32.4241 314.436C32.4241 313.575 32.4241 312.714 32.4241 311.854C32.4241 311.775 32.4241 311.775 32.4241 311.697C31.702 310.602 32.1834 309.35 32.0229 308.098C31.9427 307.159 32.1032 306.22 32.1032 305.281C32.1032 304.186 32.0229 303.013 31.9427 301.917C31.9427 300.978 32.0229 300.118 32.0229 299.179C32.0229 298.866 32.0229 298.553 32.0229 298.24C32.0229 297.77 32.0229 297.301 32.1032 296.91C32.1032 296.753 32.1834 296.675 32.1032 296.519C32.1032 295.58 32.0229 294.563 32.0229 293.624C32.0229 292.528 32.1032 291.433 32.1032 290.338C32.1032 289.086 32.0229 287.834 32.0229 286.582C32.0229 285.565 32.2636 284.548 32.2636 283.531C32.3438 282.122 32.2636 280.714 32.2636 279.384C32.2636 279.149 32.2636 278.915 32.2636 278.68C32.2636 278.132 32.1834 277.585 32.2636 277.037C32.3438 276.254 32.5845 275.55 32.745 274.768C32.9857 273.36 33.9484 272.342 34.8309 271.404C35.232 270.934 36.0343 270.621 36.6761 270.465C37.5586 270.23 38.3609 270.152 39.2434 269.761C39.5643 269.604 39.8852 269.682 40.2061 269.682C40.3666 269.682 40.4468 269.761 40.6073 269.761C41.8107 269.682 43.0141 269.604 44.2175 269.526C45.1802 269.526 46.2232 269.526 47.1859 269.526C47.4266 269.526 47.5871 269.526 47.8278 269.526C48.2289 269.526 48.3894 269.369 48.3894 268.978C48.3091 268.43 48.3091 267.883 48.3091 267.257C48.3091 266.631 48.3894 266.005 48.3894 265.301C48.4696 263.58 48.4696 261.78 48.5498 260.059C48.5498 259.668 48.4696 259.433 47.9882 259.198C47.1057 258.729 46.143 257.633 46.5441 256.381C46.6244 256.147 46.5441 255.912 46.5441 255.756C46.6244 255.286 46.6243 254.817 46.7046 254.347C46.865 253.8 47.3464 253.565 47.8278 253.721C48.1487 253.8 48.3894 254.191 48.4696 254.582C48.5498 254.973 48.4696 255.443 48.4696 255.912C48.4696 256.147 48.4696 256.381 48.5498 256.538C48.63 257.007 48.8707 257.242 49.4323 257.242C50.5555 257.242 51.5985 257.399 52.7216 257.32C54.246 257.32 55.7703 257.164 57.2144 257.086C57.8562 257.086 58.498 257.086 59.2201 257.164C59.9421 257.164 60.5839 257.164 61.306 257.164C62.7501 257.164 64.114 257.242 65.5581 257.164C66.1999 257.164 66.9219 256.929 67.5637 256.773C67.644 256.773 67.8044 256.538 67.8044 256.381C67.8847 255.834 67.9649 255.286 67.9649 254.66C66.9219 254.895 65.879 255.051 64.9965 255.443C64.0337 255.912 63.071 255.756 62.1083 255.912C61.3862 255.99 60.6642 255.912 59.9421 255.99C58.6585 256.147 57.5353 255.599 56.4121 255.208C56.1714 255.13 55.9307 254.66 56.011 254.504C56.0912 254.269 56.4121 253.878 56.733 253.878C57.6155 253.8 58.498 253.878 59.3805 253.878C60.263 253.956 61.0653 253.878 61.8676 253.643C62.8303 253.33 63.9535 253.33 64.9965 253.174C65.3976 253.095 65.879 252.861 66.2801 252.704C66.7615 252.548 67.1626 252.313 67.644 252.157C68.2056 252 68.6869 251.844 69.0881 251.296C69.2485 251.061 69.6497 250.905 69.8903 250.826C70.9333 250.67 71.6553 250.044 72.4576 249.496C73.1797 248.949 73.9017 248.323 74.4633 247.619C75.3458 246.523 76.0679 245.35 76.8701 244.176C77.3515 243.394 77.9131 242.611 78.3142 241.829C79.0363 240.342 79.6781 238.777 79.7583 237.056C79.8386 236.039 79.9188 235.1 79.999 234.083C79.999 233.848 79.9188 233.535 79.9188 233.301C79.7583 232.44 79.5979 231.579 79.3572 230.719C79.1165 229.467 78.8758 228.215 78.5549 227.041C78.234 225.868 77.7527 224.772 77.4317 223.677C77.1911 222.973 77.1108 222.191 76.7899 221.486C76.3888 220.469 75.9074 219.53 75.5063 218.513C75.426 218.357 75.3458 218.2 75.3458 218.044C75.3458 217.261 74.7842 216.714 74.4633 216.088C73.9017 215.071 73.3401 214.054 72.7785 212.958C72.0565 211.628 71.4147 210.376 70.2915 209.281C69.9706 208.968 69.6497 208.499 69.409 208.107C68.366 206.699 67.4033 205.212 66.2801 203.882C65.6383 202.944 64.5151 202.083 63.3117 201.066ZM34.9111 279.149C34.9914 279.149 34.9913 279.149 35.0716 279.149C35.0716 280.714 35.0716 282.357 35.0716 283.922C35.0716 285.174 35.1518 286.347 35.232 287.599C35.232 288.851 35.3123 290.103 35.3123 291.355C35.3925 293.389 35.3123 295.501 35.3925 297.536C35.3925 298.475 35.3925 299.413 35.4727 300.274C35.5529 301.526 35.4727 302.856 35.3925 304.108C35.3925 304.343 35.3123 304.577 35.232 304.734C35.232 304.89 35.1518 305.125 35.1518 305.281C35.1518 306.142 35.232 306.925 35.232 307.785C35.232 309.037 35.0716 310.367 35.0716 311.619C35.0716 312.48 35.1518 313.418 35.1518 314.279C35.1518 314.827 35.232 315.374 34.7507 315.844C34.6704 315.922 34.6704 316.079 34.7507 316.157C34.8309 317.096 35.232 317.956 36.1948 318.426C36.3552 318.504 36.5157 318.661 36.6761 318.817C37.2377 319.365 37.8795 319.443 38.6016 319.208C38.8423 319.13 39.1632 319.052 39.4039 319.13C40.1259 319.13 40.9282 319.286 41.6502 319.208C42.8536 319.13 44.0571 318.973 45.2605 318.973C47.9882 318.973 50.716 318.973 53.3635 318.973C54.8878 318.973 56.4121 318.973 57.9364 318.973C59.2201 318.973 60.5839 319.208 61.8676 318.895C61.9478 318.895 62.1083 318.895 62.1885 318.895C63.5524 318.973 64.9965 319.13 66.3603 318.895C67.0022 318.817 67.7242 318.895 68.4462 318.895C68.7672 318.895 69.0881 318.895 69.3288 318.895C70.7729 318.661 72.2972 318.661 73.7413 318.895C74.2226 318.973 74.7842 319.208 75.2656 319.13C76.6295 318.739 77.512 317.643 78.3945 316.548C78.4747 316.47 78.4747 316.392 78.4747 316.313C78.7154 316 78.9561 315.609 79.277 315.296C79.5177 315.062 79.7583 314.983 79.5979 314.592C79.4374 314.201 79.3572 313.81 79.277 313.418C79.1967 312.323 79.1165 311.228 79.1165 310.132C79.1165 309.193 79.1165 308.255 79.1165 307.316C79.1165 306.846 79.1967 306.455 79.1967 305.986C79.1967 304.89 79.0363 303.795 79.0363 302.7C79.0363 301.213 79.0363 299.726 79.1165 298.318C79.1165 297.145 78.7154 295.971 79.1165 294.797C79.1967 294.563 79.1165 294.328 79.1165 294.171C79.1165 293.545 79.1165 292.841 79.1165 292.215C79.1165 291.981 79.1165 291.824 79.1165 291.589C79.1165 291.12 79.1165 290.651 79.0363 290.181C79.0363 289.868 79.0363 289.555 79.0363 289.321C79.0363 288.382 78.9561 287.443 78.9561 286.504C78.9561 285.878 79.1967 285.252 78.9561 284.626C78.8758 284.47 78.8758 284.235 78.9561 284C79.277 282.905 79.0363 281.809 79.0363 280.792C79.0363 280.01 78.9561 279.228 79.1165 278.523C79.4374 277.037 79.277 275.629 79.1967 274.142C79.1967 273.985 79.0363 273.829 79.0363 273.673C78.8758 273.281 78.7154 272.968 78.5549 272.577C78.3945 272.108 77.512 271.325 77.1911 271.404C75.426 271.482 73.661 271.638 71.896 271.638C70.131 271.638 68.366 271.638 66.601 271.638C63.9535 271.638 61.306 271.638 58.7387 271.638C57.3748 271.638 56.0912 271.56 54.7273 271.56C53.9251 271.56 53.1228 271.717 52.4007 271.717C51.5984 271.717 50.8764 271.717 50.0741 271.638C49.5125 271.638 48.9509 271.56 48.3894 271.56C48.0684 271.56 47.7475 271.638 47.4266 271.638C46.4639 271.638 45.5012 271.638 44.5384 271.638C44.0571 271.638 43.6559 271.56 43.1746 271.482C42.1316 271.482 41.0084 271.482 39.9655 271.482C39.6445 271.482 39.3236 271.169 39.083 271.325C38.3609 271.638 37.5586 271.951 36.9168 272.421C35.7936 273.125 35.7134 274.455 35.3123 275.55C35.0716 276.646 35.0716 277.976 34.9111 279.149ZM76.9504 256.147C78.3142 256.225 79.5979 256.225 80.8815 256.225C81.2827 256.225 81.6036 256.069 82.0047 256.069C83.0477 256.147 84.0906 256.225 85.1336 256.46C86.4975 256.773 87.9416 257.086 89.3054 257.477C90.4286 257.868 91.4716 258.416 92.5145 258.885C92.9959 259.12 93.397 259.589 93.9586 259.824C95.0818 260.293 95.8039 261.076 96.4457 262.171C96.6864 262.641 97.0073 263.032 97.3282 263.501C97.8095 264.127 98.2909 264.753 98.7723 265.379C99.3339 266.24 99.8955 267.1 100.457 267.883C101.019 268.665 101.66 269.448 102.302 270.23C102.703 270.699 102.864 271.325 103.265 271.873C104.148 273.047 104.95 274.22 106.073 275.159C106.314 275.394 106.715 275.55 106.875 275.785C107.517 276.567 108.48 276.567 109.282 276.802C110.245 277.037 111.208 277.037 112.251 277.115C112.812 277.193 113.374 277.35 113.935 277.272C115.299 277.037 116.743 277.35 118.027 276.802C118.027 276.802 118.107 276.802 118.187 276.802C118.99 276.724 119.631 275.629 119.15 275.003C118.749 274.455 118.187 273.985 117.626 273.673C116.663 273.203 115.54 272.968 114.577 272.577C113.454 272.029 112.491 271.404 111.448 270.778C110.726 270.308 110.004 269.917 109.282 269.448C109.041 269.291 108.881 269.135 108.721 268.978C108.239 268.352 107.678 267.805 107.437 267.022C107.196 266.318 106.554 265.77 106.153 265.144C105.752 264.597 105.431 264.049 105.11 263.501C104.388 262.328 103.746 261.154 102.543 260.372C101.58 259.668 100.698 258.885 99.735 258.181C99.3339 257.868 98.8525 257.633 98.4514 257.399C97.97 257.086 97.6491 256.773 97.1677 256.46C96.1248 255.834 95.0016 255.208 93.8784 254.582C92.9157 254.034 91.9529 253.33 90.91 252.939C89.7868 252.548 88.8241 251.922 87.5404 251.922C85.6952 251.844 83.8499 251.531 82.0047 251.452C80.9618 251.374 79.9188 251.609 78.9561 251.687C78.6352 251.687 78.3142 251.687 78.0736 251.609C77.5922 252.939 77.2713 254.504 76.9504 256.147ZM63.1512 259.276C61.0653 259.276 59.1399 259.276 57.1342 259.276C56.0912 259.276 55.0482 259.198 54.0053 259.198C53.8448 259.198 53.6844 259.433 53.6844 259.511C53.6844 259.824 53.7646 260.137 53.7646 260.45C53.8448 261.389 54.0053 262.328 54.0855 263.188C54.0855 265.066 54.0053 266.944 54.0053 268.9C54.0053 269.682 54.0053 269.682 54.8076 269.682C55.9307 269.604 56.9737 269.526 58.0969 269.526C59.3805 269.526 60.7444 269.604 62.028 269.604C62.3489 269.604 62.5896 269.526 62.9105 269.526C62.9105 266.083 62.6699 262.719 63.1512 259.276ZM82.2454 230.719C82.3256 230.719 82.4058 230.719 82.4861 230.719C82.5663 230.562 82.7268 230.406 82.7268 230.249C83.2081 228.45 83.529 226.572 83.2883 224.694C83.2081 224.303 83.2884 223.912 83.2081 223.521C83.2081 223.286 83.2081 223.051 83.1279 222.816C83.0477 222.347 82.8872 221.878 82.807 221.33C82.7268 221.173 82.7268 220.939 82.6465 220.782C82.4861 220.391 82.3256 220 82.1652 219.609C82.0849 219.374 82.0047 219.139 81.8443 218.904C81.4431 218.279 81.042 217.574 80.6408 216.948C80.0793 215.853 79.5177 214.68 78.9561 213.506C78.4747 212.489 78.0736 211.472 77.6724 210.455C77.512 210.142 77.3515 209.829 77.1911 209.437C76.7899 208.264 76.3888 207.09 75.9074 205.917C75.5063 204.978 74.7842 204.352 73.7413 204.195C73.2599 204.117 72.7785 204.117 72.2169 204.039C71.3344 203.961 70.3717 204.039 69.4892 203.491C69.3288 203.413 69.0881 203.491 68.7672 203.491C69.2485 204.117 69.6497 204.587 69.9706 205.134C70.7729 206.386 72.0565 207.325 72.6983 208.733C73.0994 209.594 73.7413 210.298 74.3029 211.002C74.8645 211.785 75.426 212.567 75.9074 213.428C76.3085 214.132 76.7097 214.836 77.1108 215.54C77.4317 216.166 77.7526 216.792 77.9933 217.418C78.3945 218.435 78.6352 219.53 79.0363 220.626C79.3572 221.643 79.8386 222.738 80.1595 223.755C80.5606 224.929 80.9618 226.103 81.3629 227.276C81.4431 227.511 81.5233 227.667 81.5233 227.902C81.8443 228.919 82.0047 229.858 82.2454 230.719ZM68.2858 269.526C68.366 269.526 68.4463 269.604 68.6067 269.604C68.8474 269.135 69.0881 268.587 69.3288 268.117C69.8101 266.944 70.2915 265.77 70.7729 264.597C71.0938 263.893 71.3344 263.188 71.6553 262.562C72.0565 261.78 72.5379 261.076 72.939 260.293C73.3401 259.433 73.661 258.416 73.982 257.555C74.3029 256.694 74.7842 255.834 74.9447 254.895C75.1854 253.721 75.2656 252.469 75.3458 251.296C75.2656 251.296 75.1854 251.218 75.1051 251.218C74.704 251.531 74.3029 251.844 73.8215 252.157C72.8588 252.782 72.0565 253.8 70.6926 253.8C70.2915 253.8 70.0508 254.034 70.131 254.504C70.2113 255.208 70.4519 255.99 70.0508 256.694C69.9706 256.851 70.0508 257.007 70.0508 257.164C69.9706 257.477 69.9706 257.868 69.8101 258.181C69.4892 258.885 68.8474 259.198 68.2858 259.276C68.2858 262.719 68.2858 266.161 68.2858 269.526ZM60.6642 199.501C59.7014 200.283 58.8992 201.144 58.2573 202.239C57.3748 203.726 56.8935 205.369 56.733 207.012C56.5726 208.499 56.5726 209.985 56.6528 211.472C56.733 212.802 57.0539 214.132 57.0539 215.462C57.1342 216.948 58.0969 217.966 58.5783 219.217C58.5783 219.217 58.6585 219.296 58.8189 219.296C58.8189 218.044 58.8189 216.792 58.8189 215.618C58.8992 213.975 58.8992 212.254 59.0596 210.611C59.3003 208.89 59.6212 207.247 60.0223 205.525C60.263 204.43 60.6642 203.335 61.1455 202.318C61.4664 201.692 61.9478 201.066 62.349 200.44C61.7874 200.127 61.2258 199.814 60.6642 199.501ZM24.4013 205.291C24.1606 205.447 24.0804 205.525 24.0804 205.604C23.6793 206.308 23.1979 207.09 22.7968 207.794C22.2352 208.89 21.5933 209.985 21.0317 211.159C20.8713 211.55 20.3899 212.098 21.0317 212.567C21.0317 212.567 21.0317 212.724 21.0317 212.802C20.9515 213.819 20.8713 214.836 20.8713 215.853C20.9515 216.948 20.7911 218.044 21.2724 219.139C21.3527 219.374 21.4329 219.609 21.5131 219.922C21.6736 219.765 21.7538 219.609 21.834 219.53C21.9945 218.435 21.9945 217.34 22.2352 216.323C22.4758 215.227 22.2352 214.054 23.1177 213.193C23.1979 213.115 23.1979 212.958 23.1979 212.802C23.1979 212.567 23.2781 212.254 23.2781 212.019C23.3584 211.237 23.5188 210.455 23.599 209.594C23.7595 208.655 23.9199 207.716 24.0804 206.777C24.2409 206.23 24.3211 205.838 24.4013 205.291ZM81.9245 297.614C81.9245 300.274 82.0849 302.856 81.9245 305.516C81.6838 308.724 81.6036 312.949 82.0849 313.418C83.6093 308.02 83.6895 302.856 81.9245 297.614ZM64.7558 259.433C65.2371 262.797 64.9965 266.161 64.9965 269.526C66.1197 269.761 66.2801 269.604 66.2801 268.587C66.2801 267.805 66.2801 267.022 66.2801 266.161C66.2801 264.597 66.2801 263.11 66.3603 261.545C66.3603 260.763 66.3603 260.059 66.3603 259.276C65.879 259.276 65.3976 259.355 64.7558 259.433ZM51.0369 259.824C51.0369 263.11 51.0369 266.396 51.0369 269.604C51.7589 269.761 51.9194 269.526 51.9194 268.978C51.8391 268.274 51.7589 267.492 51.7589 266.787C51.7589 266.005 51.7589 265.223 51.8391 264.518C51.8391 263.893 51.9194 263.188 51.9996 262.562C51.9996 261.702 51.9996 260.763 51.9996 259.824C51.5984 259.824 51.2775 259.824 51.0369 259.824Z" fill="#333161"/>
<path d="M33.2264 181.584C32.2637 182.679 30.8998 182.601 29.6964 182.445C28.1721 182.288 27.0489 180.958 27.5302 179.237C27.6105 179.002 28.0116 178.689 28.3325 178.611C28.7336 178.533 28.9743 178.846 29.0546 179.315C29.215 180.332 30.0975 180.802 31.0603 180.254C31.1405 180.254 31.2207 180.176 31.3009 180.097C32.1834 179.863 32.5846 179.472 32.5044 178.533C32.5044 177.75 33.788 177.359 34.3496 177.907C34.7507 178.298 35.0716 178.767 34.9914 179.393C34.9914 179.55 34.9914 179.784 35.0716 179.863C35.9541 181.036 37.3982 181.193 38.6016 180.332C38.9226 180.097 39.1632 179.784 39.4842 179.706C39.8051 179.55 40.2062 179.472 40.5271 179.628C40.9283 179.784 41.0887 180.254 40.9283 180.645C40.5271 182.445 38.5214 183.54 36.7564 183.071C36.0344 182.914 35.3123 182.836 34.5903 182.523C34.1089 182.366 33.7078 181.975 33.2264 181.584Z" fill="#333161"/>
<path d="M4.66569 260.919C4.82614 260.059 4.90637 259.12 5.06683 258.259C5.14705 257.633 5.94933 257.007 6.51093 257.007C6.91206 257.007 7.15275 257.164 7.15275 257.555C7.15275 257.868 7.15275 258.181 6.9923 258.494C6.67139 259.198 6.75162 259.902 6.83184 260.685C6.9923 261.467 6.75162 261.545 6.02957 262.015C5.38775 262.484 4.74592 262.641 4.1041 262.484C3.70296 262.406 3.14137 262.249 2.90068 261.858C2.33909 261.076 1.7775 260.215 1.53682 259.276C1.37636 258.65 1.61704 257.868 1.85772 257.164C1.93795 256.773 2.33909 256.851 2.49955 257.242C2.74023 257.79 2.98092 258.416 3.2216 258.963C3.54251 259.824 4.02387 260.528 4.66569 260.919Z" fill="#333161"/>
<path d="M66.6009 181.506C65.959 181.584 65.3172 181.74 64.7556 181.74C63.1511 181.662 61.5465 181.662 59.942 181.506C58.899 181.428 57.9363 181.115 56.9736 180.802C56.8131 180.723 56.6526 180.489 56.4922 180.41C56.6526 180.254 56.8131 180.019 57.0538 179.941C58.2572 179.393 59.5408 179.472 60.7443 179.706C62.1081 179.941 63.3918 180.097 64.7556 180.332C65.4777 180.489 66.1997 180.723 66.6811 181.349C66.6009 181.349 66.6009 181.428 66.6009 181.506Z" fill="#333161"/>
<path d="M64.4344 189.173C64.2739 189.095 63.953 188.939 63.6321 188.782C62.8298 188.391 62.0276 187.843 61.2253 187.608C60.2626 187.296 59.701 186.591 58.9789 186.122C58.5778 185.809 58.4173 185.418 58.658 184.948C58.8987 184.479 59.2998 184.479 59.9417 184.714C61.5462 185.261 62.8298 186.278 64.3542 187.061C64.8355 187.296 65.3169 187.687 65.7983 188.078C65.9587 188.234 66.1192 188.547 66.0389 188.704C65.9587 188.86 65.6378 189.017 65.3971 189.095C65.0762 189.173 64.7553 189.173 64.4344 189.173Z" fill="#333161"/>
<path d="M41.5693 172.821C41.8902 172.195 42.1309 171.569 42.6123 171.1C43.0134 170.63 43.6553 170.63 44.2971 170.943C45.1796 171.413 45.6609 172.43 45.4203 173.369C45.34 173.995 45.34 174.621 44.6982 174.934C43.6553 175.481 42.3716 175.012 41.9705 173.838C41.8902 173.525 41.81 173.212 41.7298 172.899C41.6496 172.821 41.6496 172.821 41.5693 172.821Z" fill="#333161"/>
<path d="M22.3151 321.712C21.8338 322.338 21.3524 322.729 20.5501 322.494C19.5874 322.181 18.9456 321.321 18.8654 320.538C18.7049 319.365 19.3467 318.504 19.9083 317.643C20.149 317.252 21.5129 317.017 21.914 317.174C22.3151 317.409 22.3954 317.8 22.0745 318.269C21.6733 318.817 21.192 319.286 21.1117 320.069C21.0315 320.538 21.0315 320.851 21.5129 321.164C21.7535 321.164 21.9942 321.477 22.3151 321.712Z" fill="#333161"/>
<path d="M11.244 181.819C9.96035 182.679 8.51625 183.149 6.99193 183.384C6.43033 183.462 5.86874 183.618 5.30714 183.696C4.50487 183.853 3.70259 184.009 2.90032 184.009C2.49918 184.009 2.01781 183.696 1.6969 183.384C1.37599 183.071 1.61667 182.601 2.09804 182.523C2.73986 182.366 3.46191 182.288 4.18396 182.21C5.38738 182.053 6.59079 181.897 7.7942 181.819C8.91739 181.74 10.1208 181.662 11.3242 181.584C11.244 181.662 11.244 181.74 11.244 181.819Z" fill="#333161"/>
<path d="M11.5651 187.374C10.6024 188.078 9.71989 188.86 8.67693 189.408C7.39329 190.034 5.9492 190.66 4.42488 190.66C3.94351 190.66 3.46214 190.503 3.38192 189.956C3.30169 189.408 3.62259 189.095 4.10396 188.939C4.74578 188.782 5.30737 188.626 5.9492 188.469C6.51079 188.313 7.07239 188.078 7.63398 187.921C8.51648 187.687 9.47921 187.53 10.4419 187.374C10.7629 187.296 11.0838 187.296 11.4849 187.217C11.4849 187.217 11.4849 187.296 11.5651 187.374Z" fill="#333161"/>
<path d="M54.567 252.391C53.8449 253.408 52.6415 253.408 51.9195 252.391C51.2777 251.452 51.4381 250.435 52.2404 249.418C52.9624 248.557 53.8449 248.245 54.8879 248.088C55.1286 248.01 55.4495 248.166 55.6902 248.245C55.6099 248.479 55.6099 248.792 55.5297 249.027C55.1286 249.575 54.7274 250.044 54.2461 250.513C53.524 251.296 53.524 251.531 54.2461 252.157C54.3263 252.235 54.4065 252.235 54.567 252.391Z" fill="#333161"/>
<path d="M27.1288 171.726C27.0486 172.665 26.5672 173.291 26.0056 173.916C25.444 174.464 24.1604 174.151 23.8395 173.369C23.679 172.899 23.679 172.273 23.7592 171.648C23.7592 171.256 23.9999 170.943 24.1604 170.552C24.4011 170.004 24.8824 169.77 25.444 169.692C26.0056 169.613 26.4068 170.004 26.6474 170.474C26.8079 170.865 26.8881 171.256 27.1288 171.726Z" fill="#333161"/>
<path d="M22.7971 320.929C22.6367 319.834 23.439 319.286 24.0808 318.661C24.4819 318.348 25.204 318.426 25.6051 318.817C25.926 319.13 26.0062 319.756 25.6853 320.225C25.6051 320.382 25.4446 320.46 25.2842 320.617C24.9633 321.008 24.8028 321.321 25.1237 321.868C25.2842 322.103 25.3644 322.651 25.2842 322.729C24.9633 322.964 24.5621 323.12 24.161 323.042C23.4389 322.964 22.9576 322.338 22.7971 321.634C22.7971 321.321 22.7971 321.164 22.7971 320.929Z" fill="#333161"/>
<path d="M56.492 253.956C55.6897 253.956 54.8072 253.017 54.8874 252.235C55.1281 250.748 56.2513 249.809 57.7756 249.731C58.4174 249.731 58.6581 250.044 58.3372 250.592C58.0163 251.061 57.6954 251.531 57.2942 252C57.0536 252.313 56.9733 252.548 57.1338 252.939C57.3745 253.408 57.0536 253.956 56.492 253.956Z" fill="#333161"/>
<path d="M10.4416 259.511C10.4416 260.059 10.4416 260.528 10.4416 261.076C10.4416 261.311 10.3614 261.624 10.2009 261.78C9.88 262.328 9.23819 262.328 8.83705 261.858C8.27546 261.154 8.51613 260.372 8.75682 259.589C8.91727 259.12 9.23818 258.729 9.55909 258.416C9.71955 258.259 9.96023 258.103 10.1207 258.181C10.2811 258.259 10.4416 258.494 10.4416 258.65C10.5218 258.885 10.5218 259.198 10.4416 259.511Z" fill="#333161"/>
<path d="M32.1029 175.872C31.3809 175.872 30.5786 175.09 30.5786 174.386C30.5786 173.838 31.1402 173.447 31.782 173.447C32.9854 173.447 33.3866 173.838 33.3866 174.777C33.3866 175.403 32.825 175.872 32.1029 175.872Z" fill="#333161"/>
<path d="M72.4577 283.844C72.5379 285.487 72.6984 287.052 72.7786 288.695C72.8588 290.338 72.7786 291.902 72.7786 293.545C72.7786 294.641 72.8588 295.736 72.8588 296.832C72.8588 298.318 72.7786 299.805 72.7786 301.291C72.7786 301.995 72.8588 302.7 72.8588 303.404C72.8588 304.186 72.8588 305.047 72.7786 305.829C72.6181 307.237 72.4577 308.568 72.2972 309.976C72.2972 310.054 72.2972 310.054 72.2972 310.132C72.1368 310.445 71.8961 310.758 71.6554 310.993C71.495 310.68 71.0938 310.445 71.0938 310.132C70.8531 308.568 70.6125 307.003 70.5322 305.36C70.452 304.186 70.6125 303.013 70.6125 301.839C70.6125 300.587 70.5322 299.413 70.5322 298.162C70.5322 297.379 70.6125 296.597 70.6125 295.893C70.6125 294.171 70.452 292.45 70.5322 290.729C70.6125 288.616 70.7729 286.582 70.8531 284.47C70.9334 283.687 70.8531 282.905 70.9334 282.122C70.9334 281.809 71.0938 281.418 71.2543 281.105C71.3345 280.949 71.5752 280.792 71.7356 280.792C71.8961 280.792 72.1368 281.027 72.1368 281.184C72.2972 282.044 72.4577 282.905 72.6182 283.765C72.5379 283.844 72.4577 283.844 72.4577 283.844Z" fill="#333161"/>
<path d="M72.2968 275.394C72.1364 276.02 72.0561 276.489 71.9759 276.959C71.9759 277.037 71.8155 277.115 71.7352 277.115C71.655 277.115 71.4946 277.037 71.4143 276.959C70.6121 275.863 70.3714 274.611 70.1307 273.36C70.0505 273.125 70.2911 272.812 70.4516 272.577C70.6923 272.655 71.0934 272.734 71.2539 272.968C71.655 273.829 71.9759 274.69 72.2968 275.394Z" fill="#333161"/>
</g>
<g opacity="0.8">
<path d="M97.129 75.5301C97.129 75.5301 88.8407 70.1963 84.865 64.6981C80.8894 59.1998 80.223 51.7668 83.7084 43.0414C87.1938 34.316 91.9967 32.3737 96.3017 32.2093C100.607 32.045 106.865 33.3598 109.623 36.0192C112.38 38.6787 114.203 43.6839 114.364 47.4041C114.533 51.1244 114.035 57.1007 113.039 60.3353C112.043 63.57 108.236 67.4472 107.24 68.5752C106.245 69.7032 101.442 74.7158 101.442 74.7158L103.717 78.1896L100.614 78.7498L96.6387 77.943L97.129 75.5301Z" fill="#7759C6"/>
<path d="M93.0848 130.408C92.9699 129.982 92.8167 129.646 92.7937 129.302C92.7248 128.264 92.6865 127.233 92.6635 126.195C92.6558 125.851 92.7401 125.507 92.7324 125.156C92.7171 124.626 92.6558 124.095 92.6328 123.557C92.6175 123.274 92.6099 122.982 92.6328 122.698C92.6865 121.989 92.809 121.286 92.5945 120.577C92.5715 120.487 92.5562 120.375 92.5869 120.293C92.7707 119.703 92.5562 119.12 92.5869 118.537C92.6022 118.254 92.6865 117.977 92.7324 117.701C92.7554 117.536 92.809 117.35 92.7707 117.193C92.5716 116.416 92.6941 115.624 92.6635 114.84C92.6405 114.324 92.6099 113.809 92.5869 113.286C92.5869 113.211 92.5716 113.129 92.5869 113.054C92.7248 112.232 92.7631 111.418 92.5869 110.596C92.5716 110.522 92.5715 110.432 92.5945 110.365C92.9316 109.483 92.7631 108.587 92.7171 107.69C92.6941 107.332 92.8014 106.973 92.8167 106.607C92.8473 105.77 92.832 104.926 93.0695 104.112C93.1997 103.664 93.1844 103.193 93.2916 102.767C93.4142 102.274 93.3989 101.804 93.4218 101.318C93.4295 101.228 93.4372 101.116 93.4908 101.042C93.8814 100.556 93.8814 99.966 93.9657 99.4057C94.0653 98.7409 94.1342 98.076 94.5479 97.5008C94.6015 97.4261 94.6628 97.3215 94.6551 97.2393C94.5938 96.4549 95.199 95.9021 95.3752 95.1999C95.4594 94.8712 95.5207 94.5051 95.7122 94.2287C96.0569 93.7432 96.0646 93.153 96.3174 92.645C96.5778 92.1296 96.7846 91.5917 97.0604 91.0912C97.2749 90.7102 97.4894 90.3367 97.6732 89.9258C98.0869 88.9845 98.2707 87.991 98.5388 87.0123C98.761 86.2055 98.7073 85.3838 98.9065 84.577C99.0521 83.9868 98.8912 83.3294 98.8606 82.7019C98.8452 82.3732 98.8452 82.0445 98.8299 81.7233C98.7993 81.0734 98.7763 80.4235 98.7227 79.781C98.6997 79.4374 98.5618 79.2581 98.2094 79.2655C97.589 79.273 97.0911 78.9369 96.6621 78.638C96.1948 78.3168 95.6739 77.9358 95.5667 77.2784C95.5284 77.017 95.3675 76.7779 95.3139 76.5164C95.222 76.0682 95.5054 75.7096 95.6509 75.3137C95.7046 75.1718 95.7888 75.0448 95.9037 74.8281C95.0917 74.7011 94.4713 74.1782 93.6823 74.1035C93.5444 74.0886 93.4065 74.0512 93.284 73.9989C92.9699 73.842 92.6558 73.6777 92.3571 73.4984C92.1885 73.4013 92.043 73.2743 91.8898 73.1548C91.7826 73.0726 91.6983 72.9456 91.5757 72.9008C90.7714 72.6244 90.1509 72.1014 89.5841 71.5038C89.4462 71.3619 89.1704 71.3469 89.0326 71.205C88.55 70.697 87.9142 70.3758 87.4163 69.8902C87.309 69.7856 87.2094 69.6586 87.1252 69.5316C86.8264 69.1058 86.5507 68.6651 86.2443 68.2467C86.1217 68.0824 85.9455 67.9479 85.7847 67.806C85.754 67.7836 85.7081 67.7761 85.6851 67.7462C85.348 67.2158 84.7658 66.8647 84.5743 66.2297C84.5437 66.1251 84.4901 65.9981 84.4058 65.9458C83.9079 65.6396 83.7317 65.1092 83.456 64.6535C83.3257 64.4443 83.1572 64.2575 83.0117 64.0633C82.9044 63.9214 82.7436 63.7869 82.7206 63.6375C82.621 62.8606 81.9086 62.3376 81.8167 61.5532C81.7937 61.3814 81.5792 61.2395 81.5256 61.0602C81.2652 60.2459 80.8285 59.484 80.7826 58.6099C80.7749 58.5053 80.7213 58.3858 80.6523 58.3036C80.3613 57.9974 80.3 57.6313 80.3153 57.2354C80.323 57.071 80.254 56.9067 80.2081 56.7498C80.1851 56.6602 80.1085 56.578 80.0932 56.4883C79.9706 55.5844 79.825 54.6805 79.7638 53.7691C79.7178 53.1416 79.7944 52.5066 79.8327 51.8716C79.8634 51.2964 79.917 50.7287 79.9629 50.1534C79.9706 50.0563 79.94 49.9293 79.9936 49.8696C80.3919 49.4587 80.3919 48.9134 80.4838 48.4128C80.6064 47.7554 80.9281 47.1354 81.0047 46.493C81.089 45.8281 81.426 45.2678 81.5486 44.6328C81.6252 44.2518 81.8626 43.9007 82.0158 43.5347C82.0925 43.3404 82.1537 43.1462 82.215 42.952C82.238 42.8773 82.2303 42.7802 82.284 42.7354C82.9198 42.1527 82.958 41.2861 83.3564 40.5913C83.387 40.5391 83.41 40.4868 83.4407 40.4419C83.9922 39.7472 84.2833 38.8806 84.9727 38.2755C85.1029 38.1635 85.1795 37.9917 85.2638 37.8422C85.9762 36.5125 86.9567 35.4218 88.1823 34.5179C88.3661 34.3835 88.5117 34.1892 88.7032 34.0473C89.1628 33.7037 89.6301 33.3675 90.1126 33.0537C90.6106 32.725 91.1314 32.4187 91.6447 32.1274C91.8745 31.9929 92.1349 31.9033 92.3877 31.8136C93.1844 31.5298 94.0346 31.343 94.8543 31.3878C95.8501 31.4327 96.8766 31.2534 97.8571 31.5596C97.9337 31.5821 98.0103 31.5821 98.0945 31.5821C98.7227 31.6045 99.3508 31.6045 99.9713 31.6642C100.255 31.6866 100.53 31.8211 100.814 31.9033C100.959 31.9481 101.113 32.0452 101.251 32.0378C102.04 31.9929 102.729 32.2768 103.411 32.6279C103.84 32.852 104.315 32.9865 104.774 33.1658C104.866 33.2031 104.966 33.2255 105.05 33.2629C105.839 33.6439 106.628 34.0174 107.402 34.4208C107.861 34.6599 108.206 35.0857 108.734 35.2426C108.819 35.265 108.911 35.3471 108.957 35.4293C109.11 35.7057 109.355 35.8626 109.623 36.0344C110.205 36.4005 110.657 36.901 111.078 37.4388C111.446 37.902 111.852 38.3428 112.189 38.8358C112.595 39.4409 112.955 40.0759 113.315 40.7034C113.997 41.9211 114.288 43.2732 114.74 44.5731C114.84 44.8569 114.832 45.1782 114.893 45.477C114.932 45.6637 114.985 45.8505 115.054 46.0298C115.2 46.4332 115.338 46.8217 115.169 47.2624C115.108 47.4268 115.131 47.6509 115.177 47.8302C115.33 48.3979 115.384 48.9582 115.338 49.5409C115.292 50.0713 115.322 50.6091 115.299 51.147C115.284 51.4085 115.23 51.6699 115.192 51.9314C115.177 52.0435 115.115 52.163 115.131 52.2676C115.223 52.925 115.069 53.5749 115.016 54.2248C115.008 54.3219 115.023 54.4265 114.985 54.5087C114.602 55.4275 114.61 56.4211 114.372 57.3624C114.288 57.6911 114.15 58.0123 114.012 58.326C113.867 58.6622 113.752 58.9909 113.675 59.357C113.56 59.9322 113.269 60.4701 113.093 61.0378C112.833 61.8521 112.251 62.502 111.921 63.2714C111.745 63.6898 111.515 64.0932 111.293 64.4966C111.155 64.7431 110.987 64.9822 110.81 65.2137C110.221 66.0056 109.646 66.8049 108.949 67.5221C108.428 68.06 107.961 68.6576 107.471 69.2328C107.417 69.2926 107.386 69.3822 107.325 69.4121C106.751 69.7109 106.498 70.3086 106.061 70.7344C105.624 71.1602 105.241 71.6457 104.82 72.0865C104.399 72.5273 103.962 72.968 103.503 73.3714C103.365 73.4909 103.097 73.5806 102.92 73.5432C102.507 73.4536 102.43 72.9456 102.79 72.6841C103.25 72.3405 103.518 71.8624 103.847 71.4216C103.87 71.3918 103.886 71.3544 103.909 71.3245C104.422 70.6746 104.935 70.0172 105.456 69.3673C105.984 68.7099 106.459 67.9927 107.072 67.4175C107.647 66.8796 108.068 66.2372 108.558 65.647C109.11 64.9822 109.577 64.2426 110.021 63.503C110.381 62.8979 110.588 62.2032 110.979 61.6205C111.446 60.9332 111.576 60.1413 111.852 59.3943C111.967 59.0955 112.059 58.7967 112.22 58.5053C112.373 58.2289 112.396 57.8853 112.48 57.5715C112.626 57.0187 112.802 56.4734 112.917 55.9131C113.017 55.4201 113.269 54.9345 113.124 54.4041C113.108 54.3518 113.093 54.2771 113.124 54.2323C113.377 53.7616 113.277 53.2312 113.423 52.7382C113.507 52.4469 113.553 52.1406 113.576 51.8343C113.622 51.2815 113.637 50.7212 113.66 50.1684C113.668 49.9966 113.668 49.8248 113.668 49.6455C113.645 48.9955 113.622 48.3456 113.583 47.6882C113.576 47.5388 113.53 47.3894 113.476 47.2475C113.323 46.8515 113.185 46.478 113.262 46.0223C113.308 45.7683 113.131 45.477 113.055 45.2006C112.894 44.5955 112.771 43.9754 112.58 43.3778C112.419 42.8848 112.189 42.4141 111.982 41.9435C111.814 41.5625 111.615 41.189 111.439 40.808C111.385 40.6885 111.377 40.5092 111.285 40.4494C110.772 40.1282 110.619 39.5754 110.312 39.1197C110.09 38.791 109.784 38.5071 109.493 38.2232C109.102 37.8273 108.704 37.4388 108.283 37.0728C108.129 36.9383 107.869 36.9159 107.723 36.7815C107.011 36.1091 106.099 35.7207 105.303 35.1753C105.241 35.1305 105.18 35.0483 105.111 35.0409C104.475 35.0184 104.039 34.6076 103.526 34.3312C103.189 34.1519 102.798 34.0473 102.423 33.9427C101.917 33.8008 101.365 33.8456 100.913 33.5094C100.822 33.4422 100.645 33.487 100.507 33.4646C100.124 33.4048 99.7415 33.3376 99.3585 33.2704C99.3202 33.2629 99.2742 33.233 99.2436 33.2405C98.6078 33.4123 98.0179 33.0761 97.3898 33.0985C96.8076 33.1284 96.2178 33.0014 95.628 32.9641C95.3369 32.9491 95.0381 32.9491 94.7471 32.994C93.9504 33.1135 93.169 33.2928 92.426 33.5991C92.2805 33.6588 92.1579 33.7559 92.02 33.8232C91.8055 33.9352 91.5757 34.0398 91.3689 34.1668C91.0702 34.3461 90.7867 34.5403 90.5033 34.7346C90.4114 34.8018 90.3578 34.9213 90.2659 34.9886C89.3926 35.5862 88.6955 36.3631 88.0367 37.1699C87.5159 37.8124 86.972 38.4399 86.4664 39.0973C86.2596 39.3662 86.1523 39.7024 85.9991 40.0087C85.9455 40.1132 85.9072 40.2253 85.8383 40.3149C85.2255 41.0993 84.8654 42.0107 84.4441 42.8848C84.2526 43.2807 84.1837 43.7214 84.0458 44.1398C83.9232 44.4984 83.7777 44.8495 83.6398 45.2006C83.4407 45.716 83.2415 46.2315 83.05 46.7469C82.9734 46.9561 82.8738 47.1802 82.8585 47.3969C82.8202 48.0468 82.4525 48.5996 82.3529 49.2495C82.2457 49.9219 82.2074 50.6091 82.1308 51.2815C82.0235 52.2227 82.0618 53.1864 82.0388 54.1352C82.0388 54.2099 82.0235 54.2995 82.0542 54.3667C82.2533 54.7776 82.238 55.2184 82.2993 55.6516C82.3682 56.1447 82.2533 56.6975 82.667 57.1158C82.6823 57.1308 82.6899 57.1532 82.6899 57.1681C82.5597 57.8031 83.0117 58.2738 83.1802 58.8191C83.3564 59.3868 83.4866 59.9621 83.6858 60.5223C83.862 61.0229 84.0918 61.5084 84.3216 61.994C84.3752 62.1061 84.5207 62.1808 84.605 62.2854C84.7352 62.4497 84.8961 62.6141 84.9573 62.8008C85.0876 63.2192 85.3557 63.5404 85.6391 63.8541C85.6927 63.9139 85.7847 63.9512 85.8076 64.0185C86.0374 64.6161 86.5124 65.0345 86.8801 65.535C86.972 65.6545 87.0792 65.7666 87.1711 65.8861C87.3167 66.0878 87.5235 66.282 87.5771 66.5061C87.6691 66.8722 87.8912 67.1187 88.1593 67.3503C88.4657 67.6117 88.8028 67.8508 89.1092 68.1197C89.3543 68.3364 89.5305 68.6277 89.7909 68.8145C90.4037 69.2477 90.825 69.9126 91.5681 70.189C91.9358 70.3235 92.2805 70.4729 92.5562 70.7941C92.6941 70.9585 92.9622 71.0182 93.169 71.1153C93.6286 71.3245 94.0959 71.5337 94.5632 71.7429C94.6168 71.7653 94.6858 71.7877 94.7164 71.8325C95.2603 72.5795 96.2791 72.714 96.8536 73.461C97.3668 73.1846 97.8877 73.0875 98.4316 73.2743C98.715 72.6916 99.5117 72.4899 99.9942 72.8858C100.354 73.1772 100.76 73.4461 101.021 73.8122C101.618 74.6339 102.377 75.2988 103.028 76.0682C103.066 76.113 103.081 76.1877 103.127 76.2102C103.947 76.6808 103.717 77.4727 103.748 78.1823C103.755 78.3019 103.686 78.4662 103.595 78.5484C103.028 79.0489 102.453 79.5345 101.595 79.4747C101.067 79.4448 100.538 79.4673 99.9483 79.4673C100.056 80.1919 100.17 80.8493 100.255 81.5067C100.285 81.7681 100.255 82.0371 100.255 82.2985C100.27 82.9858 100.262 83.6731 100.331 84.3529C100.431 85.4361 100.193 86.4819 100.056 87.5353C99.9713 88.2076 99.7185 88.865 99.4963 89.5149C99.3355 90.008 99.1057 90.4786 98.9142 90.9642C98.8759 91.0688 98.8835 91.1883 98.8452 91.3003C98.738 91.629 98.6307 91.9577 98.5005 92.2715C98.3167 92.7122 98.1252 93.1455 97.903 93.5713C97.6579 94.027 97.3055 94.4304 97.3132 94.9832C97.3132 95.0355 97.2749 95.0953 97.2366 95.1401C96.731 95.6556 96.6008 96.313 96.4706 96.9778C96.4399 97.1497 96.3863 97.314 96.3404 97.4784C96.0723 98.3897 95.7965 99.2936 95.5437 100.213C95.4671 100.504 95.4747 100.818 95.4441 101.124C95.4211 101.355 95.4365 101.595 95.3828 101.811C95.2833 102.177 95.13 102.536 95.2833 102.924C95.3062 102.992 95.2986 103.081 95.2756 103.156C94.9615 104.336 95.0534 105.561 94.8696 106.757C94.747 107.563 94.8236 108.4 94.8083 109.222C94.8083 109.356 94.7777 109.491 94.7547 109.618C94.7394 109.73 94.6704 109.872 94.7087 109.954C94.9309 110.425 94.8083 110.888 94.7471 111.366C94.7011 111.717 94.77 112.09 94.77 112.449C94.77 113.077 94.7547 113.712 94.7547 114.339C94.7547 114.451 94.7547 114.571 94.7853 114.675C95.0152 115.512 94.9845 116.349 94.8083 117.185C94.7777 117.327 94.7317 117.521 94.8007 117.626C95.0228 117.962 94.9768 118.328 94.9768 118.687C94.9692 119.24 94.9156 119.785 94.9615 120.338C94.9998 120.734 94.8773 121.137 94.862 121.533C94.8543 121.817 94.9309 122.101 94.9232 122.392C94.9156 123.139 94.8773 123.886 94.8543 124.633C94.839 125.193 94.8313 125.746 94.8083 126.307C94.8007 126.516 94.7547 126.725 94.7087 126.927C94.5632 127.502 94.4636 128.092 94.2338 128.63C93.958 129.257 93.7129 129.892 93.0848 130.408ZM101.932 77.3457C101.488 76.7406 101.059 76.1728 100.638 75.6051C100.63 75.5901 100.607 75.5752 100.592 75.5677C100.178 75.3735 99.9559 75.0074 99.7108 74.6638C99.4504 74.3052 99.098 74.111 98.6614 74.0213C98.5771 74.5368 98.4316 74.9775 98.0869 75.3585C97.8034 75.6723 97.6119 76.0533 97.5583 76.4791C97.5353 76.6808 97.5506 76.8377 97.7651 76.9647C98.1711 77.2112 98.5541 77.4577 99.0674 77.4054C99.1899 77.3905 99.3738 77.4278 99.4504 77.5025C99.7108 77.7864 100.071 77.764 100.385 77.7715C100.929 77.7939 101.465 77.6893 101.932 77.3457Z" fill="#333161"/>
<path d="M37.1512 83.7683C37.1512 83.7683 30.9311 78.4419 27.9207 75.3193C24.9102 72.1967 19.8315 65.802 20.3907 60.64C20.9499 55.478 27.1623 50.5176 30.1804 49.2327C33.1985 47.9478 38.1853 46.633 41.1498 48.0225C44.1142 49.412 48.6414 54.9252 49.2083 59.3327C49.7751 63.7402 49.5836 68.7006 47.1324 72.742C44.6811 76.7835 40.7285 82.2967 40.7285 82.2967L42.9193 85.0682L36.0175 87.257L37.1512 83.7683Z" fill="#FF6FB8"/>
<path d="M57.458 42.1957L55.3285 47.044L61.6558 46.1326L62.2686 43.4956C62.2686 43.4956 71.7366 35.8534 74.0729 32.1929C76.4169 28.5324 78.0562 21.9061 75.4824 13.9054C72.9086 5.90458 68.4504 2.70725 64.7045 1.56428C60.9511 0.421308 52.027 1.85562 49.2234 3.99215C46.4197 6.12868 44.0757 14.1295 43.6085 17.5584C43.1412 20.9873 44.543 29.4438 49.231 34.927C53.919 40.4103 56.309 43.0697 57.458 42.1957Z" fill="#BDE536"/>
<path d="M20 63.2026C20.046 63.1802 20.1379 63.1577 20.1379 63.1279C20.2221 62.2987 20.2528 61.4545 20.3907 60.6327C20.5056 59.9978 20.7584 59.3852 20.9499 58.7577C20.9728 58.6905 21.0571 58.6307 21.0648 58.5635C21.1873 57.682 21.7695 56.9947 22.1219 56.2103C22.4819 55.3885 22.9185 54.5817 23.4088 53.8272C23.8377 53.1698 24.3663 52.5647 24.8872 51.9671C25.2932 51.5039 25.7145 51.0408 26.1894 50.6523C27.2235 49.8007 28.2347 48.9192 29.5369 48.456C29.5522 48.4486 29.5752 48.4411 29.5905 48.4336C30.257 47.9555 31.0613 47.7463 31.8043 47.4401C32.2333 47.2608 32.7082 47.1114 33.2214 47.1114C33.7193 47.1114 34.2173 46.9545 34.7228 46.8723C34.876 46.8424 35.0292 46.7976 35.1901 46.7827C35.9331 46.7378 36.6838 46.6706 37.4269 46.6706C37.7716 46.6706 38.1086 46.7901 38.4533 46.8723C38.6985 46.9321 38.9436 47.0068 39.1964 47.074C39.9164 47.2682 40.6288 47.4625 41.165 48.0227C41.2033 48.0601 41.2569 48.1049 41.3106 48.1124C42.1149 48.217 42.5362 48.9117 43.172 49.2703C43.4095 49.4048 43.6086 49.5915 43.8308 49.7559C44.75 50.4133 45.6079 51.1379 46.282 52.0418C46.4199 52.2286 46.5654 52.4153 46.7416 52.5647C47.3927 53.1549 47.6838 53.9617 48.1204 54.6788C48.312 54.9926 48.4422 55.3362 48.649 55.6351C48.9401 56.0534 49.0703 56.5315 49.2542 56.9947C49.3767 57.3159 49.5682 57.6147 49.6755 57.9434C49.8516 58.4738 49.9972 59.0042 50.1198 59.5495C50.3419 60.5655 50.3496 61.6039 50.3725 62.6423C50.3802 62.956 50.5181 63.2773 50.5334 63.591C50.5564 64.1364 50.587 64.6892 50.5104 65.227C50.4721 65.481 50.4262 65.7425 50.3955 66.004C50.3036 66.6838 50.1734 67.3636 50.0278 68.0359C49.9282 68.5215 49.844 69.022 49.6295 69.4628C49.392 69.9558 49.4533 70.5684 48.9784 70.9643C48.9477 70.9867 48.9171 71.0166 48.9018 71.0539C48.5877 71.7338 48.2966 72.421 47.9672 73.0934C47.5996 73.8479 47.2165 74.6024 46.8182 75.3419C46.688 75.5885 46.4965 75.8126 46.3356 76.0516C46.1441 76.3206 45.9679 76.5895 45.9909 76.9481C45.9986 77.0676 45.899 77.2021 45.8224 77.3067C45.0947 78.3226 44.3593 79.3386 43.6239 80.3471C43.578 80.4069 43.5167 80.4592 43.4554 80.504C42.8503 80.9373 42.4136 81.5274 41.931 82.0728C41.8315 82.1848 41.7242 82.2819 41.617 82.394C42.4826 82.8497 43.0571 84.2093 42.9269 85.0759C42.8809 85.3747 42.6817 85.5465 42.429 85.681C41.9081 85.9499 41.3948 86.2338 40.8586 86.4579C40.5675 86.5774 40.4756 86.7716 40.4526 87.0256C40.3607 87.9445 40.2994 88.8633 40.4679 89.7747C40.5522 90.223 40.7207 90.6562 40.8356 91.097C41.0808 92.0831 41.4714 93.0094 41.8238 93.9581C42.0613 94.5931 42.1838 95.2729 42.5209 95.878C42.5668 95.9527 42.5515 96.0723 42.5362 96.1619C42.5132 96.4308 42.4826 96.6774 42.6971 96.9089C42.7737 96.9911 42.7737 97.1629 42.789 97.2899C42.8273 97.783 42.789 98.291 43.0724 98.7392C43.103 98.784 43.1337 98.8587 43.1184 98.9035C42.9039 99.5908 43.2792 100.263 43.1873 100.95C43.1567 101.189 43.2409 101.436 43.2792 101.683C43.2869 101.742 43.3022 101.802 43.2945 101.854C43.1796 102.631 43.0724 103.401 42.9498 104.178C42.8043 105.089 42.1302 105.724 41.7089 106.501C41.6859 106.538 41.617 106.553 41.5251 106.598C41.4101 105.687 41.2876 104.805 41.1957 103.916C41.165 103.617 41.2416 103.311 41.2493 103.005C41.2569 102.781 41.234 102.549 41.2186 102.325C41.2033 102.153 41.1267 101.959 41.1803 101.817C41.4408 101.152 41.2646 100.465 41.3259 99.7925C41.3642 99.3592 41.165 98.9035 41.0884 98.4553C41.0118 98.022 40.9582 97.5813 40.8893 97.148C40.8739 97.0359 40.828 96.9314 40.7897 96.8268C40.6978 96.5803 40.5905 96.3337 40.5216 96.0797C40.4296 95.7286 40.445 95.3701 40.2075 95.0488C40.0696 94.8546 39.993 94.5782 40.0007 94.3391C40.0083 93.8162 39.7479 93.3829 39.6177 92.9123C39.3955 92.098 39.2117 91.2763 39.0278 90.4545C38.8976 89.8718 38.8823 89.2817 38.9742 88.6766C39.0278 88.3105 38.9283 87.9221 38.8976 87.5486C38.4227 87.683 37.9784 87.825 37.5264 87.937C36.8217 88.1088 36.1783 87.8623 35.6267 87.4963C35.282 87.2647 35.1671 86.7866 35.1978 86.3458C35.2437 85.7631 35.3969 85.2178 35.688 84.7023C36.0557 84.0449 36.5766 83.4847 36.8677 82.7825C36.9826 82.5135 37.2583 82.3043 37.4805 82.0877C37.649 81.9234 37.9018 81.8935 38.078 82.0429C38.2082 82.1475 38.2771 82.3566 38.3001 82.5285C38.3231 82.6704 38.2542 82.8347 38.1852 82.9692C37.8865 83.5444 37.649 84.1719 37.243 84.6725C36.906 85.0908 36.8983 85.5988 36.6532 86.0246C36.6225 86.0844 36.6302 86.174 36.6149 86.3234C37.3732 86.1889 38.0933 86.1217 38.7597 85.7183C39.3036 85.3896 39.9241 85.173 40.4986 84.8891C40.6978 84.792 40.8739 84.6351 41.0425 84.5156C40.7667 84.1421 40.5369 83.8208 40.2841 83.4772C40.0083 83.522 39.6713 83.5893 39.3266 83.6191C38.9589 83.649 38.7827 83.4473 38.821 83.0962C38.8593 82.7675 38.9512 82.4612 39.2193 82.2222C39.3189 82.1325 39.3879 82.013 39.4568 81.9009C39.7096 81.4975 39.9317 81.0792 40.2152 80.6907C40.4296 80.3994 40.7131 80.1603 40.9582 79.8914C41.188 79.6374 41.4178 79.376 41.64 79.107C41.954 78.7186 42.2681 78.3301 42.5592 77.9342C42.9345 77.4262 43.2869 76.8958 43.6546 76.3878C43.8461 76.1263 44.0682 75.8798 44.275 75.6258C44.321 75.5661 44.3899 75.5212 44.4206 75.454C44.7806 74.7368 45.11 74.0048 45.493 73.2951C45.7305 72.8618 46.0445 72.4808 46.328 72.0699C46.4046 71.9579 46.5271 71.8607 46.5501 71.7412C46.6803 71.0838 47.1706 70.5534 47.2395 69.8661C47.2778 69.5001 47.4464 69.134 47.6072 68.7904C47.8294 68.3123 47.9902 67.8342 48.0132 67.3113C48.0362 66.8929 48.2124 66.497 48.3196 66.1011C48.4652 65.5184 48.4958 64.9282 48.5571 64.353C48.626 63.6433 48.7333 62.9336 48.649 62.1866C48.5494 61.3051 48.2966 60.4535 48.2354 59.572C48.2277 59.4823 48.1894 59.3852 48.1511 59.303C47.9749 58.9295 47.906 58.5485 47.86 58.1376C47.8217 57.7716 47.6072 57.4205 47.4617 57.0694C47.3927 56.9125 47.2702 56.7706 47.2319 56.6137C47.0633 55.8442 46.5961 55.2391 46.1441 54.6116C45.7841 54.1111 45.493 53.5658 45.11 53.0877C44.1372 51.8775 43.0724 50.7644 41.6476 50.0173C40.9659 49.6588 40.3147 49.2105 39.6866 48.7698C39.0585 48.329 38.3537 48.1497 37.603 48.1273C37.0975 48.1124 36.5842 48.1273 36.0787 48.1497C35.6267 48.1647 35.1824 48.202 34.7305 48.2244C33.9492 48.2543 33.2521 48.5756 32.509 48.7474C31.0536 49.0835 29.8893 49.9576 28.656 50.7046C28.0508 51.0707 27.4916 51.5189 27.032 52.0717C26.7103 52.4602 26.2967 52.7664 25.9826 53.1549C25.5843 53.6479 25.2549 54.1933 24.8872 54.7162C24.734 54.9328 24.5425 55.1271 24.4046 55.3587C23.9603 56.1132 23.5007 56.8677 23.1177 57.6521C22.8572 58.2049 22.7653 58.8324 22.5125 59.3852C22.2444 59.9754 22.2214 60.6029 22.0529 61.2005C21.7235 62.4032 21.6929 63.6209 21.8614 64.846C21.9687 65.6304 22.2444 66.3476 22.5279 67.0872C22.7806 67.7446 23.2479 68.2525 23.516 68.8875C23.7152 69.3507 24.2131 69.7018 24.5731 70.0977C24.6267 70.1575 24.7263 70.1874 24.7416 70.2546C25.0021 70.9792 25.6072 71.4125 26.1281 71.928C26.3579 72.1521 26.4422 72.5331 26.6873 72.7348C27.3155 73.2502 27.7214 73.93 28.2577 74.5127C28.8551 75.1552 29.4833 75.7678 30.1038 76.3803C30.2263 76.4999 30.3795 76.5895 30.5251 76.6866C30.6017 76.7464 30.7166 76.7837 30.7625 76.8584C31.1609 77.6129 31.9881 77.9715 32.4861 78.6439C32.8001 79.0697 33.2597 79.3909 33.6581 79.7569C33.6734 79.7719 33.6964 79.7719 33.7117 79.7868C34.087 80.1155 34.1713 80.7505 33.8802 81.0269C33.6121 81.2809 32.961 81.2137 32.6546 80.8626C31.8349 79.9063 30.7778 79.1892 29.8893 78.3002C28.9011 77.3141 27.8593 76.3729 26.9324 75.327C26.4882 74.8265 25.9596 74.4081 25.5919 73.8329C25.454 73.6163 25.1936 73.4669 24.9868 73.2876C24.665 73.0037 24.3357 72.7423 24.2054 72.3015C24.1595 72.1297 23.9986 71.9653 23.8531 71.8533C23.2019 71.3602 22.7577 70.7253 22.367 70.038C22.1372 69.642 21.8461 69.276 21.578 68.9025C20.9728 68.0807 20.6511 67.1469 20.4673 66.1608C20.36 65.6006 20.1762 65.0552 20.023 64.5099C20 64.0542 20 63.6284 20 63.2026Z" fill="#333161"/>
<path d="M64.9343 98.9857C64.7275 98.7168 64.467 98.4778 64.3215 98.1789C64.0304 97.5888 63.7853 96.9762 63.6857 96.3113C63.6704 96.1993 63.6397 96.0872 63.5938 95.9826C63.272 95.2954 63.3103 94.5707 63.3103 93.8386C63.3103 93.2485 63.2184 92.6508 63.1954 92.0607C63.1801 91.6946 63.1801 91.3286 63.2337 90.9625C63.318 90.3873 63.272 89.827 63.2184 89.2518C63.1418 88.4002 63.1878 87.5336 63.1801 86.6671C63.4865 86.1964 63.2797 85.7183 63.2337 85.2327C63.1878 84.665 63.2873 84.0823 63.3027 83.5071C63.318 83.0514 63.318 82.5957 63.318 82.14C63.3256 81.7366 63.3256 81.3332 63.341 80.9373C63.3563 80.4069 63.4482 79.869 63.2873 79.3461C63.272 79.2938 63.272 79.2266 63.2873 79.1743C63.5325 77.979 63.2414 76.7912 63.295 75.5959C63.318 75.1253 63.1878 74.6472 63.1341 74.1691C63.0958 73.8479 63.0805 73.5192 63.0499 73.1905C63.0039 72.7721 62.958 72.3538 62.9043 71.9429C62.8967 71.8832 62.8507 71.8234 62.8584 71.7786C63.0805 70.9867 62.5443 70.2472 62.6975 69.4628C62.7128 69.3731 62.6975 69.2685 62.6745 69.1789C62.4907 68.5514 62.2685 67.9388 62.1307 67.3038C62.0081 66.751 61.8472 66.2131 61.6787 65.6753C61.5408 65.2345 61.4336 64.7938 61.3034 64.3455C61.2804 64.2708 61.2651 64.1812 61.2114 64.1364C60.8514 63.8376 60.7748 63.4267 60.6982 63.0084C60.6752 62.8888 60.568 62.7842 60.5144 62.6647C60.3688 62.3734 60.2233 62.082 60.0777 61.7981C59.9322 61.5068 59.779 61.2229 59.6411 60.9316C59.5415 60.7224 59.4113 60.5207 59.373 60.3041C59.2275 59.5421 58.8828 58.8548 58.6223 58.1377C58.4921 57.7791 58.4308 57.3981 58.3312 57.0246C58.247 56.7183 58.1397 56.412 58.0708 56.0982C58.0095 55.8218 57.9865 55.5305 57.9482 55.2541C57.9023 54.8955 57.8793 54.5295 57.8257 54.1709C57.7184 53.4836 57.7567 52.8113 57.841 52.124C57.8946 51.6459 57.9023 51.1678 57.9329 50.6897C57.9482 50.4282 57.9559 50.1667 57.9789 49.9053C58.0325 49.3525 58.0938 48.8071 58.155 48.217C57.6801 48.0003 57.1592 48.0975 56.6766 48.1348C55.7881 48.2095 55.1982 47.7463 54.5931 47.2533C54.5624 47.2309 54.5394 47.1935 54.5165 47.1637C54.2177 46.708 54.4322 45.3782 54.8382 45.0122C55.068 44.803 55.2672 44.564 55.4663 44.3324C55.9336 43.7945 56.5158 43.3538 56.8988 42.7262C57.0213 42.5245 57.2588 42.3826 57.4503 42.2183C57.6112 42.0763 57.8103 41.9568 57.9252 41.7924C58.1627 41.4488 58.4768 41.3368 58.8904 41.3517C59.4343 41.3741 59.4956 41.404 59.7101 41.9493C60.2463 41.7028 60.7595 41.8597 61.1808 42.0464C61.7783 41.7028 62.3145 41.3965 62.8507 41.0902C62.9043 41.0604 62.9656 41.0305 62.9886 40.9856C63.3027 40.4328 63.9002 40.2909 64.4211 40.0294C64.9419 39.7754 65.4935 39.5887 65.9378 39.1778C66.2288 38.9163 66.6578 38.7968 67.0178 38.6101C67.1864 38.5204 68.3201 37.4297 68.458 37.3102C68.8869 36.9143 69.3159 36.5183 69.7755 36.1672C70.1355 35.8908 70.4956 35.6294 70.5645 35.1438C70.5722 35.0691 70.6181 34.9944 70.6641 34.9346C71.0318 34.4939 71.4071 34.0681 71.7825 33.6273C71.8591 33.5451 71.974 33.463 71.9893 33.3658C72.0659 32.9849 72.3263 32.7309 72.5715 32.447C72.8166 32.1556 72.9851 31.8045 73.1766 31.4758C73.2226 31.3937 73.2379 31.2741 73.3068 31.2218C73.7741 30.8558 73.9196 30.3105 74.1571 29.8249C74.3027 29.5335 74.4176 29.2273 74.5248 28.921C74.724 28.3457 74.9002 27.7556 75.0917 27.1804C75.13 27.0683 75.1683 26.9563 75.2372 26.8666C75.4287 26.6276 75.5359 26.3885 75.4517 26.0747C75.4287 25.9926 75.444 25.8656 75.49 25.7909C75.9036 25.1634 75.8347 24.4462 75.8883 23.7515C75.9113 23.4676 76.0722 23.1986 76.1028 22.9222C76.1488 22.4666 76.1717 22.0034 76.1488 21.5552C76.1028 20.7708 75.9496 19.9939 75.9572 19.2095C75.9572 18.6268 75.7504 18.0889 75.7657 17.5212C75.7657 17.4465 75.7811 17.3493 75.7428 17.297C75.3368 16.7891 75.3904 16.1391 75.1989 15.5639C75.1453 15.407 75.0533 15.2576 74.9691 15.1082C74.5861 14.4583 74.5784 13.6739 74.1724 13.024C74.0039 12.755 73.9426 12.4114 73.889 12.0976C73.7511 11.3431 73.3145 10.7231 72.9621 10.0657C72.6098 9.40831 72.2804 8.75092 71.8974 8.10846C71.6752 7.73494 71.3688 7.39878 71.093 7.05514C70.6871 6.54716 70.2734 6.0317 69.8598 5.53118C69.4078 4.98584 68.9482 4.44051 68.3584 4.01469C67.9371 3.70841 67.5847 3.30501 67.1481 3.02113C66.6578 2.70738 66.1216 2.43844 65.5701 2.22927C64.9496 1.99769 64.3062 1.84081 63.6627 1.67646C62.9809 1.50464 62.2915 1.63911 61.6098 1.68393C61.3187 1.69887 61.0199 1.72875 60.7289 1.76611C60.3995 1.80346 60.0777 1.85575 59.7484 1.90057C59.7101 1.90804 59.6718 1.93793 59.6335 1.93046C58.9134 1.75864 58.2623 2.2218 57.5499 2.11722C57.435 2.10227 57.2818 2.10227 57.2052 2.16204C56.9218 2.40856 56.5771 2.4235 56.2247 2.49821C55.4433 2.66256 54.662 2.86425 54.0109 3.37224C53.8424 3.50671 53.5743 3.52165 53.3674 3.62623C52.9461 3.82793 52.5325 4.04457 52.1265 4.26869C51.7358 4.48533 51.3528 4.72438 50.9698 4.96343C50.8549 5.03066 50.7783 5.15019 50.6711 5.23237C50.5408 5.34442 50.4183 5.5013 50.2574 5.54612C49.8131 5.67312 49.5757 6.01676 49.2846 6.31558C49.1773 6.42763 49.0701 6.53222 48.9552 6.62933C48.4879 7.03273 48.1126 7.50337 47.7449 7.99641C47.4768 8.36246 47.3925 8.87044 46.9023 9.07214C46.8257 9.10203 46.7644 9.22156 46.7491 9.30373C46.6188 10.0807 46.0826 10.6858 45.7992 11.3954C45.7226 11.5897 45.623 11.7839 45.5694 11.9856C45.3396 12.7924 45.1251 13.5992 44.9106 14.406C44.8876 14.4957 44.8417 14.6002 44.8647 14.6824C45.0102 15.0858 44.8187 15.4295 44.7191 15.7955C44.6425 16.0868 44.5966 16.3931 44.5659 16.6919C44.5276 17.1476 44.497 17.6108 44.497 18.0665C44.497 18.5297 44.5429 18.9854 44.5583 19.4485C44.5736 19.7922 44.5429 20.1433 44.5736 20.4869C44.5966 20.7857 44.6732 21.0845 44.7268 21.3833C44.7574 21.5701 44.7957 21.7569 44.834 21.9436C44.8723 22.1453 44.9106 22.347 44.9489 22.5413C44.9719 22.6683 45.0485 22.8027 45.0332 22.9297C44.9259 23.5796 45.1328 24.1623 45.3396 24.76C45.5081 25.2231 45.5924 25.7236 45.6613 26.2167C45.7226 26.6425 45.8605 27.016 46.075 27.397C46.2665 27.7406 46.3507 28.144 46.458 28.525C46.6188 29.0928 46.7644 29.6531 47.1167 30.1536C47.3006 30.4151 47.3466 30.7662 47.5151 31.0351C47.967 31.7896 48.4343 32.5366 48.9245 33.2613C49.4301 34.0083 49.9587 34.7479 50.5179 35.4576C50.8855 35.9207 51.3375 36.3167 51.7205 36.7649C52.1954 37.3252 52.6321 37.9078 53.0764 38.4905C53.2985 38.7819 53.4977 39.0956 53.7198 39.387C54.0875 39.8726 54.4552 40.3656 54.8382 40.8362C54.9837 41.0155 55.1752 41.15 55.3438 41.3069C55.5812 41.5235 55.6348 41.7476 55.4893 41.9717C55.3208 42.2183 55.0527 42.293 54.7693 42.0913C54.4552 41.8671 54.1335 41.6281 53.8883 41.3367C53.1606 40.4702 52.3486 39.6783 51.5979 38.8416C50.8702 38.0274 50.1655 37.1907 49.4148 36.3988C48.4879 35.4202 47.6836 34.3594 46.9252 33.2613C46.5652 32.7458 46.3278 32.1482 46.0367 31.5879C45.8835 31.2966 45.7609 30.9903 45.5771 30.7288C45.0255 29.9369 44.7727 29.0181 44.497 28.1366C44.3361 27.6286 44.1676 27.1355 43.9531 26.6425C43.7616 26.2092 43.6927 25.7236 43.6084 25.253C43.4858 24.5583 43.4705 23.8486 43.1718 23.1837C43.1181 23.0642 43.1335 22.9148 43.1335 22.7878C43.1335 22.6907 43.1947 22.5711 43.1564 22.5039C42.8424 22.0183 43.0722 21.5029 43.0339 21.0024C43.0032 20.5317 42.7811 20.091 42.8117 19.5904C42.8654 18.5222 42.6432 17.4465 42.9879 16.3857C43.0415 16.2138 42.9803 16.0047 42.9649 15.8179C42.9496 15.6312 42.873 15.422 42.919 15.2502C43.1564 14.3089 43.4092 13.3676 43.6773 12.4338C43.8765 11.7391 44.091 11.0369 44.3361 10.3571C44.4817 9.94618 44.6885 9.55025 44.903 9.16179C45.3243 8.42969 45.7226 7.68265 46.2205 7.00285C46.6954 6.35293 47.2623 5.77023 47.8138 5.1726C47.944 5.03066 48.1509 4.9709 48.2964 4.84391C48.6105 4.5675 49.0241 4.39568 49.231 4.00722C49.2539 3.9624 49.3076 3.91011 49.3612 3.8877C50.311 3.4843 51.0311 2.68497 52.0805 2.43844C52.3333 2.37868 52.5248 2.12469 52.7776 2.0201C53.2602 1.81093 53.7658 1.64658 54.2637 1.45982C54.4475 1.39259 54.639 1.33282 54.7999 1.22824C55.405 0.847248 56.0638 0.638075 56.7915 0.660486C56.8681 0.660486 56.9677 0.67543 57.0213 0.645548C57.6648 0.242147 58.4078 0.28697 59.1126 0.167444C59.1738 0.159973 59.2275 0.130091 59.2811 0.137562C60.1697 0.286969 61.0276 -0.0641375 61.9162 0.0105664C62.7358 0.0777999 63.5861 -0.026786 64.3904 0.115151C65.1947 0.257089 66.0603 0.32432 66.7421 0.907011C67.0868 1.19836 67.5234 1.38512 67.9294 1.6167C68.5346 1.96034 69.1397 2.30397 69.6146 2.8269C69.7602 2.98378 69.944 3.10331 70.1125 3.23777C70.9398 3.8877 71.6676 4.61979 72.2651 5.49383C72.7859 6.24834 73.3222 7.00285 73.8584 7.74989C74.4559 8.5791 75.0533 9.45314 75.2985 10.4766C75.3215 10.5662 75.3368 10.6783 75.3981 10.7455C76.0415 11.4253 76.1641 12.3516 76.5318 13.151C76.7999 13.7337 77.1522 14.3537 77.0986 15.0559C77.091 15.1456 77.1522 15.2427 77.1905 15.3249C77.5582 16.1167 77.6118 16.9833 77.8187 17.8125C77.8416 17.9021 77.8416 18.0217 77.9029 18.0814C78.2936 18.5371 78.2247 19.0899 78.2706 19.6129C78.3013 19.9714 78.3702 20.3375 78.3779 20.6961C78.3932 21.5029 78.4315 22.3171 78.3779 23.1165C78.3319 23.7888 78.24 24.4836 78.0331 25.1185C77.9106 25.507 77.8263 25.8805 77.834 26.2839C77.834 26.3362 77.8263 26.4109 77.788 26.4483C77.2212 27.0907 77.2595 27.9424 76.999 28.6819C76.7233 29.4738 76.2407 30.176 76.0338 30.9977C75.9955 31.1397 75.8577 31.2517 75.7887 31.3862C75.6968 31.5505 75.6202 31.7224 75.5436 31.8942C75.4517 32.1033 75.4287 32.3947 75.2678 32.5142C74.8082 32.8728 74.678 33.4181 74.3563 33.8439C74.1265 34.1502 73.7818 34.3893 73.6286 34.7255C73.4677 35.084 73.3375 35.4277 72.9928 35.6593C72.9008 35.719 72.8702 35.8535 72.8089 35.9506C72.7476 36.0477 72.7017 36.1822 72.6098 36.2345C72.1348 36.5109 71.8514 36.9442 71.545 37.37C71.4224 37.5418 71.2922 37.7061 71.1926 37.8854C70.9169 38.3859 70.5492 38.7968 70.013 39.0508C69.8751 39.118 69.7755 39.245 69.6529 39.3422C69.3465 39.5737 69.0248 39.7904 68.7184 40.022C68.6265 40.0892 68.5346 40.1564 68.4503 40.2386C67.9447 40.7242 67.4621 41.2247 66.7497 41.4264C66.6348 41.4563 66.5046 41.5086 66.4433 41.5907C66.1293 41.9941 65.662 42.1585 65.233 42.3901C64.9036 42.5694 64.5972 42.7337 64.1912 42.7412C63.9155 42.7487 63.655 42.9504 63.3793 43.0624C63.0192 43.2044 62.6592 43.3388 62.2839 43.4882C62.4294 43.8169 62.5596 44.1531 62.7205 44.4743C62.8967 44.8105 62.8737 45.1317 62.7435 45.4679C62.6592 45.6845 62.5903 45.9012 62.5213 46.1253C62.4983 46.2 62.4984 46.2971 62.4447 46.3419C62.0004 46.6856 61.763 47.2234 61.1885 47.4475C60.7595 47.6193 60.3612 47.8509 59.8786 47.8958C59.5415 47.9331 59.4343 48.1497 59.4113 48.5307C59.35 49.7335 59.2658 50.9362 59.2275 52.1389C59.2121 52.6469 59.2964 53.1549 59.3347 53.6629C59.3424 53.76 59.396 53.8497 59.396 53.9468C59.419 55.2616 59.7637 56.524 60.1773 57.7641C60.3765 58.3692 60.6139 58.9743 60.9893 59.5346C61.4259 60.1845 61.7706 60.9166 61.9851 61.6637C62.1 62.0671 62.2839 62.4331 62.4294 62.8141C62.552 63.1129 62.6286 63.4267 62.7511 63.7255C62.912 64.114 63.1112 64.4875 63.2644 64.8834C63.3639 65.1299 63.4099 65.3914 63.4788 65.6529C63.5171 65.8023 63.5172 65.9741 63.6014 66.0936C64.1223 66.8705 64.1376 67.7595 64.2832 68.6261C64.3138 68.8278 64.3368 69.0594 64.444 69.2237C64.7428 69.6719 64.7811 70.15 64.7428 70.658C64.7351 70.8 64.7811 70.9419 64.8117 71.0838C64.8347 71.1735 64.9036 71.2631 64.896 71.3528C64.8041 72.2716 65.3096 73.1083 65.2943 74.0122C65.2866 74.4306 65.2713 74.8564 65.3479 75.2673C65.5241 76.2085 65.302 77.1423 65.3786 78.0761C65.3862 78.1882 65.3403 78.3301 65.3862 78.4198C65.685 78.995 65.5165 79.5702 65.4705 80.1604C65.4399 80.5339 65.5318 80.9223 65.5624 81.3033C65.5777 81.4751 65.5854 81.647 65.5777 81.8263C65.5548 82.7078 65.5318 83.5967 65.5011 84.4782C65.4858 84.8966 65.4169 85.3149 65.3939 85.7333C65.3786 85.92 65.3556 86.1292 65.4322 86.301C65.662 86.8464 65.6314 87.3842 65.5088 87.937C65.4935 87.9968 65.4628 88.0565 65.4782 88.1088C65.7463 89.0426 65.3326 89.9764 65.5011 90.9102C65.6543 91.7693 65.5624 92.6284 65.4092 93.4801C65.3939 93.5548 65.3939 93.6369 65.4092 93.7116C65.5701 94.496 65.5318 95.273 65.4169 96.0648C65.3403 96.5579 65.3939 97.0658 65.3556 97.5664C65.3173 98.037 65.233 98.5002 65.1717 98.9708C65.0645 98.9633 65.0032 98.9783 64.9343 98.9857ZM59.4649 42.5918C59.3347 42.6441 59.2428 42.674 59.1585 42.7113C58.3465 43.1147 57.9635 43.9514 57.2971 44.5042C57.0213 44.7358 56.8452 45.0794 56.623 45.3708C56.4775 45.565 56.3243 45.7592 56.1251 46.0207C57.0443 46.3195 57.8563 46.7154 58.7142 46.0954C58.7832 46.0431 58.9057 46.0207 58.9977 46.0356C59.6488 46.1029 60.116 45.7667 60.5833 45.4081C60.5297 44.93 60.4761 44.4967 60.1314 44.1157C59.7484 43.7049 59.5032 43.2043 59.4649 42.5918Z" fill="#333161"/>
</g>
</svg>
