<svg width="627" height="521" viewBox="0 0 627 521" fill="none" xmlns="http://www.w3.org/2000/svg">
<path d="M560.754 394.053C529.513 436.686 491.272 475.93 441.582 496.7C391.891 517.47 331.162 520.104 269.621 520.391C208.079 521.012 145.727 518.952 108.309 492.286C70.4772 465.619 57.1707 413.675 37.6172 370.057C18.4767 326.442 -6.49562 290.82 1.54887 259.084C9.59335 227.348 51.0676 199.501 75.2502 162.846C99.8478 125.86 107.567 80.0694 137.483 51.1462C167.815 21.8909 220.344 9.50309 277.79 3.50298C334.823 -2.49969 396.773 -2.11462 452.834 15.2978C508.893 33.0449 559.482 67.1527 589.775 110.503C620.48 154.19 631.304 206.788 624.388 256.264C617.062 305.403 592.406 351.757 560.754 394.053Z" fill="#F38480"/>
</svg>
