<svg width="787" height="674" viewBox="0 0 787 674" fill="none" xmlns="http://www.w3.org/2000/svg">
<path d="M205.779 611.855C140.281 580.585 79.5157 541.572 45.8785 489.158C12.2413 436.745 5.24771 371.393 1.73306 305.033C-2.2834 238.69 -2.31902 171.321 35.7915 129.445C73.8853 87.1238 151.112 69.8163 215.54 46.2447C279.985 23.1187 332.151 -5.84266 380.144 1.02836C428.138 7.89939 471.976 51.0484 528.154 75.0457C584.851 99.4719 653.904 105.192 698.776 135.814C744.167 166.865 765.377 222.817 777.254 284.436C789.114 345.609 791.642 412.448 768.341 473.906C744.538 535.38 695.927 591.884 632.438 627.025C568.465 662.627 490.134 677.295 415.594 672.65C341.539 667.544 270.791 643.588 205.779 611.855Z" fill="#7BD461"/>
</svg>
