<?xml version="1.0" standalone="no"?>
<svg viewBox="0 0 200 200" xmlns="http://www.w3.org/2000/svg">
  <path fill="#FF0066" d="M40.4,-70.2C53.2,-62.7,65,-53.5,71.3,-41.5C77.6,-29.5,78.5,-14.8,78.7,0.1C79,15,78.5,30.1,70.6,39.2C62.7,48.4,47.2,51.7,34.2,56.5C21.2,61.2,10.6,67.3,1.1,65.4C-8.4,63.5,-16.8,53.5,-27.8,47.7C-38.9,41.8,-52.6,40,-61.3,32.8C-70.1,25.5,-73.9,12.8,-75.8,-1.1C-77.7,-14.9,-77.7,-29.9,-72.6,-43.5C-67.4,-57.1,-57.3,-69.4,-44.4,-76.8C-31.4,-84.3,-15.7,-87,-0.9,-85.4C13.8,-83.7,27.7,-77.8,40.4,-70.2Z" transform="translate(100 100)" />
</svg>
